<svg width="175" height="67" viewBox="0 0 175 67" fill="none" xmlns="http://www.w3.org/2000/svg"><path fill-rule="evenodd" clip-rule="evenodd" d="M22.536 64.504l-10.288-3.67V45.86l10.288 3.484v15.16zm1.89 0l10.288-3.67V45.86l-10.288 3.484v15.16zM13.308 44.745l10.407-2.908 9.66 3.088-9.66 3.255-10.407-3.435zm-3.02-1.163L0 39.918V24.945l10.288 3.484v15.153zm1.883 0l10.295-3.664V24.945L12.171 28.43v15.153zM1.06 23.823l10.407-2.908 9.66 3.096-9.66 3.255L1.06 23.823zm33.235 19.759l-10.287-3.664V24.945l10.287 3.484v15.153zm1.884 0l10.288-3.664V24.945L36.179 28.43v15.153zM25.06 23.823l10.414-2.908 9.654 3.096-9.654 3.255-10.413-3.442zm21.483-1.156l-10.288-3.664V4.031l10.288 3.476v15.16zm1.884 0l10.288-3.664V4.031L48.427 7.507v15.16zM37.309 2.909L47.722 0l9.654 3.089-9.654 3.255L37.31 2.909zm33.235 19.758l-10.288-3.664V4.031l10.288 3.476v15.16zm1.89 0l10.288-3.664V4.031L72.434 7.507v15.16zM61.316 2.909L71.73 0l9.653 3.089-9.653 3.255-10.414-3.435z" fill="#8D96BD"/><path d="M65.313 54.746l-3.488 11.918h-1.471l-2.686-8.85-2.469 8.85h-1.534l-3.592-11.918h1.862l2.616 8.885 2.49-8.885h1.395l2.706 8.913 2.692-8.913h1.479zm9.563 8.366l1.736.353a4.891 4.891 0 01-1.848 2.534 5.39 5.39 0 01-3.243.998 5.075 5.075 0 01-2.184-.413 5.041 5.041 0 01-1.792-1.305 6.55 6.55 0 01-1.514-4.508 6.605 6.605 0 011.577-4.599 5.09 5.09 0 011.782-1.32 5.123 5.123 0 012.18-.439 4.808 4.808 0 012.063.39c.65.28 1.23.7 1.696 1.23.958 1.072 1.446 2.688 1.465 4.849h-8.691c0 1.8.377 3.02 1.137 3.642.661.593 1.515.93 2.406.95a3.316 3.316 0 002.018-.638 3.276 3.276 0 001.212-1.724zm-.105-3.63a5.187 5.187 0 00-.328-1.78 3.1 3.1 0 00-1.046-1.329 2.903 2.903 0 00-1.765-.547 3.18 3.18 0 00-2.357.963 4.14 4.14 0 00-1.089 2.666l6.585.028zm5.399 7.182h-.893V50.556h1.869v6.163c.85-1.546 2.027-2.32 3.53-2.32a4.406 4.406 0 011.932.41c.604.28 1.136.695 1.555 1.21.93 1.081 1.395 2.649 1.395 4.703a7.14 7.14 0 01-1.395 4.46 4.253 4.253 0 01-1.556 1.341 4.287 4.287 0 01-2.009.46 4.13 4.13 0 01-2.213-.608 4.09 4.09 0 01-1.539-1.691l-.677 1.98zm.976-4.667a3.58 3.58 0 001.158 2.659c.576.515 1.317.81 2.092.831a2.7 2.7 0 002.295-1.226 5.71 5.71 0 00.879-3.365 6.714 6.714 0 00-.844-3.623 2.627 2.627 0 00-.984-.973 2.651 2.651 0 00-1.346-.342 2.941 2.941 0 00-2.092.934 3.935 3.935 0 00-1.123 2.424l-.035 2.68zm13.147 1.579l1.78-.36c.394 1.495 1.648 2.243 3.759 2.243a3.577 3.577 0 001.974-.52 1.655 1.655 0 00.809-1.46c0-.928-.698-1.524-2.093-1.773l-2.532-.478a4.701 4.701 0 01-2.364-1.108 2.88 2.88 0 01-.88-2.189 3.154 3.154 0 011.236-2.527 4.864 4.864 0 013.229-1.012c2.608 0 4.185 1.012 4.826 3.034l-1.715.367c-.465-1.242-1.474-1.86-3.028-1.856a3.41 3.41 0 00-1.869.464 1.466 1.466 0 00-.697 1.295c0 .88.62 1.427 1.862 1.655l2.337.43c2.448.436 3.668 1.62 3.668 3.531a3.141 3.141 0 01-1.395 2.653 5.921 5.921 0 01-3.633 1.011c-2.846.014-4.604-1.12-5.273-3.4zm20.228-.464l1.736.353a4.89 4.89 0 01-1.869 2.534 5.39 5.39 0 01-3.243.998 5.052 5.052 0 01-3.976-1.718 7.47 7.47 0 01-1.52-4.564 7.466 7.466 0 011.583-4.543 5.089 5.089 0 011.783-1.32 5.123 5.123 0 012.179-.439 4.808 4.808 0 012.075.385c.654.28 1.237.703 1.705 1.236.958 1.07 1.446 2.687 1.465 4.848h-8.691c0 1.8.377 3.02 1.137 3.642a3.73 3.73 0 002.406.95 3.317 3.317 0 002.018-.638 3.274 3.274 0 001.212-1.724zm-.133-3.63a5.019 5.019 0 00-.335-1.78 3.034 3.034 0 00-1.039-1.329 2.922 2.922 0 00-1.771-.547 3.177 3.177 0 00-2.323.963 4.137 4.137 0 00-1.088 2.666l6.556.028zm5.957 7.182h-1.876V54.746h1.639v2.77a5.89 5.89 0 011.743-2.528 3.185 3.185 0 011.786-.582c.247.003.494.02.739.049v1.766h-.383a3.292 3.292 0 00-2.56 1.143 4.553 4.553 0 00-1.088 2.984v6.316zm15.665-11.918l-4.185 11.918h-1.939l-4.282-11.918h2.092l3.334 9.695 3.306-9.695h1.674zm3.488-4.19v2.077h-2.002v-2.077h2.002zm-.042 4.155v11.953h-1.869V54.746l1.869-.035zm9.758 7.784l1.681.291a5.378 5.378 0 01-1.577 3.096 4.79 4.79 0 01-3.565 1.093 4.802 4.802 0 01-3.27-1.786 7.429 7.429 0 01-1.304-4.446 7.237 7.237 0 011.395-4.515 4.404 4.404 0 011.638-1.367 4.444 4.444 0 012.093-.44 4.276 4.276 0 013.146 1.17 5.174 5.174 0 011.465 3.005l-1.681.319c-.321-1.967-1.279-2.95-2.874-2.95a2.652 2.652 0 00-1.367.325 2.62 2.62 0 00-1.004.977 6.198 6.198 0 00-.83 3.38 6.478 6.478 0 00.823 3.552 2.625 2.625 0 002.322 1.267c1.507-.004 2.476-.995 2.909-2.97zm12.227.617l1.744.353a4.91 4.91 0 01-1.856 2.534 5.355 5.355 0 01-3.236.998 5.052 5.052 0 01-3.976-1.718 7.47 7.47 0 01-1.52-4.564 7.466 7.466 0 011.583-4.543 5.071 5.071 0 011.782-1.32 5.11 5.11 0 012.18-.439 4.82 4.82 0 013.78 1.62c.93 1.072 1.418 2.688 1.465 4.849h-8.719c0 1.8.384 3.02 1.144 3.642a3.718 3.718 0 002.406.95 3.302 3.302 0 002.016-.638 3.262 3.262 0 001.207-1.724zm-.098-3.63a5.36 5.36 0 00-.335-1.78 2.997 2.997 0 00-1.046-1.329 2.888 2.888 0 00-1.765-.547 3.195 3.195 0 00-2.357.963 4.139 4.139 0 00-1.081 2.666l6.584.028zm3.097 4.094l1.786-.36c.397 1.495 1.646 2.243 3.759 2.243a3.555 3.555 0 001.967-.52 1.632 1.632 0 00.809-1.46c0-.928-.697-1.524-2.058-1.773l-2.524-.478a4.702 4.702 0 01-2.365-1.108 2.872 2.872 0 01-.879-2.188 3.137 3.137 0 011.2-2.528 4.849 4.849 0 013.229-1.012c2.602 0 4.185 1.012 4.82 3.034l-1.709.367c-.465-1.242-1.474-1.86-3.027-1.856a3.407 3.407 0 00-1.869.464 1.46 1.46 0 00-.698 1.295c0 .88.621 1.427 1.87 1.655l2.336.43c2.448.436 3.669 1.62 3.669 3.531a3.13 3.13 0 01-1.395 2.653 5.926 5.926 0 01-3.634 1.011c-2.85.014-4.613-1.12-5.287-3.4z" fill="#8D96BD"/><path fill-rule="evenodd" clip-rule="evenodd" d="M122.284 29.267v-2.86a.688.688 0 01.446-.682.702.702 0 01.286-.045h12.925a.703.703 0 01.719.434.698.698 0 01.048.293v2.451c0 .416-.356.95-.977 1.801l-6.696 9.509a14.426 14.426 0 017.373 1.572 1.314 1.314 0 01.697 1.115v3.054a.69.69 0 01-.609.737.702.702 0 01-.346-.045 14.95 14.95 0 00-13.657 0c-.446.236-.921-.242-.921-.692v-2.902a3.44 3.44 0 01.482-1.967l7.756-11.046h-6.752a.7.7 0 01-.726-.432.691.691 0 01-.048-.295zM76.026 47.155H72.1a.742.742 0 01-.482-.214.732.732 0 01-.215-.478V26.455a.732.732 0 01.238-.5.742.742 0 01.522-.192h3.662a.735.735 0 01.698.692v2.618h.076c.956-2.535 2.79-3.712 5.176-3.712 2.385 0 4.003 1.177 5.098 3.712a5.777 5.777 0 011.78-2.429 5.856 5.856 0 015.775-.88 5.814 5.814 0 012.433 1.785c1.249 1.69.99 4.156.99 6.289v12.597a.738.738 0 01-.24.498.75.75 0 01-.52.195h-3.926a.75.75 0 01-.48-.216.738.738 0 01-.218-.477V35.812a25.793 25.793 0 00-.104-3.754c-.3-1.35-1.18-1.732-2.316-1.732a2.628 2.628 0 00-1.424.475 2.6 2.6 0 00-.927 1.174c-.404 1.01-.362 2.7-.362 3.837v10.623a.739.739 0 01-.24.498.75.75 0 01-.52.195h-3.927a.742.742 0 01-.483-.214.732.732 0 01-.215-.479V35.812c0-2.237.37-5.54-2.42-5.54s-2.72 3.206-2.72 5.54v10.623a.737.737 0 01-.49.676.751.751 0 01-.292.044zm70.154-21.842c5.789 0 8.921 4.972 8.921 11.302 0 6.108-3.488 10.963-8.921 10.963-5.678 0-8.775-4.98-8.775-11.178s3.132-11.087 8.775-11.087zm0 4.605c-2.874 0-3.055 3.92-3.055 6.364 0 2.445-.042 7.161 3.02 7.161s3.166-3.698 3.166-6.274a18.541 18.541 0 00-.578-5.312 2.43 2.43 0 00-.898-1.432 2.46 2.46 0 00-1.62-.507h-.035zm17.297 17.237h-3.912a.74.74 0 01-.698-.692V26.386a.735.735 0 01.753-.651h3.648a.733.733 0 01.698.56v3.062h.076c1.102-2.77 2.644-4.044 5.357-4.044a5.18 5.18 0 012.612.582 5.134 5.134 0 011.964 1.807c1.025 1.6 1.025 4.3 1.025 6.233v12.59a.738.738 0 01-.257.456.75.75 0 01-.496.174h-3.941a.749.749 0 01-.698-.63v-10.88c0-2.195.252-5.402-2.462-5.402a2.582 2.582 0 00-2.274 1.614 8.845 8.845 0 00-.627 3.795v10.783a.755.755 0 01-.768.72zm-51.049-9.571c0 1.524.035 2.77-.739 4.156a3.168 3.168 0 01-1.115 1.258 3.193 3.193 0 01-1.605.515c-1.507 0-2.393-1.136-2.393-2.833 0-3.324 3.007-3.927 5.852-3.927v.831zm3.962 9.509a.825.825 0 01-.928.09 9.59 9.59 0 01-2.253-2.604c-2.162 2.182-3.689 2.84-6.486 2.84-3.306 0-5.887-2.03-5.887-6.088a6.586 6.586 0 011.077-3.846 6.657 6.657 0 013.108-2.532c2.092-.935 5.113-1.101 7.393-1.385v-.464c0-.928.07-2.03-.481-2.833a2.626 2.626 0 00-2.204-1.011 3.008 3.008 0 00-2.023.58 2.972 2.972 0 00-1.137 1.76.838.838 0 01-.697.693l-3.815-.408a.694.694 0 01-.586-.817c.879-4.592 5.05-5.977 8.795-5.977 1.911 0 4.415.505 5.922 1.946 1.911 1.773 1.73 4.155 1.73 6.718v6.08c0 1.828.767 2.632 1.485 3.622a.718.718 0 01.216.516.725.725 0 01-.216.516c-.802.693-2.232 1.905-3.02 2.597l.007.007zm-55.067-9.509c0 1.524 0 2.77-.697 4.156-.255.51-.643.943-1.124 1.252a3.203 3.203 0 01-1.61.507c-1.507 0-2.386-1.136-2.386-2.833 0-3.324 3-3.926 5.845-3.926l-.028.844zm3.969 9.509a.84.84 0 01-.935.09 9.719 9.719 0 01-2.28-2.59c-2.156 2.181-3.683 2.84-6.48 2.84-3.313 0-5.887-2.03-5.887-6.088a6.586 6.586 0 011.077-3.846 6.66 6.66 0 013.108-2.532c2.134-.935 5.113-1.102 7.393-1.386v-.477c0-.928.077-2.03-.474-2.833a2.647 2.647 0 00-2.211-1.011 3.008 3.008 0 00-2.023.58 2.97 2.97 0 00-1.137 1.76.828.828 0 01-.697.693l-3.808-.408a.701.701 0 01-.583-.539.69.69 0 01-.003-.278c.872-4.592 5.05-5.977 8.788-5.977 1.918 0 4.415.505 5.922 1.946 1.918 1.773 1.73 4.155 1.73 6.718v6.08c0 1.828.767 2.632 1.485 3.622a.73.73 0 01.216.516.724.724 0 01-.216.516c-.802.693-2.232 1.905-3.013 2.597l.028.007z" fill="#8D96BD"/></svg>