<svg width="1754" height="1345" viewBox="0 0 1754 1345" fill="none" xmlns="http://www.w3.org/2000/svg"><path opacity=".1" fill-rule="evenodd" clip-rule="evenodd" d="M1755 1035.45V1H449s64.701 161.661 252.166 194.45c381.114 66.66 148.486 404.932 230.283 632.723C1093.21 1278.65 1755 1035.45 1755 1035.45z" fill="url(#paint0_linear)"/><path opacity=".08" fill-rule="evenodd" clip-rule="evenodd" d="M1755 1035.46V.932H530.771s64.702 161.674 252.165 194.465c381.114 66.666 148.488 404.965 230.284 632.775C1174.98 1278.69 1755 1035.46 1755 1035.46z" fill="url(#paint1_linear)"/><g opacity=".82"><g filter="url(#filter0_f)"><path d="M1579 877c0 .552-.45 1-1 1s-1-.448-1-1 .45-1 1-1 1 .448 1 1z" fill="#fff"/></g><g opacity=".72" filter="url(#filter1_f)"><path d="M1530 740c0 .552-.45 1-1 1s-1-.448-1-1 .45-1 1-1 1 .448 1 1z" fill="#fff"/></g><g filter="url(#filter2_f)"><path d="M1587 690c0 .552-.45 1-1 1s-1-.448-1-1 .45-1 1-1 1 .448 1 1z" fill="#fff"/></g><g opacity=".92" filter="url(#filter3_f)"><path d="M977 1208.5a1.5 1.5 0 11-2.999.001 1.5 1.5 0 012.999-.001z" fill="#fff"/></g><g filter="url(#filter4_f)"><path d="M677 1098.5a2.5 2.5 0 11-5 0 2.5 2.5 0 015 0z" fill="#fff"/></g><g opacity=".78" filter="url(#filter5_f)"><path d="M918 1025c0 .55-.448 1-1 1s-1-.45-1-1 .448-1 1-1 1 .45 1 1z" fill="#fff"/></g><g opacity=".78" filter="url(#filter6_f)"><path d="M575 847a1 1 0 11-2 0 1 1 0 012 0z" fill="#fff"/></g><g opacity=".65" filter="url(#filter7_f)"><path d="M872 848a1 1 0 11-2 0 1 1 0 012 0z" fill="#fff"/></g><g opacity=".42" filter="url(#filter8_f)"><path d="M990 818a1 1 0 11-2 0 1 1 0 012 0z" fill="#fff"/></g><g opacity=".68" filter="url(#filter9_f)"><path d="M758 689a1 1 0 11-2 0 1 1 0 012 0z" fill="#fff"/></g><g opacity=".33" filter="url(#filter10_f)"><path d="M1631 1160.5c0 .83-.67 1.5-1.5 1.5s-1.5-.67-1.5-1.5.67-1.5 1.5-1.5 1.5.67 1.5 1.5z" fill="#fff"/></g></g><defs><filter id="filter0_f" x="1576" y="875" width="4" height="4" filterUnits="userSpaceOnUse" color-interpolation-filters="sRGB"><feFlood flood-opacity="0" result="BackgroundImageFix"/><feBlend in="SourceGraphic" in2="BackgroundImageFix" result="shape"/><feGaussianBlur stdDeviation=".5" result="effect1_foregroundBlur"/></filter><filter id="filter1_f" x="1527" y="738" width="4" height="4" filterUnits="userSpaceOnUse" color-interpolation-filters="sRGB"><feFlood flood-opacity="0" result="BackgroundImageFix"/><feBlend in="SourceGraphic" in2="BackgroundImageFix" result="shape"/><feGaussianBlur stdDeviation=".5" result="effect1_foregroundBlur"/></filter><filter id="filter2_f" x="1584" y="688" width="4" height="4" filterUnits="userSpaceOnUse" color-interpolation-filters="sRGB"><feFlood flood-opacity="0" result="BackgroundImageFix"/><feBlend in="SourceGraphic" in2="BackgroundImageFix" result="shape"/><feGaussianBlur stdDeviation=".5" result="effect1_foregroundBlur"/></filter><filter id="filter3_f" x="973" y="1206" width="5" height="5" filterUnits="userSpaceOnUse" color-interpolation-filters="sRGB"><feFlood flood-opacity="0" result="BackgroundImageFix"/><feBlend in="SourceGraphic" in2="BackgroundImageFix" result="shape"/><feGaussianBlur stdDeviation=".5" result="effect1_foregroundBlur"/></filter><filter id="filter4_f" x="671" y="1095" width="7" height="7" filterUnits="userSpaceOnUse" color-interpolation-filters="sRGB"><feFlood flood-opacity="0" result="BackgroundImageFix"/><feBlend in="SourceGraphic" in2="BackgroundImageFix" result="shape"/><feGaussianBlur stdDeviation=".5" result="effect1_foregroundBlur"/></filter><filter id="filter5_f" x="915" y="1023" width="4" height="4" filterUnits="userSpaceOnUse" color-interpolation-filters="sRGB"><feFlood flood-opacity="0" result="BackgroundImageFix"/><feBlend in="SourceGraphic" in2="BackgroundImageFix" result="shape"/><feGaussianBlur stdDeviation=".5" result="effect1_foregroundBlur"/></filter><filter id="filter6_f" x="572" y="845" width="4" height="4" filterUnits="userSpaceOnUse" color-interpolation-filters="sRGB"><feFlood flood-opacity="0" result="BackgroundImageFix"/><feBlend in="SourceGraphic" in2="BackgroundImageFix" result="shape"/><feGaussianBlur stdDeviation=".5" result="effect1_foregroundBlur"/></filter><filter id="filter7_f" x="869" y="846" width="4" height="4" filterUnits="userSpaceOnUse" color-interpolation-filters="sRGB"><feFlood flood-opacity="0" result="BackgroundImageFix"/><feBlend in="SourceGraphic" in2="BackgroundImageFix" result="shape"/><feGaussianBlur stdDeviation=".5" result="effect1_foregroundBlur"/></filter><filter id="filter8_f" x="987" y="816" width="4" height="4" filterUnits="userSpaceOnUse" color-interpolation-filters="sRGB"><feFlood flood-opacity="0" result="BackgroundImageFix"/><feBlend in="SourceGraphic" in2="BackgroundImageFix" result="shape"/><feGaussianBlur stdDeviation=".5" result="effect1_foregroundBlur"/></filter><filter id="filter9_f" x="755" y="687" width="4" height="4" filterUnits="userSpaceOnUse" color-interpolation-filters="sRGB"><feFlood flood-opacity="0" result="BackgroundImageFix"/><feBlend in="SourceGraphic" in2="BackgroundImageFix" result="shape"/><feGaussianBlur stdDeviation=".5" result="effect1_foregroundBlur"/></filter><filter id="filter10_f" x="1627" y="1158" width="5" height="5" filterUnits="userSpaceOnUse" color-interpolation-filters="sRGB"><feFlood flood-opacity="0" result="BackgroundImageFix"/><feBlend in="SourceGraphic" in2="BackgroundImageFix" result="shape"/><feGaussianBlur stdDeviation=".5" result="effect1_foregroundBlur"/></filter><linearGradient id="paint0_linear" x1="930" y1="561.5" x2="1593.52" y2="903.308" gradientUnits="userSpaceOnUse"><stop offset=".008" stop-color="#fff"/><stop offset="1" stop-color="#3D57F4"/></linearGradient><linearGradient id="paint1_linear" x1="920" y1="30.5" x2="1476.67" y2="918.109" gradientUnits="userSpaceOnUse"><stop stop-color="#fff"/><stop offset=".98" stop-color="#3D57F4"/></linearGradient></defs></svg>