<svg width="1920" height="1627" viewBox="0 0 1920 1627" fill="none" xmlns="http://www.w3.org/2000/svg"><g filter="url(#filter0_d)"><path fill-rule="evenodd" clip-rule="evenodd" d="M0 .918h1921V1011.08H0V.918z" fill="#030207"/><path fill-rule="evenodd" clip-rule="evenodd" d="M0 1h1921v1010H0V1z" fill="url(#paint0_linear)" fill-opacity=".9"/><path opacity=".1" fill-rule="evenodd" clip-rule="evenodd" d="M1921 1035.45V1H615s64.701 161.661 252.166 194.45c381.114 66.66 148.484 404.932 230.284 632.723C1259.21 1278.65 1921 1035.45 1921 1035.45z" fill="url(#paint1_linear)"/><path opacity=".08" fill-rule="evenodd" clip-rule="evenodd" d="M1921 1035.46V.932H696.771s64.702 161.674 252.165 194.465c381.114 66.666 148.484 404.965 230.284 632.775C1340.98 1278.69 1921 1035.46 1921 1035.46z" fill="url(#paint2_linear)"/><g filter="url(#filter1_f)"><path d="M2469.26 1067.27c425.92 47.14-22.89 300.31-586.44 309.66-208.92 3.46-357.28-119.65-663.9-145.19C912.307 1206.2-197 1174.69-197 1067.27c0-52.57 263.924-196.042 590.012-231.048 340.178-36.518 743.118 36.548 743.118 36.548 736.26 0 749.3 129.89 1333.13 194.5z" fill="url(#paint3_linear)"/></g><g opacity=".82"><g filter="url(#filter2_f)"><path d="M1745 877c0 .552-.45 1-1 1s-1-.448-1-1 .45-1 1-1 1 .448 1 1z" fill="#fff"/></g><g opacity=".72" filter="url(#filter3_f)"><path d="M1696 740c0 .552-.45 1-1 1s-1-.448-1-1 .45-1 1-1 1 .448 1 1z" fill="#fff"/></g><g filter="url(#filter4_f)"><path d="M1753 690c0 .552-.45 1-1 1s-1-.448-1-1 .45-1 1-1 1 .448 1 1z" fill="#fff"/></g><g opacity=".92" filter="url(#filter5_f)"><path d="M1143 1208.5c0 .83-.67 1.5-1.5 1.5s-1.5-.67-1.5-1.5.67-1.5 1.5-1.5 1.5.67 1.5 1.5z" fill="#fff"/></g><g filter="url(#filter6_f)"><path d="M843 1098.5a2.5 2.5 0 11-5 0 2.5 2.5 0 015 0z" fill="#fff"/></g><g opacity=".78" filter="url(#filter7_f)"><path d="M1084 1025c0 .55-.45 1-1 1s-1-.45-1-1 .45-1 1-1 1 .45 1 1z" fill="#fff"/></g><g opacity=".78" filter="url(#filter8_f)"><path d="M741 847a1 1 0 11-2 0 1 1 0 012 0z" fill="#fff"/></g><g opacity=".65" filter="url(#filter9_f)"><path d="M1038 848c0 .552-.45 1-1 1s-1-.448-1-1 .45-1 1-1 1 .448 1 1z" fill="#fff"/></g><g opacity=".42" filter="url(#filter10_f)"><path d="M1156 818c0 .552-.45 1-1 1s-1-.448-1-1 .45-1 1-1 1 .448 1 1z" fill="#fff"/></g><g opacity=".68" filter="url(#filter11_f)"><path d="M924 689a1 1 0 11-2 0 1 1 0 012 0z" fill="#fff"/></g><g opacity=".33" filter="url(#filter12_f)"><path d="M1797 1160.5c0 .83-.67 1.5-1.5 1.5s-1.5-.67-1.5-1.5.67-1.5 1.5-1.5 1.5.67 1.5 1.5z" fill="#fff"/></g></g><g filter="url(#filter13_f)"><path d="M1480 381c0 .552-.45 1-1 1s-1-.448-1-1 .45-1 1-1 1 .448 1 1z" fill="#fff"/></g><g opacity=".91" filter="url(#filter14_f)"><path d="M1372 360c0 .552-.45 1-1 1s-1-.448-1-1 .45-1 1-1 1 .448 1 1z" fill="#fff"/></g><g filter="url(#filter15_f)"><path d="M1348 321c0 .552-.45 1-1 1s-1-.448-1-1 .45-1 1-1 1 .448 1 1z" fill="#fff"/></g><g filter="url(#filter16_f)"><path d="M1556 240c0 .552-.45 1-1 1s-1-.448-1-1 .45-1 1-1 1 .448 1 1z" fill="#fff"/></g><g filter="url(#filter17_f)"><path d="M1172 358c0 .552-.45 1-1 1s-1-.448-1-1 .45-1 1-1 1 .448 1 1z" fill="#fff"/></g><g opacity=".72" filter="url(#filter18_f)"><path d="M1123 221c0 .552-.45 1-1 1s-1-.448-1-1 .45-1 1-1 1 .448 1 1z" fill="#fff"/></g><g filter="url(#filter19_f)"><path d="M1180 171c0 .552-.45 1-1 1s-1-.448-1-1 .45-1 1-1 1 .448 1 1z" fill="#fff"/></g><g opacity=".9" filter="url(#filter20_f)"><path d="M1463 459c0 1.105-.9 2-2 2s-2-.895-2-2 .9-2 2-2 2 .895 2 2z" fill="#fff"/></g><g opacity=".9" filter="url(#filter21_f)"><path d="M1711 569.5a1.5 1.5 0 11-2.999.001 1.5 1.5 0 012.999-.001z" fill="#fff"/></g><g filter="url(#filter22_f)"><path d="M1436 693.5a2.5 2.5 0 11-5 0 2.5 2.5 0 015 0z" fill="#fff"/></g><g opacity=".92" filter="url(#filter23_f)"><path d="M570 689.5a1.5 1.5 0 11-3.001-.001 1.5 1.5 0 013.001.001z" fill="#fff"/></g><g filter="url(#filter24_f)"><path d="M270 579.5a2.5 2.5 0 11-5 0 2.5 2.5 0 015 0z" fill="#fff"/></g><g opacity=".78" filter="url(#filter25_f)"><path d="M511 506a1 1 0 11-2 0 1 1 0 012 0z" fill="#fff"/></g><g opacity=".78" filter="url(#filter26_f)"><path d="M168 328a1 1 0 11-2 0 1 1 0 012 0z" fill="#fff"/></g><g opacity=".65" filter="url(#filter27_f)"><path d="M465 329a1 1 0 11-2 0 1 1 0 012 0z" fill="#fff"/></g><g opacity=".42" filter="url(#filter28_f)"><path d="M583 299a1 1 0 11-2 0 1 1 0 012 0z" fill="#fff"/></g><g opacity=".68" filter="url(#filter29_f)"><path d="M351 170a1 1 0 11-2 0 1 1 0 012 0z" fill="#fff"/></g><g opacity=".68" filter="url(#filter30_f)"><path d="M361 221.5a1.5 1.5 0 11-3.001-.001 1.5 1.5 0 013.001.001z" fill="#fff"/></g><g opacity=".33" filter="url(#filter31_f)"><path d="M1224 641.5a1.5 1.5 0 11-2.999.001 1.5 1.5 0 012.999-.001z" fill="#fff"/></g></g><defs><filter id="filter0_d" x="-201" y=".918" width="2843" height="1384.08" filterUnits="userSpaceOnUse" color-interpolation-filters="sRGB"><feFlood flood-opacity="0" result="BackgroundImageFix"/><feColorMatrix in="SourceAlpha" values="0 0 0 0 0 0 0 0 0 0 0 0 0 0 0 0 0 0 127 0"/><feOffset dy="4"/><feGaussianBlur stdDeviation="2"/><feColorMatrix values="0 0 0 0 0 0 0 0 0 0 0 0 0 0 0 0 0 0 0.25 0"/><feBlend in2="BackgroundImageFix" result="effect1_dropShadow"/><feBlend in="SourceGraphic" in2="effect1_dropShadow" result="shape"/></filter><filter id="filter1_f" x="-447" y="576" width="3335" height="1051" filterUnits="userSpaceOnUse" color-interpolation-filters="sRGB"><feFlood flood-opacity="0" result="BackgroundImageFix"/><feBlend in="SourceGraphic" in2="BackgroundImageFix" result="shape"/><feGaussianBlur stdDeviation="125" result="effect1_foregroundBlur"/></filter><filter id="filter2_f" x="1742" y="875" width="4" height="4" filterUnits="userSpaceOnUse" color-interpolation-filters="sRGB"><feFlood flood-opacity="0" result="BackgroundImageFix"/><feBlend in="SourceGraphic" in2="BackgroundImageFix" result="shape"/><feGaussianBlur stdDeviation=".5" result="effect1_foregroundBlur"/></filter><filter id="filter3_f" x="1693" y="738" width="4" height="4" filterUnits="userSpaceOnUse" color-interpolation-filters="sRGB"><feFlood flood-opacity="0" result="BackgroundImageFix"/><feBlend in="SourceGraphic" in2="BackgroundImageFix" result="shape"/><feGaussianBlur stdDeviation=".5" result="effect1_foregroundBlur"/></filter><filter id="filter4_f" x="1750" y="688" width="4" height="4" filterUnits="userSpaceOnUse" color-interpolation-filters="sRGB"><feFlood flood-opacity="0" result="BackgroundImageFix"/><feBlend in="SourceGraphic" in2="BackgroundImageFix" result="shape"/><feGaussianBlur stdDeviation=".5" result="effect1_foregroundBlur"/></filter><filter id="filter5_f" x="1139" y="1206" width="5" height="5" filterUnits="userSpaceOnUse" color-interpolation-filters="sRGB"><feFlood flood-opacity="0" result="BackgroundImageFix"/><feBlend in="SourceGraphic" in2="BackgroundImageFix" result="shape"/><feGaussianBlur stdDeviation=".5" result="effect1_foregroundBlur"/></filter><filter id="filter6_f" x="837" y="1095" width="7" height="7" filterUnits="userSpaceOnUse" color-interpolation-filters="sRGB"><feFlood flood-opacity="0" result="BackgroundImageFix"/><feBlend in="SourceGraphic" in2="BackgroundImageFix" result="shape"/><feGaussianBlur stdDeviation=".5" result="effect1_foregroundBlur"/></filter><filter id="filter7_f" x="1081" y="1023" width="4" height="4" filterUnits="userSpaceOnUse" color-interpolation-filters="sRGB"><feFlood flood-opacity="0" result="BackgroundImageFix"/><feBlend in="SourceGraphic" in2="BackgroundImageFix" result="shape"/><feGaussianBlur stdDeviation=".5" result="effect1_foregroundBlur"/></filter><filter id="filter8_f" x="738" y="845" width="4" height="4" filterUnits="userSpaceOnUse" color-interpolation-filters="sRGB"><feFlood flood-opacity="0" result="BackgroundImageFix"/><feBlend in="SourceGraphic" in2="BackgroundImageFix" result="shape"/><feGaussianBlur stdDeviation=".5" result="effect1_foregroundBlur"/></filter><filter id="filter9_f" x="1035" y="846" width="4" height="4" filterUnits="userSpaceOnUse" color-interpolation-filters="sRGB"><feFlood flood-opacity="0" result="BackgroundImageFix"/><feBlend in="SourceGraphic" in2="BackgroundImageFix" result="shape"/><feGaussianBlur stdDeviation=".5" result="effect1_foregroundBlur"/></filter><filter id="filter10_f" x="1153" y="816" width="4" height="4" filterUnits="userSpaceOnUse" color-interpolation-filters="sRGB"><feFlood flood-opacity="0" result="BackgroundImageFix"/><feBlend in="SourceGraphic" in2="BackgroundImageFix" result="shape"/><feGaussianBlur stdDeviation=".5" result="effect1_foregroundBlur"/></filter><filter id="filter11_f" x="921" y="687" width="4" height="4" filterUnits="userSpaceOnUse" color-interpolation-filters="sRGB"><feFlood flood-opacity="0" result="BackgroundImageFix"/><feBlend in="SourceGraphic" in2="BackgroundImageFix" result="shape"/><feGaussianBlur stdDeviation=".5" result="effect1_foregroundBlur"/></filter><filter id="filter12_f" x="1793" y="1158" width="5" height="5" filterUnits="userSpaceOnUse" color-interpolation-filters="sRGB"><feFlood flood-opacity="0" result="BackgroundImageFix"/><feBlend in="SourceGraphic" in2="BackgroundImageFix" result="shape"/><feGaussianBlur stdDeviation=".5" result="effect1_foregroundBlur"/></filter><filter id="filter13_f" x="1477" y="379" width="4" height="4" filterUnits="userSpaceOnUse" color-interpolation-filters="sRGB"><feFlood flood-opacity="0" result="BackgroundImageFix"/><feBlend in="SourceGraphic" in2="BackgroundImageFix" result="shape"/><feGaussianBlur stdDeviation=".5" result="effect1_foregroundBlur"/></filter><filter id="filter14_f" x="1369" y="358" width="4" height="4" filterUnits="userSpaceOnUse" color-interpolation-filters="sRGB"><feFlood flood-opacity="0" result="BackgroundImageFix"/><feBlend in="SourceGraphic" in2="BackgroundImageFix" result="shape"/><feGaussianBlur stdDeviation=".5" result="effect1_foregroundBlur"/></filter><filter id="filter15_f" x="1345" y="319" width="4" height="4" filterUnits="userSpaceOnUse" color-interpolation-filters="sRGB"><feFlood flood-opacity="0" result="BackgroundImageFix"/><feBlend in="SourceGraphic" in2="BackgroundImageFix" result="shape"/><feGaussianBlur stdDeviation=".5" result="effect1_foregroundBlur"/></filter><filter id="filter16_f" x="1553" y="238" width="4" height="4" filterUnits="userSpaceOnUse" color-interpolation-filters="sRGB"><feFlood flood-opacity="0" result="BackgroundImageFix"/><feBlend in="SourceGraphic" in2="BackgroundImageFix" result="shape"/><feGaussianBlur stdDeviation=".5" result="effect1_foregroundBlur"/></filter><filter id="filter17_f" x="1169" y="356" width="4" height="4" filterUnits="userSpaceOnUse" color-interpolation-filters="sRGB"><feFlood flood-opacity="0" result="BackgroundImageFix"/><feBlend in="SourceGraphic" in2="BackgroundImageFix" result="shape"/><feGaussianBlur stdDeviation=".5" result="effect1_foregroundBlur"/></filter><filter id="filter18_f" x="1120" y="219" width="4" height="4" filterUnits="userSpaceOnUse" color-interpolation-filters="sRGB"><feFlood flood-opacity="0" result="BackgroundImageFix"/><feBlend in="SourceGraphic" in2="BackgroundImageFix" result="shape"/><feGaussianBlur stdDeviation=".5" result="effect1_foregroundBlur"/></filter><filter id="filter19_f" x="1177" y="169" width="4" height="4" filterUnits="userSpaceOnUse" color-interpolation-filters="sRGB"><feFlood flood-opacity="0" result="BackgroundImageFix"/><feBlend in="SourceGraphic" in2="BackgroundImageFix" result="shape"/><feGaussianBlur stdDeviation=".5" result="effect1_foregroundBlur"/></filter><filter id="filter20_f" x="1458" y="456" width="6" height="6" filterUnits="userSpaceOnUse" color-interpolation-filters="sRGB"><feFlood flood-opacity="0" result="BackgroundImageFix"/><feBlend in="SourceGraphic" in2="BackgroundImageFix" result="shape"/><feGaussianBlur stdDeviation=".5" result="effect1_foregroundBlur"/></filter><filter id="filter21_f" x="1707" y="567" width="5" height="5" filterUnits="userSpaceOnUse" color-interpolation-filters="sRGB"><feFlood flood-opacity="0" result="BackgroundImageFix"/><feBlend in="SourceGraphic" in2="BackgroundImageFix" result="shape"/><feGaussianBlur stdDeviation=".5" result="effect1_foregroundBlur"/></filter><filter id="filter22_f" x="1430" y="690" width="7" height="7" filterUnits="userSpaceOnUse" color-interpolation-filters="sRGB"><feFlood flood-opacity="0" result="BackgroundImageFix"/><feBlend in="SourceGraphic" in2="BackgroundImageFix" result="shape"/><feGaussianBlur stdDeviation=".5" result="effect1_foregroundBlur"/></filter><filter id="filter23_f" x="566" y="687" width="5" height="5" filterUnits="userSpaceOnUse" color-interpolation-filters="sRGB"><feFlood flood-opacity="0" result="BackgroundImageFix"/><feBlend in="SourceGraphic" in2="BackgroundImageFix" result="shape"/><feGaussianBlur stdDeviation=".5" result="effect1_foregroundBlur"/></filter><filter id="filter24_f" x="264" y="576" width="7" height="7" filterUnits="userSpaceOnUse" color-interpolation-filters="sRGB"><feFlood flood-opacity="0" result="BackgroundImageFix"/><feBlend in="SourceGraphic" in2="BackgroundImageFix" result="shape"/><feGaussianBlur stdDeviation=".5" result="effect1_foregroundBlur"/></filter><filter id="filter25_f" x="508" y="504" width="4" height="4" filterUnits="userSpaceOnUse" color-interpolation-filters="sRGB"><feFlood flood-opacity="0" result="BackgroundImageFix"/><feBlend in="SourceGraphic" in2="BackgroundImageFix" result="shape"/><feGaussianBlur stdDeviation=".5" result="effect1_foregroundBlur"/></filter><filter id="filter26_f" x="165" y="326" width="4" height="4" filterUnits="userSpaceOnUse" color-interpolation-filters="sRGB"><feFlood flood-opacity="0" result="BackgroundImageFix"/><feBlend in="SourceGraphic" in2="BackgroundImageFix" result="shape"/><feGaussianBlur stdDeviation=".5" result="effect1_foregroundBlur"/></filter><filter id="filter27_f" x="462" y="327" width="4" height="4" filterUnits="userSpaceOnUse" color-interpolation-filters="sRGB"><feFlood flood-opacity="0" result="BackgroundImageFix"/><feBlend in="SourceGraphic" in2="BackgroundImageFix" result="shape"/><feGaussianBlur stdDeviation=".5" result="effect1_foregroundBlur"/></filter><filter id="filter28_f" x="580" y="297" width="4" height="4" filterUnits="userSpaceOnUse" color-interpolation-filters="sRGB"><feFlood flood-opacity="0" result="BackgroundImageFix"/><feBlend in="SourceGraphic" in2="BackgroundImageFix" result="shape"/><feGaussianBlur stdDeviation=".5" result="effect1_foregroundBlur"/></filter><filter id="filter29_f" x="348" y="168" width="4" height="4" filterUnits="userSpaceOnUse" color-interpolation-filters="sRGB"><feFlood flood-opacity="0" result="BackgroundImageFix"/><feBlend in="SourceGraphic" in2="BackgroundImageFix" result="shape"/><feGaussianBlur stdDeviation=".5" result="effect1_foregroundBlur"/></filter><filter id="filter30_f" x="357" y="219" width="5" height="5" filterUnits="userSpaceOnUse" color-interpolation-filters="sRGB"><feFlood flood-opacity="0" result="BackgroundImageFix"/><feBlend in="SourceGraphic" in2="BackgroundImageFix" result="shape"/><feGaussianBlur stdDeviation=".5" result="effect1_foregroundBlur"/></filter><filter id="filter31_f" x="1220" y="639" width="5" height="5" filterUnits="userSpaceOnUse" color-interpolation-filters="sRGB"><feFlood flood-opacity="0" result="BackgroundImageFix"/><feBlend in="SourceGraphic" in2="BackgroundImageFix" result="shape"/><feGaussianBlur stdDeviation=".5" result="effect1_foregroundBlur"/></filter><linearGradient id="paint0_linear" x1="-137.071" y1="1099.61" x2="1284.8" y2="63.315" gradientUnits="userSpaceOnUse"><stop offset=".02" stop-color="#0024FF" stop-opacity=".31"/><stop offset=".68" stop-color="#0F1132" stop-opacity="0"/><stop offset="1" stop-color="#0F1132" stop-opacity="0"/></linearGradient><linearGradient id="paint1_linear" x1="1096" y1="561.5" x2="1759.52" y2="903.308" gradientUnits="userSpaceOnUse"><stop offset=".008" stop-color="#0024FF"/><stop offset="1"/></linearGradient><linearGradient id="paint2_linear" x1="1086" y1="30.5" x2="1642.67" y2="918.109" gradientUnits="userSpaceOnUse"><stop stop-color="#0024FF"/><stop offset=".98"/></linearGradient><linearGradient id="paint3_linear" x1="1214.17" y1="872.77" x2="1214.17" y2="1187.18" gradientUnits="userSpaceOnUse"><stop/><stop offset="1"/></linearGradient></defs></svg>