<svg width="1920" height="1479" viewBox="0 0 1920 1479" fill="none" xmlns="http://www.w3.org/2000/svg"><path fill-rule="evenodd" clip-rule="evenodd" d="M0 0h1920v1352.95s-211.5 244.38-631 52.59c-419.5-191.78-594-71.18-880.5-20.08-286.5 51.1-299.171-37.88-408.5-32.51V0z" fill="url(#paint0_linear)"/><g filter="url(#filter0_f)"><path d="M562 459a1 1 0 102 0 1 1 0 00-2 0z" fill="#fff"/></g><g filter="url(#filter1_f)"><path d="M354 378a1 1 0 102 0 1 1 0 00-2 0z" fill="#fff"/></g><g opacity=".92" filter="url(#filter2_f)"><path d="M1848 939.5a1.5 1.5 0 102.999.001 1.5 1.5 0 00-2.999-.001z" fill="#fff"/></g><g filter="url(#filter3_f)"><path d="M1640 717.5a2.5 2.5 0 105 0 2.5 2.5 0 00-5 0z" fill="#fff"/></g><g opacity=".78" filter="url(#filter4_f)"><path d="M1399 644c0 .552.45 1 1 1s1-.448 1-1-.45-1-1-1-1 .448-1 1z" fill="#fff"/></g><g opacity=".78" filter="url(#filter5_f)"><path d="M1742 466c0 .552.45 1 1 1s1-.448 1-1-.45-1-1-1-1 .448-1 1z" fill="#fff"/></g><g opacity=".65" filter="url(#filter6_f)"><path d="M1445 467c0 .552.45 1 1 1s1-.448 1-1-.45-1-1-1-1 .448-1 1z" fill="#fff"/></g><g opacity=".42" filter="url(#filter7_f)"><path d="M1327 437c0 .552.45 1 1 1s1-.448 1-1-.45-1-1-1-1 .448-1 1z" fill="#fff"/></g><g opacity=".68" filter="url(#filter8_f)"><path d="M1559 308c0 .552.45 1 1 1s1-.448 1-1-.45-1-1-1-1 .448-1 1z" fill="#fff"/></g><defs><filter id="filter0_f" x="561" y="457" width="4" height="4" filterUnits="userSpaceOnUse" color-interpolation-filters="sRGB"><feFlood flood-opacity="0" result="BackgroundImageFix"/><feBlend in="SourceGraphic" in2="BackgroundImageFix" result="shape"/><feGaussianBlur stdDeviation=".5" result="effect1_foregroundBlur"/></filter><filter id="filter1_f" x="353" y="376" width="4" height="4" filterUnits="userSpaceOnUse" color-interpolation-filters="sRGB"><feFlood flood-opacity="0" result="BackgroundImageFix"/><feBlend in="SourceGraphic" in2="BackgroundImageFix" result="shape"/><feGaussianBlur stdDeviation=".5" result="effect1_foregroundBlur"/></filter><filter id="filter2_f" x="1847" y="937" width="5" height="5" filterUnits="userSpaceOnUse" color-interpolation-filters="sRGB"><feFlood flood-opacity="0" result="BackgroundImageFix"/><feBlend in="SourceGraphic" in2="BackgroundImageFix" result="shape"/><feGaussianBlur stdDeviation=".5" result="effect1_foregroundBlur"/></filter><filter id="filter3_f" x="1639" y="714" width="7" height="7" filterUnits="userSpaceOnUse" color-interpolation-filters="sRGB"><feFlood flood-opacity="0" result="BackgroundImageFix"/><feBlend in="SourceGraphic" in2="BackgroundImageFix" result="shape"/><feGaussianBlur stdDeviation=".5" result="effect1_foregroundBlur"/></filter><filter id="filter4_f" x="1398" y="642" width="4" height="4" filterUnits="userSpaceOnUse" color-interpolation-filters="sRGB"><feFlood flood-opacity="0" result="BackgroundImageFix"/><feBlend in="SourceGraphic" in2="BackgroundImageFix" result="shape"/><feGaussianBlur stdDeviation=".5" result="effect1_foregroundBlur"/></filter><filter id="filter5_f" x="1741" y="464" width="4" height="4" filterUnits="userSpaceOnUse" color-interpolation-filters="sRGB"><feFlood flood-opacity="0" result="BackgroundImageFix"/><feBlend in="SourceGraphic" in2="BackgroundImageFix" result="shape"/><feGaussianBlur stdDeviation=".5" result="effect1_foregroundBlur"/></filter><filter id="filter6_f" x="1444" y="465" width="4" height="4" filterUnits="userSpaceOnUse" color-interpolation-filters="sRGB"><feFlood flood-opacity="0" result="BackgroundImageFix"/><feBlend in="SourceGraphic" in2="BackgroundImageFix" result="shape"/><feGaussianBlur stdDeviation=".5" result="effect1_foregroundBlur"/></filter><filter id="filter7_f" x="1326" y="435" width="4" height="4" filterUnits="userSpaceOnUse" color-interpolation-filters="sRGB"><feFlood flood-opacity="0" result="BackgroundImageFix"/><feBlend in="SourceGraphic" in2="BackgroundImageFix" result="shape"/><feGaussianBlur stdDeviation=".5" result="effect1_foregroundBlur"/></filter><filter id="filter8_f" x="1558" y="306" width="4" height="4" filterUnits="userSpaceOnUse" color-interpolation-filters="sRGB"><feFlood flood-opacity="0" result="BackgroundImageFix"/><feBlend in="SourceGraphic" in2="BackgroundImageFix" result="shape"/><feGaussianBlur stdDeviation=".5" result="effect1_foregroundBlur"/></filter><linearGradient id="paint0_linear" x1="1343" y1="403" x2="960" y2="1479" gradientUnits="userSpaceOnUse"><stop stop-color="#00010D"/><stop offset="1" stop-color="#03061C"/></linearGradient></defs></svg>