<svg width="1920" height="1764" viewBox="0 0 1920 1764" fill="none" xmlns="http://www.w3.org/2000/svg"><g opacity=".43" filter="url(#filter0_f)"><path d="M2011.75 613.13c206.65 120.633-216.52 294.198-444.89 193.875C1338.49 706.683 1068 813.682 1068 613.13 1068 412.579 1539.87 250 1539.87 250c260.61 0 265.23 242.497 471.88 363.13z" fill="#030207"/></g><g opacity=".43" filter="url(#filter1_f)"><path d="M691.749 1290.13c206.651 120.63-216.522 294.2-444.891 193.88C18.488 1383.68-252 1490.68-252 1290.13-252 1089.58 219.875 927 219.875 927c260.609 0 265.224 242.5 471.874 363.13z" fill="#030207"/></g><g filter="url(#filter2_f)"><path d="M1499.56 459.006c0 .552-.44 1-1 1a1.001 1.001 0 111-1z" fill="#fff"/></g><g opacity=".91" filter="url(#filter3_f)"><path d="M1391.45 438.006c0 .552-.45 1-1 1s-1-.448-1-1a1.001 1.001 0 012 0z" fill="#fff"/></g><g filter="url(#filter4_f)"><path d="M1367.43 399.005a1.001 1.001 0 11-2.002-.002 1.001 1.001 0 012.002.002z" fill="#fff"/></g><g filter="url(#filter5_f)"><path d="M1575.64 318.005a1.001 1.001 0 11-1.998-.002 1.001 1.001 0 011.998.002z" fill="#fff"/></g><g filter="url(#filter6_f)"><path d="M1191.24 436.006c0 .552-.44 1-1 1a1.001 1.001 0 111-1z" fill="#fff"/></g><g opacity=".72" filter="url(#filter7_f)"><path d="M1142.2 299.005c0 .553-.45 1-1.01 1a1.001 1.001 0 010-2c.56 0 1.01.448 1.01 1z" fill="#fff"/></g><g filter="url(#filter8_f)"><path d="M1199.25 249.005a1.001 1.001 0 11-1.998-.002 1.001 1.001 0 011.998.002z" fill="#fff"/></g><g opacity=".9" filter="url(#filter9_f)"><path d="M1482.55 537.006a2.005 2.005 0 01-4.01 0 2.005 2.005 0 014.01 0z" fill="#fff"/></g><g opacity=".9" filter="url(#filter10_f)"><path d="M1730.8 647.506a1.5 1.5 0 11-2.999.001 1.5 1.5 0 012.999-.001z" fill="#fff"/></g><g filter="url(#filter11_f)"><path d="M1455.52 771.506a2.5 2.5 0 01-2.5 2.5c-1.39 0-2.51-1.12-2.51-2.5 0-1.381 1.12-2.5 2.51-2.5a2.5 2.5 0 012.5 2.5z" fill="#fff"/></g><g opacity=".92" filter="url(#filter12_f)"><path d="M588.621 767.506a1.501 1.501 0 11-3.002-.002 1.501 1.501 0 013.002.002z" fill="#fff"/></g><g filter="url(#filter13_f)"><path d="M288.31 657.506c0 1.38-1.12 2.5-2.502 2.5a2.5 2.5 0 110-5 2.5 2.5 0 012.502 2.5z" fill="#fff"/></g><g opacity=".78" filter="url(#filter14_f)"><path d="M529.56 584.006a1 1 0 11-2.001-.001 1 1 0 012.001.001z" fill="#fff"/></g><g opacity=".78" filter="url(#filter15_f)"><path d="M186.204 406.005a1 1 0 11-2 0 1 1 0 012 0z" fill="#fff"/></g><g opacity=".65" filter="url(#filter16_f)"><path d="M483.511 407.006a1 1 0 11-2.001-.001 1 1 0 012.001.001z" fill="#fff"/></g><g opacity=".42" filter="url(#filter17_f)"><path d="M601.634 377.005a1 1 0 11-2 0 1 1 0 012 0z" fill="#fff"/></g><g opacity=".68" filter="url(#filter18_f)"><path d="M369.395 248.005a1 1 0 11-2.001-.001 1 1 0 012.001.001z" fill="#fff"/></g><g opacity=".68" filter="url(#filter19_f)"><path d="M379.404 299.505a1.5 1.5 0 01-1.501 1.5 1.5 1.5 0 111.501-1.5z" fill="#fff"/></g><g opacity=".33" filter="url(#filter20_f)"><path d="M1243.3 719.506a1.5 1.5 0 11-2.999.001 1.5 1.5 0 012.999-.001z" fill="#fff"/></g><defs><filter id="filter0_f" x="818" y="0" width="1499" height="1087" filterUnits="userSpaceOnUse" color-interpolation-filters="sRGB"><feFlood flood-opacity="0" result="BackgroundImageFix"/><feBlend in="SourceGraphic" in2="BackgroundImageFix" result="shape"/><feGaussianBlur stdDeviation="125" result="effect1_foregroundBlur"/></filter><filter id="filter1_f" x="-502" y="677" width="1499" height="1087" filterUnits="userSpaceOnUse" color-interpolation-filters="sRGB"><feFlood flood-opacity="0" result="BackgroundImageFix"/><feBlend in="SourceGraphic" in2="BackgroundImageFix" result="shape"/><feGaussianBlur stdDeviation="125" result="effect1_foregroundBlur"/></filter><filter id="filter2_f" x="1496.56" y="457.006" width="4.002" height="4" filterUnits="userSpaceOnUse" color-interpolation-filters="sRGB"><feFlood flood-opacity="0" result="BackgroundImageFix"/><feBlend in="SourceGraphic" in2="BackgroundImageFix" result="shape"/><feGaussianBlur stdDeviation=".5" result="effect1_foregroundBlur"/></filter><filter id="filter3_f" x="1388.45" y="436.006" width="4.002" height="4" filterUnits="userSpaceOnUse" color-interpolation-filters="sRGB"><feFlood flood-opacity="0" result="BackgroundImageFix"/><feBlend in="SourceGraphic" in2="BackgroundImageFix" result="shape"/><feGaussianBlur stdDeviation=".5" result="effect1_foregroundBlur"/></filter><filter id="filter4_f" x="1364.43" y="397.005" width="4.002" height="4" filterUnits="userSpaceOnUse" color-interpolation-filters="sRGB"><feFlood flood-opacity="0" result="BackgroundImageFix"/><feBlend in="SourceGraphic" in2="BackgroundImageFix" result="shape"/><feGaussianBlur stdDeviation=".5" result="effect1_foregroundBlur"/></filter><filter id="filter5_f" x="1572.64" y="316.005" width="4.002" height="4" filterUnits="userSpaceOnUse" color-interpolation-filters="sRGB"><feFlood flood-opacity="0" result="BackgroundImageFix"/><feBlend in="SourceGraphic" in2="BackgroundImageFix" result="shape"/><feGaussianBlur stdDeviation=".5" result="effect1_foregroundBlur"/></filter><filter id="filter6_f" x="1188.24" y="434.006" width="4.002" height="4" filterUnits="userSpaceOnUse" color-interpolation-filters="sRGB"><feFlood flood-opacity="0" result="BackgroundImageFix"/><feBlend in="SourceGraphic" in2="BackgroundImageFix" result="shape"/><feGaussianBlur stdDeviation=".5" result="effect1_foregroundBlur"/></filter><filter id="filter7_f" x="1139.19" y="297.005" width="4.002" height="4" filterUnits="userSpaceOnUse" color-interpolation-filters="sRGB"><feFlood flood-opacity="0" result="BackgroundImageFix"/><feBlend in="SourceGraphic" in2="BackgroundImageFix" result="shape"/><feGaussianBlur stdDeviation=".5" result="effect1_foregroundBlur"/></filter><filter id="filter8_f" x="1196.25" y="247.005" width="4.002" height="4" filterUnits="userSpaceOnUse" color-interpolation-filters="sRGB"><feFlood flood-opacity="0" result="BackgroundImageFix"/><feBlend in="SourceGraphic" in2="BackgroundImageFix" result="shape"/><feGaussianBlur stdDeviation=".5" result="effect1_foregroundBlur"/></filter><filter id="filter9_f" x="1477.54" y="534.006" width="6.004" height="6" filterUnits="userSpaceOnUse" color-interpolation-filters="sRGB"><feFlood flood-opacity="0" result="BackgroundImageFix"/><feBlend in="SourceGraphic" in2="BackgroundImageFix" result="shape"/><feGaussianBlur stdDeviation=".5" result="effect1_foregroundBlur"/></filter><filter id="filter10_f" x="1726.8" y="645.006" width="5.003" height="5" filterUnits="userSpaceOnUse" color-interpolation-filters="sRGB"><feFlood flood-opacity="0" result="BackgroundImageFix"/><feBlend in="SourceGraphic" in2="BackgroundImageFix" result="shape"/><feGaussianBlur stdDeviation=".5" result="effect1_foregroundBlur"/></filter><filter id="filter11_f" x="1449.51" y="768.006" width="7.005" height="7" filterUnits="userSpaceOnUse" color-interpolation-filters="sRGB"><feFlood flood-opacity="0" result="BackgroundImageFix"/><feBlend in="SourceGraphic" in2="BackgroundImageFix" result="shape"/><feGaussianBlur stdDeviation=".5" result="effect1_foregroundBlur"/></filter><filter id="filter12_f" x="584.618" y="765.006" width="5.003" height="5" filterUnits="userSpaceOnUse" color-interpolation-filters="sRGB"><feFlood flood-opacity="0" result="BackgroundImageFix"/><feBlend in="SourceGraphic" in2="BackgroundImageFix" result="shape"/><feGaussianBlur stdDeviation=".5" result="effect1_foregroundBlur"/></filter><filter id="filter13_f" x="282.305" y="654.006" width="7.005" height="7" filterUnits="userSpaceOnUse" color-interpolation-filters="sRGB"><feFlood flood-opacity="0" result="BackgroundImageFix"/><feBlend in="SourceGraphic" in2="BackgroundImageFix" result="shape"/><feGaussianBlur stdDeviation=".5" result="effect1_foregroundBlur"/></filter><filter id="filter14_f" x="526.558" y="582.006" width="4.002" height="4" filterUnits="userSpaceOnUse" color-interpolation-filters="sRGB"><feFlood flood-opacity="0" result="BackgroundImageFix"/><feBlend in="SourceGraphic" in2="BackgroundImageFix" result="shape"/><feGaussianBlur stdDeviation=".5" result="effect1_foregroundBlur"/></filter><filter id="filter15_f" x="183.202" y="404.005" width="4.002" height="4" filterUnits="userSpaceOnUse" color-interpolation-filters="sRGB"><feFlood flood-opacity="0" result="BackgroundImageFix"/><feBlend in="SourceGraphic" in2="BackgroundImageFix" result="shape"/><feGaussianBlur stdDeviation=".5" result="effect1_foregroundBlur"/></filter><filter id="filter16_f" x="480.509" y="405.006" width="4.002" height="4" filterUnits="userSpaceOnUse" color-interpolation-filters="sRGB"><feFlood flood-opacity="0" result="BackgroundImageFix"/><feBlend in="SourceGraphic" in2="BackgroundImageFix" result="shape"/><feGaussianBlur stdDeviation=".5" result="effect1_foregroundBlur"/></filter><filter id="filter17_f" x="598.632" y="375.005" width="4.002" height="4" filterUnits="userSpaceOnUse" color-interpolation-filters="sRGB"><feFlood flood-opacity="0" result="BackgroundImageFix"/><feBlend in="SourceGraphic" in2="BackgroundImageFix" result="shape"/><feGaussianBlur stdDeviation=".5" result="effect1_foregroundBlur"/></filter><filter id="filter18_f" x="366.393" y="246.005" width="4.002" height="4" filterUnits="userSpaceOnUse" color-interpolation-filters="sRGB"><feFlood flood-opacity="0" result="BackgroundImageFix"/><feBlend in="SourceGraphic" in2="BackgroundImageFix" result="shape"/><feGaussianBlur stdDeviation=".5" result="effect1_foregroundBlur"/></filter><filter id="filter19_f" x="375.401" y="297.005" width="5.003" height="5" filterUnits="userSpaceOnUse" color-interpolation-filters="sRGB"><feFlood flood-opacity="0" result="BackgroundImageFix"/><feBlend in="SourceGraphic" in2="BackgroundImageFix" result="shape"/><feGaussianBlur stdDeviation=".5" result="effect1_foregroundBlur"/></filter><filter id="filter20_f" x="1239.3" y="717.006" width="5.003" height="5" filterUnits="userSpaceOnUse" color-interpolation-filters="sRGB"><feFlood flood-opacity="0" result="BackgroundImageFix"/><feBlend in="SourceGraphic" in2="BackgroundImageFix" result="shape"/><feGaussianBlur stdDeviation=".5" result="effect1_foregroundBlur"/></filter></defs></svg>