<svg width="267" height="61" viewBox="0 0 267 61" fill="none" xmlns="http://www.w3.org/2000/svg"><path d="M15.277 12.859l6.945-4.17 6.944 4.17L44.443.349v47.259l-22.221 12.51L0 47.608V.349l15.277 12.51zm-11.11 15.29v16.679l18.055 11.12 18.055-11.12v-16.68l-18.055 11.12-18.055-11.12zm0-5.56l18.055 11.12 18.055-11.12-18.055-9.73-18.055 9.73zm29.165-8.34l6.945 4.17v-9.73c-2.315 1.88-4.63 3.76-6.945 5.56zm-29.165 4.17l6.944-4.17-6.944-5.56v9.73zm55.601 2.862h5.292c1.534 0 2.745.38 3.63 1.142.902.745 1.353 1.765 1.353 3.06 0 1.474-.625 2.607-1.875 3.401 1.661.68 2.492 1.878 2.492 3.595 0 .972-.237 1.838-.712 2.6-.474.744-1.139 1.327-1.993 1.748-.839.421-1.788.632-2.848.632h-5.339V21.28zm4.485 6.583c.791 0 1.4-.187 1.827-.559.443-.372.665-.89.665-1.555 0-1.198-.728-1.797-2.183-1.797h-1.495v3.91h1.186zm.332 6.898c.855 0 1.519-.202 1.994-.607.49-.405.735-.947.735-1.627 0-.616-.205-1.093-.617-1.434-.411-.34-1.004-.51-1.78-.51h-1.85v4.178h1.518zM77.11 21.281h3.44v13.117h5.695v3.06h-9.136V21.282zm21.887 16.493c-1.55 0-2.918-.348-4.105-1.044-1.186-.696-2.112-1.676-2.776-2.94-.649-1.262-.973-2.712-.973-4.347 0-1.652.324-3.11.973-4.373.648-1.263 1.566-2.242 2.752-2.939 1.187-.696 2.563-1.044 4.13-1.044 1.549 0 2.918.348 4.104 1.044 1.187.68 2.104 1.644 2.753 2.89.648 1.248.973 2.689.973 4.325 0 1.668-.325 3.141-.973 4.42-.649 1.264-1.566 2.251-2.753 2.964-1.186.696-2.555 1.044-4.105 1.044zm0-3.084c1.297 0 2.334-.478 3.109-1.434.791-.955 1.186-2.226 1.186-3.813 0-1.037-.182-1.952-.546-2.745-.348-.81-.854-1.425-1.518-1.846-.649-.438-1.392-.656-2.23-.656-.84 0-1.59.218-2.255.656-.649.42-1.155 1.036-1.519 1.846-.348.793-.522 1.708-.522 2.745 0 1.036.174 1.951.522 2.744.364.794.87 1.41 1.519 1.847.648.437 1.4.656 2.254.656zm22.004 3.084c-2.531 0-4.508-.696-5.932-2.089-1.424-1.392-2.135-3.36-2.135-5.902 0-1.733.332-3.263.996-4.591.68-1.328 1.637-2.348 2.871-3.06 1.234-.73 2.658-1.094 4.271-1.094 1.313 0 2.579.243 3.797.729l-.641 3.133c-1.075-.502-2.119-.753-3.132-.753-1.439 0-2.578.486-3.417 1.458-.838.955-1.257 2.235-1.257 3.838 0 1.635.443 2.906 1.328 3.813.886.907 2.112 1.36 3.678 1.36a8.93 8.93 0 002.99-.51l.522 2.988c-1.155.454-2.468.68-3.939.68zm10.541-16.493h3.441v6.267l5.149-6.267h4.105l-6.502 7.676 6.17 8.502h-4.177l-4.745-6.535v6.535h-3.441V21.28zm20.921 16.202c-1.123 0-1.961-.008-2.515-.024V21.28c.68-.016 1.685-.024 3.014-.024 1.344 0 2.349.008 3.013.024 1.55.016 2.895.34 4.034.972a6.33 6.33 0 012.658 2.647c.632 1.15.949 2.494.949 4.033 0 1.684-.364 3.166-1.092 4.445a7.483 7.483 0 01-3.037 2.987c-1.297.713-2.808 1.077-4.532 1.094a93.18 93.18 0 01-2.492.024zm2.468-3.085c1.598 0 2.855-.478 3.773-1.433.918-.956 1.376-2.267 1.376-3.935 0-1.506-.395-2.664-1.186-3.474-.775-.81-1.898-1.214-3.37-1.214h-2.135v10.056h1.542zm19.063-13.117h4.129l5.861 16.178h-3.559l-1.281-3.693h-6.217l-1.211 3.693h-3.511l5.789-16.178zm4.129 9.473l-2.135-6.194-2.065 6.194h4.2zm11.513-9.473h9.61v3.06h-6.217v3.231h5.149v2.964h-5.149v3.862h6.217v3.06h-9.61V21.282zm19.878 4.761l-.997 11.417h-3.061l1.495-16.178h4.271l4.034 11.611 3.916-11.611h4.271l1.447 16.178h-3.084l-1.092-11.368-4.176 11.538-2.824.267-4.2-11.854zm29.129 11.732c-1.55 0-2.918-.348-4.105-1.044-1.186-.696-2.112-1.676-2.776-2.94-.649-1.262-.973-2.712-.973-4.347 0-1.652.324-3.11.973-4.373.648-1.263 1.566-2.242 2.752-2.939 1.187-.696 2.563-1.044 4.129-1.044 1.551 0 2.919.348 4.105 1.044 1.187.68 2.104 1.644 2.753 2.89.648 1.248.973 2.689.973 4.325 0 1.668-.325 3.141-.973 4.42-.649 1.264-1.566 2.251-2.753 2.964-1.186.696-2.554 1.044-4.105 1.044zm0-3.084c1.297 0 2.334-.478 3.109-1.434.791-.955 1.186-2.226 1.186-3.813 0-1.037-.182-1.952-.546-2.745-.348-.81-.854-1.425-1.518-1.846-.649-.438-1.392-.656-2.231-.656-.838 0-1.59.218-2.254.656-.649.42-1.155 1.036-1.519 1.846-.348.793-.522 1.708-.522 2.745 0 1.036.174 1.951.522 2.744.364.794.87 1.41 1.519 1.847.649.437 1.4.656 2.254.656zm14.277-13.409h4.034l6.549 11.344V21.28h3.156v16.178h-3.986l-6.597-11.417v11.417h-3.156V21.28z" fill="#8D96BD"/></svg>