<svg width="63" height="65" viewBox="0 0 63 65" fill="none" xmlns="http://www.w3.org/2000/svg"><g clip-path="url(#clip0)"><path d="M35.726 38.313c3.6-3.484 6.33-8.083 8.286-12.949a43.479 43.479 0 002.28-7.52c.537-2.556.801-5.162.645-7.64-.078-1.233-.293-2.407-.694-3.444-.402-1.036-.989-1.894-1.742-2.457-.743-.563-1.702-.869-2.798-.859-1.095.02-2.279.296-3.453.74-2.348.918-4.608 2.409-6.75 4.067-2.142 1.668-4.187 3.523-6.222 5.428 1.458-2.389 3.101-4.668 5.019-6.75a30.422 30.422 0 013.081-2.971 20.096 20.096 0 013.64-2.478c1.33-.7 2.807-1.263 4.47-1.43 1.634-.178 3.522.128 5.068 1.134 1.545.987 2.631 2.468 3.326 3.978.694 1.51 1.066 3.089 1.262 4.619.371 3.05.146 6.03-.313 8.931-.49 2.902-1.282 5.725-2.3 8.458-1.046 2.724-2.328 5.37-3.913 7.856-1.575 2.488-3.462 4.827-5.752 6.82l-3.14-3.533z" fill="#290A59"/><path d="M51.056 4.757c1.663 2.063 5.82 20.292-10.742 38.757.978 1.293 1.967 1.984 1.967 1.984s8.843-9.159 11.876-22.127c2.171-9.327 0-15.416-3.101-18.614z" fill="#290A59"/><path d="M55.047 9.465c1.663 2.062 5.82 20.291-10.742 38.757.979 1.293 1.967 1.984 1.967 1.984s8.843-9.16 11.876-22.128c2.171-9.316 0-15.406-3.101-18.613z" fill="#290A59"/><path d="M37.947 33.665c-4.666-1.787-9.959-2.3-15.144-1.994a42.373 42.373 0 00-7.718 1.155c-2.514.612-4.97 1.48-7.122 2.694-1.076.602-2.025 1.303-2.788 2.112-.743.81-1.262 1.708-1.438 2.635-.186.928-.049 1.925.44 2.922.48.987 1.243 1.954 2.143 2.822 1.829 1.747 4.138 3.158 6.534 4.402 2.417 1.234 4.95 2.31 7.533 3.346-2.759-.296-5.508-.82-8.198-1.678a30.145 30.145 0 01-3.981-1.54 19.923 19.923 0 01-3.786-2.26c-1.203-.908-2.338-2.023-3.2-3.464C.363 43.406-.175 41.55.06 39.715c.215-1.836 1.086-3.465 2.132-4.738 1.057-1.283 2.309-2.3 3.59-3.128 2.573-1.648 5.342-2.724 8.13-3.543 2.807-.8 5.674-1.293 8.56-1.54 2.886-.207 5.81-.188 8.716.197 2.905.375 5.81 1.086 8.58 2.31l-1.82 4.392z" fill="#3D57F4"/><path d="M1.32 34.099c1.135-2.398 15.672-14.015 39.307-6.85.744-1.45.93-2.645.93-2.645S29.563 20.47 16.65 23.282C7.386 25.305 2.866 29.894 1.32 34.099z" fill="#3D57F4"/><path d="M3.835 28.434c1.135-2.399 15.672-14.015 39.306-6.85.744-1.45.93-2.645.93-2.645s-11.994-4.135-24.907-1.322C9.89 19.64 5.371 24.239 3.834 28.434z" fill="#3D57F4"/><path d="M31.54 33.645c1.31 4.855 4.02 9.474 7.317 13.52a44.099 44.099 0 005.468 5.617c1.966 1.687 4.109 3.177 6.349 4.214 1.115.523 2.23.888 3.326 1.026s2.123.03 2.974-.375c.851-.395 1.565-1.095 2.084-2.072.508-.978.831-2.162.998-3.415.322-2.517.097-5.231-.314-7.925-.43-2.695-1.066-5.399-1.76-8.113 1.389 2.428 2.582 4.974 3.492 7.668.47 1.343.832 2.734 1.115 4.155.284 1.422.44 2.892.42 4.412-.019 1.51-.234 3.1-.89 4.649-.626 1.54-1.8 3.06-3.404 3.947-1.594.898-3.414 1.155-5.048 1.056-1.653-.098-3.199-.533-4.617-1.085-2.837-1.135-5.322-2.754-7.63-4.54-2.3-1.816-4.373-3.869-6.271-6.07-1.868-2.23-3.57-4.629-4.97-7.224-1.408-2.586-2.553-5.38-3.198-8.36l4.558-1.085z" fill="#BC2280"/><path d="M53.442 63.253c-2.592.493-20.455-4.53-28.624-28.02-1.594.257-2.67.8-2.67.8s3.746 12.218 13.598 21.091c7.092 6.366 13.431 7.353 17.696 6.129z" fill="#BC2280"/><path d="M47.436 64.546c-2.593.493-20.456-4.53-28.624-28.02-1.595.257-2.67.8-2.67.8s3.746 12.218 13.597 21.091c7.083 6.366 13.422 7.353 17.697 6.129z" fill="#BC2280"/></g><defs><clipPath id="clip0"><path fill="#fff" d="M0 0h63v65H0z"/></clipPath></defs></svg>