<svg width="269" height="221" viewBox="0 0 269 221" fill="none" xmlns="http://www.w3.org/2000/svg"><g opacity=".56"><path opacity=".4" d="M159.205 220.44c60.168 0 108.943-28.13 108.943-62.83s-48.775-62.83-108.943-62.83c-60.167 0-108.943 28.13-108.943 62.83s48.776 62.83 108.943 62.83z" fill="url(#paint0_radial)" fill-opacity=".5"/><path opacity=".4" d="M108.943 220.44c60.167 0 108.943-28.13 108.943-62.83S169.11 94.78 108.943 94.78C48.775 94.78 0 122.91 0 157.61s48.775 62.83 108.943 62.83z" fill="url(#paint1_radial)" fill-opacity=".46"/><path opacity=".3" d="M127.572 181.83c-6.827 0-13.774-.92-20.361-2.86-13.204-3.88-22.233-11.16-24.775-19.97-1.782-6.17-.11-12.58 4.714-18.05l.52-.59c11.573-13.1 38.15-18.22 60.484-11.65 13.203 3.88 22.233 11.16 24.775 19.97 1.782 6.17.11 12.58-4.725 18.05l-.52.59c-8.159 9.24-23.775 14.51-40.112 14.51zm.26-49.84c-14.605 0-28.6 4.53-35.566 12.42l-.53.59c-3.445 3.9-4.626 8.15-3.424 12.31 1.922 6.66 9.63 12.57 20.621 15.8 19.911 5.85 44.206 1.44 54.166-9.83l.521-.59c3.443-3.9 4.624-8.16 3.433-12.31-1.922-6.66-9.63-12.57-20.621-15.8-5.976-1.76-12.353-2.59-18.6-2.59z" fill="#6EE8FC"/><path d="M127.332 179.11c-6.536 0-13.163-.86-19.37-2.69-12.312-3.62-20.691-10.24-22.973-18.16-1.542-5.35-.11-10.73 4.154-15.56l.52-.59c10.762-12.18 36.668-17.06 57.74-10.86 12.313 3.62 20.692 10.24 22.974 18.16 1.542 5.35.11 10.73-4.164 15.56l-.521.59c-7.588 8.6-22.713 13.55-38.36 13.55zm.651-49.74c-15.406 0-30.271 4.86-37.719 13.29l-.52.59c-4.075 4.61-5.456 9.73-3.995 14.8 2.173 7.54 10.561 14.12 22.434 17.61 20.801 6.11 46.338 1.35 56.909-10.62l.52-.59c4.074-4.61 5.456-9.73 3.994-14.8-2.172-7.54-10.561-14.12-22.433-17.61-6.146-1.82-12.713-2.67-19.19-2.67z" fill="#6EE8FC"/><path d="M127.703 174.28c-9.861 0-19.711-2.16-27.219-6.49-7.307-4.21-11.331-9.83-11.331-15.82 0-5.98 4.024-11.6 11.331-15.82 15.006-8.66 39.421-8.66 54.427 0 7.307 4.22 11.332 9.83 11.332 15.82 0 5.98-4.025 11.6-11.332 15.82-7.498 4.33-17.358 6.49-27.208 6.49zm-.01-44.2c-9.78 0-19.561 2.15-26.998 6.44-7.178 4.14-11.122 9.62-11.122 15.45s3.954 11.32 11.122 15.45c14.885 8.59 39.12 8.59 54.006 0 7.177-4.14 11.121-9.62 11.121-15.45s-3.954-11.32-11.121-15.45c-7.448-4.29-17.228-6.44-27.008-6.44z" fill="url(#paint2_linear)"/><path opacity=".6" d="M127.693 170.64c17.879 0 32.373-8.359 32.373-18.67 0-10.311-14.494-18.67-32.373-18.67-17.88 0-32.374 8.359-32.374 18.67 0 10.311 14.494 18.67 32.374 18.67z" fill="#0C0F38"/><path d="M166.034 142.38v-12.52h-6.787a31.023 31.023 0 00-4.445-3.1c-14.976-8.64-39.251-8.64-54.216 0a30.981 30.981 0 00-4.445 3.1h-6.787v12.54c0 5.66 3.744 11.32 11.232 15.63 14.975 8.64 39.25 8.64 54.216 0 7.498-4.32 11.242-9.99 11.232-15.65z" fill="url(#paint3_linear)"/><path d="M89.713 142.07v-12.21h-.35v12.54c0 5.07 3.023 10.12 9.02 14.23-5.777-4.27-8.67-9.41-8.67-14.56z" fill="#D4088C"/><path d="M165.431 129.86v12.11c.01 5.67-3.733 11.33-11.231 15.66-14.976 8.63-39.251 8.63-54.216 0-.761-.44-1.462-.9-2.143-1.37.851.61 1.762 1.2 2.743 1.77 14.976 8.64 39.251 8.64 54.216 0 7.498-4.32 11.232-9.99 11.232-15.66v-12.52h-.601v.01z" fill="#6EE8FC"/><path d="M127.694 151.97c21.174 0 38.34-9.899 38.34-22.11s-17.166-22.11-38.34-22.11c-21.175 0-38.34 9.899-38.34 22.11s17.165 22.11 38.34 22.11z" fill="url(#paint4_linear)"/><path d="M101.626 114.45c7.608-4.39 17.538-6.6 27.508-6.67-10.28-.22-20.691 1.91-28.539 6.44-11.662 6.73-14.345 16.84-7.688 24.87-5.736-8.22-2.833-17.97 8.719-24.64z" fill="#D4088C"/><path d="M154.812 114.23c-3.974-2.29-8.619-3.96-13.564-5.03 4.434 1.08 8.599 2.65 12.212 4.73 14.976 8.64 14.976 22.64 0 31.27-10.991 6.34-26.998 8.01-40.652 5.03 13.945 3.39 30.642 1.82 42.004-4.73 14.965-8.64 14.965-22.64 0-31.27z" fill="#6EE8FC"/><path d="M127.512 143.99c13.529 0 24.496-6.326 24.496-14.13 0-7.804-10.967-14.13-24.496-14.13-13.528 0-24.495 6.326-24.495 14.13 0 7.804 10.967 14.13 24.495 14.13z" fill="#6DE0F6"/><path d="M110.184 127.44c9.57-5.52 25.076-5.52 34.646 0 3.093 1.79 5.176 3.93 6.267 6.21 2.282-4.75.2-10.05-6.267-13.78-9.57-5.52-25.076-5.52-34.646 0-6.466 3.73-8.549 9.03-6.266 13.78 1.091-2.27 3.173-4.42 6.266-6.21z" fill="#18D0F7"/><path d="M110.184 124.77c9.57-5.52 25.076-5.52 34.646 0 3.704 2.13 5.956 4.78 6.787 7.54 1.332-4.38-.921-9.06-6.787-12.44-9.57-5.52-25.076-5.52-34.646 0-5.866 3.38-8.118 8.06-6.787 12.44.841-2.76 3.094-5.41 6.787-7.54z" fill="#25BFEC"/><path d="M110.184 122.39c9.57-5.52 25.076-5.52 34.646 0 4.225 2.44 6.577 5.55 7.068 8.73.62-4.02-1.732-8.17-7.068-11.25-9.57-5.52-25.076-5.52-34.646 0-5.335 3.08-7.688 7.23-7.067 11.25.491-3.19 2.843-6.3 7.067-8.73z" fill="#267FE5"/><path d="M147.533 112.79c-.771-.27-1.782-.14-2.263.31-.48.45-.24 1.03.541 1.3.771.27 1.782.14 2.262-.31.481-.45.241-1.03-.54-1.3z" fill="#6EE8FC"/><path opacity=".8" d="M152.948 115.41c-.65-.35-1.672-.33-2.282.05-.611.38-.571.97.08 1.32.651.35 1.672.33 2.282-.05.611-.38.571-.97-.08-1.32z" fill="#6EE8FC"/><path opacity=".6" d="M157.383 118.58c-.521-.42-1.532-.51-2.253-.21-.72.3-.88.88-.36 1.3.521.42 1.532.51 2.252.21.721-.3.891-.88.361-1.3z" fill="#6EE8FC"/><path opacity=".4" d="M160.667 122.19c-.37-.47-1.331-.67-2.142-.46-.811.21-1.171.77-.791 1.24.371.47 1.332.67 2.142.46.811-.22 1.162-.78.791-1.24z" fill="#6EE8FC"/><path opacity=".2" d="M162.669 126.1c-.21-.5-1.081-.81-1.942-.69-.871.12-1.401.62-1.201 1.12.21.5 1.081.81 1.942.69.871-.12 1.401-.62 1.201-1.12z" fill="#6EE8FC"/><path opacity=".1" d="M163.139 130.6c.39-.46.06-1.02-.741-1.25-.801-.23-1.772-.03-2.162.43-.391.46-.06 1.02.741 1.25.81.22 1.771.03 2.162-.43z" fill="#6EE8FC"/><path d="M166.034 115.44v-12.52h-6.787a31.04 31.04 0 00-4.445-3.1c-14.976-8.64-39.251-8.64-54.216 0a30.998 30.998 0 00-4.445 3.1h-6.787v12.54c0 5.66 3.744 11.32 11.232 15.63 14.975 8.64 39.25 8.64 54.216 0 7.498-4.32 11.242-9.98 11.232-15.65z" fill="url(#paint5_linear)"/><path d="M89.713 115.13v-12.21h-.35v12.54c0 5.07 3.023 10.12 9.02 14.23-5.777-4.27-8.67-9.41-8.67-14.56z" fill="#D4088C"/><path d="M165.431 102.92v12.11c.01 5.67-3.733 11.33-11.231 15.66-14.976 8.63-39.251 8.63-54.216 0-.761-.44-1.462-.9-2.143-1.37.851.61 1.762 1.2 2.743 1.77 14.976 8.64 39.251 8.64 54.216 0 7.498-4.32 11.232-9.99 11.232-15.66v-12.52h-.601v.01z" fill="#6EE8FC"/><path d="M127.694 125.03c21.174 0 38.34-9.899 38.34-22.11s-17.166-22.11-38.34-22.11c-21.175 0-38.34 9.899-38.34 22.11s17.165 22.11 38.34 22.11z" fill="url(#paint6_linear)"/><path d="M101.626 87.52c7.608-4.39 17.538-6.6 27.508-6.67-10.28-.22-20.691 1.91-28.539 6.44-11.662 6.73-14.345 16.84-7.688 24.87-5.736-8.22-2.833-17.98 8.719-24.64z" fill="#D4088C"/><path d="M154.812 87.29c-3.974-2.29-8.619-3.96-13.564-5.03 4.434 1.08 8.599 2.65 12.212 4.73 14.976 8.64 14.976 22.64 0 31.27-10.991 6.34-26.998 8.01-40.652 5.03 13.945 3.39 30.642 1.82 42.004-4.73 14.965-8.64 14.965-22.64 0-31.27z" fill="#6EE8FC"/><path d="M127.512 117.05c13.529 0 24.496-6.326 24.496-14.13 0-7.804-10.967-14.13-24.496-14.13-13.528 0-24.495 6.326-24.495 14.13 0 7.804 10.967 14.13 24.495 14.13z" fill="#6DE0F6"/><path d="M110.184 100.51c9.57-5.52 25.076-5.52 34.646 0 3.093 1.79 5.176 3.93 6.267 6.21 2.282-4.75.2-10.05-6.267-13.78-9.57-5.52-25.076-5.52-34.646 0-6.466 3.73-8.549 9.03-6.266 13.78 1.091-2.28 3.173-4.43 6.266-6.21z" fill="#18D0F7"/><path d="M110.184 97.83c9.57-5.52 25.076-5.52 34.646 0 3.704 2.13 5.956 4.78 6.787 7.54 1.332-4.38-.921-9.06-6.787-12.44-9.57-5.52-25.076-5.52-34.646 0-5.866 3.38-8.118 8.06-6.787 12.44.841-2.76 3.094-5.41 6.787-7.54z" fill="#25BFEC"/><path d="M110.184 95.45c9.57-5.52 25.076-5.52 34.646 0 4.225 2.44 6.577 5.55 7.068 8.73.62-4.02-1.732-8.17-7.068-11.25-9.57-5.52-25.076-5.52-34.646 0-5.335 3.08-7.688 7.23-7.067 11.25.491-3.18 2.843-6.29 7.067-8.73z" fill="#267FE5"/><path d="M147.533 85.85c-.771-.27-1.782-.14-2.263.31-.48.45-.24 1.03.541 1.3.771.27 1.782.14 2.262-.31.481-.45.241-1.03-.54-1.3z" fill="#6EE8FC"/><path opacity=".8" d="M152.948 88.47c-.65-.35-1.672-.33-2.282.05-.611.38-.571.97.08 1.32.651.35 1.672.33 2.282-.05.611-.38.571-.97-.08-1.32z" fill="#6EE8FC"/><path opacity=".6" d="M157.383 91.64c-.521-.42-1.532-.51-2.253-.21-.72.3-.88.88-.36 1.3.521.42 1.532.51 2.252.21.721-.3.891-.88.361-1.3z" fill="#6EE8FC"/><path opacity=".4" d="M160.667 95.25c-.37-.47-1.331-.67-2.142-.46-.811.21-1.171.77-.791 1.24.371.47 1.332.67 2.142.46.811-.22 1.162-.77.791-1.24z" fill="#6EE8FC"/><path opacity=".2" d="M162.669 99.16c-.21-.5-1.081-.81-1.942-.69-.871.12-1.401.62-1.201 1.12.21.5 1.081.81 1.942.69.871-.12 1.401-.62 1.201-1.12z" fill="#6EE8FC"/><path opacity=".1" d="M163.139 103.66c.39-.46.06-1.02-.741-1.25-.801-.23-1.772-.03-2.162.43-.391.46-.06 1.02.741 1.25.81.22 1.771.03 2.162-.43z" fill="#6EE8FC"/><path opacity=".5" d="M166.034 87.07l-11.873-.13c-14.435-7.96-36.988-8.16-51.823-.59l-12.994-.15v16.12h.04c-.28 5.86 3.454 11.77 11.202 16.24 14.975 8.64 39.25 8.64 54.216 0 7.748-4.47 11.482-10.38 11.202-16.24h.03V87.07z" fill="#6EE8FC"/><path d="M166.034 88.5V75.99h-6.787a31.023 31.023 0 00-4.445-3.1c-14.976-8.64-39.251-8.64-54.216 0a30.981 30.981 0 00-4.445 3.1h-6.787v12.54c0 5.66 3.744 11.32 11.232 15.63 14.975 8.64 39.25 8.64 54.216 0 7.498-4.33 11.242-9.99 11.232-15.66z" fill="url(#paint7_linear)"/><path d="M89.713 88.2V75.99h-.35v12.54c0 5.07 3.023 10.12 9.02 14.23-5.777-4.28-8.67-9.42-8.67-14.56z" fill="#D4088C"/><path d="M165.431 75.99V88.1c.01 5.67-3.733 11.33-11.231 15.66-14.976 8.63-39.251 8.63-54.216 0-.761-.44-1.462-.9-2.143-1.37.851.61 1.762 1.2 2.743 1.77 14.976 8.64 39.251 8.64 54.216 0 7.498-4.32 11.232-9.99 11.232-15.66V75.99h-.601z" fill="#6EE8FC"/><path d="M127.694 98.1c21.174 0 38.34-9.9 38.34-22.11 0-12.211-17.166-22.11-38.34-22.11-21.175 0-38.34 9.899-38.34 22.11 0 12.21 17.165 22.11 38.34 22.11z" fill="url(#paint8_linear)"/><path d="M101.626 60.58c7.608-4.39 17.538-6.6 27.508-6.67-10.28-.22-20.691 1.91-28.539 6.44-11.662 6.73-14.345 16.84-7.688 24.87-5.736-8.22-2.833-17.98 8.719-24.64z" fill="#D4088C"/><path d="M154.812 60.35c-3.974-2.29-8.619-3.96-13.564-5.03 4.434 1.08 8.599 2.65 12.212 4.73 14.976 8.64 14.976 22.64 0 31.27-10.991 6.34-26.998 8.01-40.652 5.03 13.945 3.39 30.642 1.82 42.004-4.73 14.965-8.63 14.965-22.63 0-31.27z" fill="#6EE8FC"/><path d="M127.512 90.12c13.529 0 24.496-6.326 24.496-14.13 0-7.804-10.967-14.13-24.496-14.13-13.528 0-24.495 6.326-24.495 14.13 0 7.804 10.967 14.13 24.495 14.13z" fill="#6DE0F6"/><path d="M110.184 73.57c9.57-5.52 25.076-5.52 34.646 0 3.093 1.79 5.176 3.93 6.267 6.21 2.282-4.75.2-10.05-6.267-13.78-9.57-5.52-25.076-5.52-34.646 0-6.466 3.73-8.549 9.03-6.266 13.78 1.091-2.28 3.173-4.43 6.266-6.21z" fill="#18D0F7"/><path d="M110.184 70.89c9.57-5.52 25.076-5.52 34.646 0 3.704 2.13 5.956 4.78 6.787 7.54 1.332-4.38-.921-9.06-6.787-12.44-9.57-5.52-25.076-5.52-34.646 0-5.866 3.38-8.118 8.06-6.787 12.44.841-2.76 3.094-5.4 6.787-7.54z" fill="#25BFEC"/><path d="M110.184 68.51c9.57-5.52 25.076-5.52 34.646 0 4.225 2.44 6.577 5.55 7.068 8.73.62-4.02-1.732-8.17-7.068-11.25-9.57-5.52-25.076-5.52-34.646 0-5.335 3.08-7.688 7.23-7.067 11.25.491-3.18 2.843-6.29 7.067-8.73z" fill="#267FE5"/><path d="M147.533 58.91c-.771-.27-1.782-.14-2.263.31-.48.45-.24 1.03.541 1.3.771.27 1.782.14 2.262-.31.481-.44.241-1.03-.54-1.3z" fill="#6EE8FC"/><path opacity=".8" d="M152.948 61.53c-.65-.35-1.672-.33-2.282.05-.611.38-.571.97.08 1.32.651.35 1.672.33 2.282-.05.611-.38.571-.97-.08-1.32z" fill="#6EE8FC"/><path opacity=".6" d="M157.383 64.7c-.521-.42-1.532-.51-2.253-.21-.72.3-.88.88-.36 1.3.521.42 1.532.51 2.252.21.721-.3.891-.88.361-1.3z" fill="#6EE8FC"/><path opacity=".4" d="M160.667 68.31c-.37-.47-1.331-.67-2.142-.46-.811.21-1.171.77-.791 1.24.371.47 1.332.67 2.142.46.811-.22 1.162-.77.791-1.24z" fill="#6EE8FC"/><path opacity=".2" d="M162.669 72.22c-.21-.5-1.081-.81-1.942-.69-.871.12-1.401.62-1.201 1.12.21.5 1.081.81 1.942.69.871-.12 1.401-.62 1.201-1.12z" fill="#6EE8FC"/><path opacity=".1" d="M163.139 76.72c.39-.46.06-1.02-.741-1.25-.801-.23-1.772-.03-2.162.43-.391.46-.06 1.02.741 1.25.81.23 1.771.03 2.162-.43z" fill="#6EE8FC"/><path d="M166.034 61.56V49.05h-6.787a31.023 31.023 0 00-4.445-3.1c-14.976-8.64-39.251-8.64-54.216 0a30.981 30.981 0 00-4.445 3.1h-6.787v12.54c0 5.66 3.744 11.32 11.232 15.63 14.975 8.64 39.25 8.64 54.216 0 7.498-4.32 11.242-9.99 11.232-15.66z" fill="url(#paint9_linear)"/><path d="M89.713 61.26V49.05h-.35v12.54c0 5.07 3.023 10.12 9.02 14.23-5.777-4.28-8.67-9.42-8.67-14.56z" fill="#D4088C"/><path d="M165.431 49.05v12.11c.01 5.67-3.733 11.33-11.231 15.66-14.976 8.64-39.251 8.63-54.216 0-.761-.44-1.462-.9-2.143-1.37.851.61 1.762 1.2 2.743 1.77 14.976 8.64 39.251 8.64 54.216 0 7.498-4.32 11.232-9.99 11.232-15.66V49.05h-.601z" fill="#6EE8FC"/><path d="M127.694 71.16c21.174 0 38.34-9.899 38.34-22.11s-17.166-22.11-38.34-22.11c-21.175 0-38.34 9.899-38.34 22.11s17.165 22.11 38.34 22.11z" fill="url(#paint10_linear)"/><path d="M101.626 33.64c7.608-4.39 17.538-6.6 27.508-6.67-10.28-.22-20.691 1.91-28.539 6.44-11.662 6.73-14.345 16.84-7.688 24.87-5.736-8.22-2.833-17.98 8.719-24.64z" fill="#D4088C"/><path d="M154.812 33.41c-3.974-2.29-8.619-3.96-13.564-5.03 4.434 1.08 8.599 2.65 12.212 4.73 14.976 8.64 14.976 22.64 0 31.27-10.991 6.34-26.998 8.01-40.652 5.03 13.945 3.39 30.642 1.82 42.004-4.73 14.965-8.63 14.965-22.63 0-31.27z" fill="#6EE8FC"/><path d="M127.512 63.18c13.529 0 24.496-6.326 24.496-14.13 0-7.804-10.967-14.13-24.496-14.13-13.528 0-24.495 6.326-24.495 14.13 0 7.804 10.967 14.13 24.495 14.13z" fill="#6DE0F6"/><path d="M110.184 46.63c9.57-5.52 25.076-5.52 34.646 0 3.093 1.79 5.176 3.93 6.267 6.21 2.282-4.75.2-10.05-6.267-13.78-9.57-5.52-25.076-5.52-34.646 0-6.466 3.73-8.549 9.03-6.266 13.78 1.091-2.28 3.173-4.42 6.266-6.21z" fill="#18D0F7"/><path d="M110.184 43.96c9.57-5.52 25.076-5.52 34.646 0 3.704 2.13 5.956 4.78 6.787 7.54 1.332-4.38-.921-9.06-6.787-12.44-9.57-5.52-25.076-5.52-34.646 0-5.866 3.38-8.118 8.06-6.787 12.44.841-2.76 3.094-5.41 6.787-7.54z" fill="#25BFEC"/><path d="M110.184 41.57c9.57-5.52 25.076-5.52 34.646 0 4.225 2.44 6.577 5.55 7.068 8.73.62-4.02-1.732-8.17-7.068-11.25-9.57-5.52-25.076-5.52-34.646 0-5.335 3.08-7.688 7.23-7.067 11.25.491-3.18 2.843-6.29 7.067-8.73z" fill="#267FE5"/><path d="M147.533 31.97c-.771-.27-1.782-.14-2.263.31-.48.45-.24 1.03.541 1.3.771.27 1.782.14 2.262-.31.481-.44.241-1.02-.54-1.3z" fill="#6EE8FC"/><path opacity=".8" d="M152.948 34.6c-.65-.35-1.672-.33-2.282.05-.611.38-.571.97.08 1.32.651.35 1.672.33 2.282-.05.611-.38.571-.97-.08-1.32z" fill="#6EE8FC"/><path opacity=".6" d="M157.383 37.77c-.521-.42-1.532-.51-2.253-.21-.72.3-.88.88-.36 1.3.521.42 1.532.51 2.252.21.721-.3.891-.89.361-1.3z" fill="#6EE8FC"/><path opacity=".4" d="M160.667 41.37c-.37-.47-1.331-.67-2.142-.46-.811.21-1.171.77-.791 1.24.371.47 1.332.67 2.142.46.811-.21 1.162-.77.791-1.24z" fill="#6EE8FC"/><path opacity=".2" d="M162.669 45.28c-.21-.5-1.081-.81-1.942-.69-.871.12-1.401.62-1.201 1.12.21.5 1.081.81 1.942.69.871-.11 1.401-.62 1.201-1.12z" fill="#6EE8FC"/><path opacity=".1" d="M163.139 49.78c.39-.46.06-1.02-.741-1.25-.801-.23-1.772-.03-2.162.43-.391.46-.06 1.02.741 1.25.81.23 1.771.04 2.162-.43z" fill="#6EE8FC"/><path opacity=".5" d="M166.034 33.2l-11.873-.14c-14.435-7.96-36.988-8.15-51.823-.59l-12.994-.15v16.12h.04c-.28 5.86 3.454 11.77 11.202 16.24 14.975 8.64 39.25 8.64 54.216 0 7.748-4.47 11.482-10.38 11.202-16.24h.03V33.2z" fill="#6EE8FC"/><path d="M166.034 34.63V22.11h-6.787a31.023 31.023 0 00-4.445-3.1c-14.976-8.64-39.251-8.64-54.216 0a30.981 30.981 0 00-4.445 3.1h-6.787v12.54c0 5.66 3.744 11.32 11.232 15.63 14.975 8.64 39.25 8.64 54.216 0 7.498-4.32 11.242-9.99 11.232-15.65z" fill="url(#paint11_linear)"/><path d="M89.713 34.32V22.11h-.35v12.54c0 5.07 3.023 10.12 9.02 14.23-5.777-4.27-8.67-9.41-8.67-14.56z" fill="#D4088C"/><path d="M165.431 22.11v12.11c.01 5.67-3.733 11.33-11.231 15.66-14.976 8.63-39.251 8.63-54.216 0-.761-.44-1.462-.9-2.143-1.37.851.61 1.762 1.2 2.743 1.77 14.976 8.64 39.251 8.64 54.216 0 7.498-4.32 11.232-9.99 11.232-15.66V22.11h-.601z" fill="#6EE8FC"/><path d="M127.694 44.22c21.174 0 38.34-9.899 38.34-22.11S148.868 0 127.694 0c-21.175 0-38.34 9.899-38.34 22.11s17.165 22.11 38.34 22.11z" fill="url(#paint12_linear)"/><path d="M101.626 6.71c7.608-4.39 17.538-6.6 27.508-6.67-10.28-.22-20.691 1.91-28.539 6.44-11.662 6.73-14.345 16.84-7.688 24.87-5.736-8.23-2.833-17.98 8.719-24.64z" fill="#D4088C"/><path d="M154.812 6.48c-3.974-2.29-8.619-3.96-13.564-5.03 4.434 1.08 8.599 2.65 12.212 4.73 14.976 8.64 14.976 22.64 0 31.27-10.991 6.34-26.998 8.01-40.652 5.03 13.945 3.39 30.642 1.82 42.004-4.73 14.965-8.64 14.965-22.64 0-31.27z" fill="#6EE8FC"/><path d="M127.512 36.24c13.529 0 24.496-6.326 24.496-14.13 0-7.804-10.967-14.13-24.496-14.13-13.528 0-24.495 6.326-24.495 14.13 0 7.804 10.967 14.13 24.495 14.13z" fill="#6DE0F6"/><path d="M110.184 19.69c9.57-5.52 25.076-5.52 34.646 0 3.093 1.79 5.176 3.93 6.267 6.21 2.282-4.75.2-10.05-6.267-13.78-9.57-5.52-25.076-5.52-34.646 0-6.466 3.73-8.549 9.03-6.266 13.78 1.091-2.27 3.173-4.42 6.266-6.21z" fill="#18D0F7"/><path d="M110.184 17.02c9.57-5.52 25.076-5.52 34.646 0 3.704 2.13 5.956 4.78 6.787 7.54 1.332-4.38-.921-9.06-6.787-12.44-9.57-5.52-25.076-5.52-34.646 0-5.866 3.38-8.118 8.06-6.787 12.44.841-2.76 3.094-5.41 6.787-7.54z" fill="#25BFEC"/><path d="M110.184 14.64c9.57-5.52 25.076-5.52 34.646 0 4.225 2.44 6.577 5.55 7.068 8.73.62-4.02-1.732-8.17-7.068-11.25-9.57-5.52-25.076-5.52-34.646 0-5.335 3.08-7.688 7.23-7.067 11.25.491-3.19 2.843-6.3 7.067-8.73z" fill="#267FE5"/><path d="M147.533 5.04c-.771-.27-1.782-.14-2.263.31-.48.45-.24 1.03.541 1.3.771.27 1.782.14 2.262-.31.481-.45.241-1.03-.54-1.3z" fill="#6EE8FC"/><path opacity=".8" d="M152.948 7.66c-.65-.35-1.672-.33-2.282.05-.611.38-.571.97.08 1.32.651.35 1.672.33 2.282-.05.611-.38.571-.97-.08-1.32z" fill="#6EE8FC"/><path opacity=".6" d="M157.383 10.83c-.521-.42-1.532-.51-2.253-.21-.72.3-.88.88-.36 1.3.521.42 1.532.51 2.252.21.721-.3.891-.88.361-1.3z" fill="#6EE8FC"/><path opacity=".4" d="M160.667 14.44c-.37-.47-1.331-.67-2.142-.46-.811.21-1.171.77-.791 1.24.371.47 1.332.67 2.142.46.811-.22 1.162-.78.791-1.24z" fill="#6EE8FC"/><path opacity=".2" d="M162.669 18.35c-.21-.5-1.081-.81-1.942-.69-.871.12-1.401.62-1.201 1.12.21.5 1.081.81 1.942.69.871-.12 1.401-.62 1.201-1.12z" fill="#6EE8FC"/><path opacity=".1" d="M163.139 22.85c.39-.46.06-1.02-.741-1.25-.801-.23-1.772-.03-2.162.43-.391.46-.06 1.02.741 1.25.81.22 1.771.03 2.162-.43z" fill="#6EE8FC"/><path d="M128.243 52.72a2.411 2.411 0 100-4.82 2.411 2.411 0 00-2.413 2.41c0 1.33 1.08 2.41 2.413 2.41z" fill="#6DE0F6"/><path d="M128.243 51.81a2.408 2.408 0 01-2.363-1.95c-.03.15-.05.3-.05.45a2.413 2.413 0 004.825 0c0-.15-.02-.3-.05-.45a2.398 2.398 0 01-2.362 1.95z" fill="#267FE5"/><path d="M128.243 79.66a2.411 2.411 0 100-4.82 2.411 2.411 0 100 4.82z" fill="#6DE0F6"/><path d="M128.243 78.75a2.408 2.408 0 01-2.363-1.95c-.03.15-.05.3-.05.45a2.413 2.413 0 004.825 0c0-.15-.02-.3-.05-.45a2.398 2.398 0 01-2.362 1.95z" fill="#267FE5"/><path d="M128.243 106.59a2.411 2.411 0 100-4.82 2.411 2.411 0 00-2.413 2.41c0 1.331 1.08 2.41 2.413 2.41z" fill="#6DE0F6"/><path d="M128.243 105.69a2.408 2.408 0 01-2.363-1.95c-.03.15-.05.3-.05.45a2.413 2.413 0 004.825 0c0-.15-.02-.3-.05-.45a2.407 2.407 0 01-2.362 1.95z" fill="#267FE5"/><path d="M128.243 133.53a2.411 2.411 0 100-4.82 2.411 2.411 0 00-2.413 2.41c0 1.331 1.08 2.41 2.413 2.41z" fill="#6DE0F6"/><path d="M128.243 132.62a2.408 2.408 0 01-2.363-1.95c-.03.15-.05.3-.05.45a2.413 2.413 0 004.825 0c0-.15-.02-.3-.05-.45a2.398 2.398 0 01-2.362 1.95z" fill="#267FE5"/><path d="M128.243 160.47a2.411 2.411 0 100-4.82 2.411 2.411 0 00-2.413 2.41c0 1.331 1.08 2.41 2.413 2.41z" fill="#6DE0F6"/><path d="M128.243 159.56a2.408 2.408 0 01-2.363-1.95c-.03.15-.05.3-.05.45a2.413 2.413 0 004.825 0c0-.15-.02-.3-.05-.45a2.398 2.398 0 01-2.362 1.95z" fill="#267FE5"/></g><defs><linearGradient id="paint2_linear" x1="89.15" y1="151.973" x2="166.245" y2="151.973" gradientUnits="userSpaceOnUse"><stop stop-color="#D4088C"/><stop offset=".226" stop-color="#D4088C"/><stop offset=".511" stop-color="#6EE1F8"/><stop offset=".78" stop-color="#6EE8FC"/><stop offset="1" stop-color="#6EE8FC"/></linearGradient><linearGradient id="paint3_linear" x1="89.361" y1="142.397" x2="166.035" y2="142.397" gradientUnits="userSpaceOnUse"><stop stop-color="#A31FA9"/><stop offset=".067" stop-color="#8B17A0"/><stop offset=".149" stop-color="#740F98"/><stop offset=".239" stop-color="#640A92"/><stop offset=".341" stop-color="#5B078F"/><stop offset=".478" stop-color="#58068E"/><stop offset=".626" stop-color="#4D22A3"/><stop offset=".944" stop-color="#3168DA"/><stop offset="1" stop-color="#2C75E4"/></linearGradient><linearGradient id="paint4_linear" x1="100.59" y1="114.226" x2="127.658" y2="161.156" gradientUnits="userSpaceOnUse"><stop stop-color="#8D139B"/><stop offset=".165" stop-color="#851BA1"/><stop offset=".428" stop-color="#6E33B2"/><stop offset=".755" stop-color="#4958CD"/><stop offset="1" stop-color="#2979E4"/></linearGradient><linearGradient id="paint5_linear" x1="89.361" y1="115.459" x2="166.035" y2="115.459" gradientUnits="userSpaceOnUse"><stop stop-color="#A31FA9"/><stop offset=".067" stop-color="#8B17A0"/><stop offset=".149" stop-color="#740F98"/><stop offset=".239" stop-color="#640A92"/><stop offset=".341" stop-color="#5B078F"/><stop offset=".478" stop-color="#58068E"/><stop offset=".626" stop-color="#4D22A3"/><stop offset=".944" stop-color="#3168DA"/><stop offset="1" stop-color="#2C75E4"/></linearGradient><linearGradient id="paint6_linear" x1="100.59" y1="87.288" x2="127.658" y2="134.219" gradientUnits="userSpaceOnUse"><stop stop-color="#8D139B"/><stop offset=".165" stop-color="#851BA1"/><stop offset=".428" stop-color="#6E33B2"/><stop offset=".755" stop-color="#4958CD"/><stop offset="1" stop-color="#2979E4"/></linearGradient><linearGradient id="paint7_linear" x1="89.361" y1="88.522" x2="166.035" y2="88.522" gradientUnits="userSpaceOnUse"><stop stop-color="#A31FA9"/><stop offset=".067" stop-color="#8B17A0"/><stop offset=".149" stop-color="#740F98"/><stop offset=".239" stop-color="#640A92"/><stop offset=".341" stop-color="#5B078F"/><stop offset=".478" stop-color="#58068E"/><stop offset=".626" stop-color="#4D22A3"/><stop offset=".944" stop-color="#3168DA"/><stop offset="1" stop-color="#2C75E4"/></linearGradient><linearGradient id="paint8_linear" x1="100.59" y1="60.351" x2="127.658" y2="107.281" gradientUnits="userSpaceOnUse"><stop stop-color="#8D139B"/><stop offset=".165" stop-color="#851BA1"/><stop offset=".428" stop-color="#6E33B2"/><stop offset=".755" stop-color="#4958CD"/><stop offset="1" stop-color="#2979E4"/></linearGradient><linearGradient id="paint9_linear" x1="89.361" y1="61.584" x2="166.035" y2="61.584" gradientUnits="userSpaceOnUse"><stop stop-color="#A31FA9"/><stop offset=".067" stop-color="#8B17A0"/><stop offset=".149" stop-color="#740F98"/><stop offset=".239" stop-color="#640A92"/><stop offset=".341" stop-color="#5B078F"/><stop offset=".478" stop-color="#58068E"/><stop offset=".626" stop-color="#4D22A3"/><stop offset=".944" stop-color="#3168DA"/><stop offset="1" stop-color="#2C75E4"/></linearGradient><linearGradient id="paint10_linear" x1="100.59" y1="33.413" x2="127.658" y2="80.344" gradientUnits="userSpaceOnUse"><stop stop-color="#8D139B"/><stop offset=".165" stop-color="#851BA1"/><stop offset=".428" stop-color="#6E33B2"/><stop offset=".755" stop-color="#4958CD"/><stop offset="1" stop-color="#2979E4"/></linearGradient><linearGradient id="paint11_linear" x1="89.361" y1="34.647" x2="166.035" y2="34.647" gradientUnits="userSpaceOnUse"><stop stop-color="#A31FA9"/><stop offset=".067" stop-color="#8B17A0"/><stop offset=".149" stop-color="#740F98"/><stop offset=".239" stop-color="#640A92"/><stop offset=".341" stop-color="#5B078F"/><stop offset=".478" stop-color="#58068E"/><stop offset=".626" stop-color="#4D22A3"/><stop offset=".944" stop-color="#3168DA"/><stop offset="1" stop-color="#2C75E4"/></linearGradient><linearGradient id="paint12_linear" x1="100.59" y1="6.476" x2="127.658" y2="53.406" gradientUnits="userSpaceOnUse"><stop stop-color="#8D139B"/><stop offset=".165" stop-color="#851BA1"/><stop offset=".428" stop-color="#6E33B2"/><stop offset=".755" stop-color="#4958CD"/><stop offset="1" stop-color="#2979E4"/></linearGradient><radialGradient id="paint0_radial" cx="0" cy="0" r="1" gradientUnits="userSpaceOnUse" gradientTransform="matrix(77.03252 44.42994 -38.45806 66.67849 159.203 157.607)"><stop offset=".011" stop-color="#25BFEC"/><stop offset=".045" stop-color="#24B4E1"/><stop offset=".219" stop-color="#1F83B0"/><stop offset=".39" stop-color="#1B5A86"/><stop offset=".557" stop-color="#173A66"/><stop offset=".717" stop-color="#152350"/><stop offset=".868" stop-color="#131642"/><stop offset="1" stop-color="#13113D"/></radialGradient><radialGradient id="paint1_radial" cx="0" cy="0" r="1" gradientUnits="userSpaceOnUse" gradientTransform="matrix(77.03252 44.42994 -38.45806 66.67849 108.942 157.607)"><stop offset=".011" stop-color="#D4088C"/><stop offset=".096" stop-color="#B70980"/><stop offset=".26" stop-color="#860C6C"/><stop offset=".422" stop-color="#5C0E5B"/><stop offset=".58" stop-color="#3C0F4E"/><stop offset=".732" stop-color="#261045"/><stop offset=".875" stop-color="#18113F"/><stop offset="1" stop-color="#13113D"/></radialGradient></defs></svg>