<svg width="34" height="34" viewBox="0 0 34 34" fill="none" xmlns="http://www.w3.org/2000/svg"><path d="M18.364 26.538h-2.982a.908.908 0 01-.903-.91v-6.776h-1.74a.908.908 0 01-.904-.91V15.04c0-.502.405-.91.904-.91h1.74v-1.454c0-1.442.449-2.668 1.3-3.547.853-.882 2.046-1.349 3.45-1.349l2.274.004c.498 0 .902.409.902.91v2.696c0 .502-.405.91-.903.91h-1.531c-.467 0-.586.095-.611.123-.042.048-.092.184-.092.558v1.149h2.12c.159 0 .313.04.446.114a.914.914 0 01.465.796l-.001 2.903c0 .502-.405.91-.904.91h-2.126v6.776c0 .502-.406.91-.904.91zm-2.794-1.1h2.606V18.36c0-.335.27-.608.603-.608h2.427l.001-2.523h-2.428a.606.606 0 01-.603-.608v-1.64c0-.43.043-.92.365-1.286.39-.444 1.002-.495 1.43-.495l1.343-.001V8.882l-2.086-.003c-2.256 0-3.658 1.455-3.658 3.796v1.946c0 .335-.27.608-.603.608h-2.04v2.523h2.04c.333 0 .603.273.603.608v7.078z" fill="#fff"/><circle cx="17" cy="17" r="16.414" stroke="#fff" stroke-width="1.172"/></svg>