<svg width="482" height="235" viewBox="0 0 482 235" fill="none" xmlns="http://www.w3.org/2000/svg"><g opacity=".58" fill-rule="evenodd" clip-rule="evenodd"><g opacity=".3"><path d="M-120 232.353L102.258 10.175c13.571-13.567 35.575-13.567 49.146 0l222.382 222.302-493.786-.124z" fill="#1A1B36"/><path d="M-120 232.353L102.258 10.175c13.571-13.567 35.575-13.567 49.146 0l222.382 222.302-493.786-.124z" fill="url(#paint0_linear)"/></g><g opacity=".3"><path d="M176.002 232.435l127.12-127.075c13.571-13.567 35.575-13.567 49.146 0l127.139 127.093-303.405-.018z" fill="#1A1B36"/><path d="M176.002 232.435l127.12-127.075c13.571-13.567 35.575-13.567 49.146 0l127.139 127.093-303.405-.018z" fill="url(#paint1_linear)"/></g></g><defs><linearGradient id="paint0_linear" x1="232.654" y1="304.157" x2="315.216" y2="7.341" gradientUnits="userSpaceOnUse"><stop stop-color="#290A59"/><stop offset="1" stop-color="#3D57F4"/></linearGradient><linearGradient id="paint1_linear" x1="395.471" y1="275.571" x2="442.375" y2="97.847" gradientUnits="userSpaceOnUse"><stop stop-color="#3C0F73"/><stop offset="1" stop-color="#BC2280"/></linearGradient></defs></svg>