<svg width="1920" height="809" viewBox="0 0 1920 809" fill="none" xmlns="http://www.w3.org/2000/svg"><g opacity=".58" filter="url(#filter0_f)"><path d="M1899.5 752.5c-137.69 130.777-362.97 225.342-940.734 183.671C381 894.5-2 953.982-2 681c0-272.982 922-429.501 922-429.501C2031 227 2037.19 621.722 1899.5 752.5z" fill="#030207"/></g><g filter="url(#filter1_f)"><path d="M405.239 463.122c0 .365.448.661 1.001.661.553 0 1.001-.296 1.001-.661 0-.365-.448-.661-1.001-.661-.553 0-1.001.296-1.001.661z" fill="#fff"/></g><g opacity=".91" filter="url(#filter2_f)"><path d="M513.352 449.242c0 .365.448.661 1.001.661.553 0 1.001-.296 1.001-.661 0-.365-.448-.661-1.001-.661-.553 0-1.001.296-1.001.661z" fill="#fff"/></g><g filter="url(#filter3_f)"><path d="M537.377 423.465c0 .365.448.661 1.001.661.553 0 1.001-.296 1.001-.661 0-.365-.448-.661-1.001-.661-.553 0-1.001.296-1.001.661z" fill="#fff"/></g><g filter="url(#filter4_f)"><path d="M329.16 369.928c0 .365.448.661 1.001.661.553 0 1.001-.296 1.001-.661 0-.365-.448-.661-1.001-.661-.553 0-1.001.296-1.001.661z" fill="#fff"/></g><g filter="url(#filter5_f)"><path d="M713.559 447.92c0 .365.448.661 1.001.661.553 0 1.001-.296 1.001-.661 0-.365-.448-.661-1.001-.661-.553 0-1.001.296-1.001.661z" fill="#fff"/></g><g opacity=".72" filter="url(#filter6_f)"><path d="M762.609 357.369c0 .365.448.661 1.001.661.553 0 1.001-.296 1.001-.661 0-.365-.448-.661-1.001-.661-.553 0-1.001.296-1.001.661z" fill="#fff"/></g><g filter="url(#filter7_f)"><path d="M705.55 324.322c0 .365.448.661 1.001.661.553 0 1.001-.296 1.001-.661 0-.365-.448-.661-1.001-.661-.553 0-1.001.296-1.001.661z" fill="#fff"/></g><g opacity=".9" filter="url(#filter8_f)"><path d="M539 275.322c0 .73.896 1.322 2.002 1.322 1.106 0 2.002-.592 2.002-1.322 0-.73-.896-1.322-2.002-1.322-1.106 0-2.002.592-2.002 1.322z" fill="#fff"/></g><g opacity=".9" filter="url(#filter9_f)"><path d="M418 147.322c0 .73.896 1.322 2.002 1.322 1.106 0 2.002-.592 2.002-1.322 0-.73-.896-1.322-2.002-1.322-1.106 0-2.002.592-2.002 1.322z" fill="#fff"/></g><g opacity=".9" filter="url(#filter10_f)"><path d="M174 587.711c0 .548.672.992 1.501.992.83 0 1.502-.444 1.502-.992 0-.547-.672-.991-1.502-.991-.829 0-1.501.444-1.501.991z" fill="#fff"/></g><g filter="url(#filter11_f)"><path d="M449.285 669.669c0 .913 1.12 1.653 2.502 1.653 1.383 0 2.503-.74 2.503-1.653 0-.912-1.12-1.652-2.503-1.652-1.382 0-2.502.74-2.502 1.652z" fill="#fff"/></g><g opacity=".92" filter="url(#filter12_f)"><path d="M1316.18 667.025c0 .548.68.992 1.5.992.83 0 1.51-.444 1.51-.992 0-.547-.68-.991-1.51-.991-.82 0-1.5.444-1.5.991z" fill="#fff"/></g><g filter="url(#filter13_f)"><path d="M1132.99 728.824c0 .73.9 1.322 2.01 1.322 1.1 0 2-.592 2-1.322 0-.73-.9-1.322-2-1.322-1.11 0-2.01.592-2.01 1.322z" fill="#fff"/></g><g opacity=".78" filter="url(#filter14_f)"><path d="M1375.24 545.741c0 .365.45.661 1 .661.56 0 1.01-.296 1.01-.661 0-.365-.45-.661-1.01-.661-.55 0-1 .296-1 .661z" fill="#fff"/></g><g opacity=".78" filter="url(#filter15_f)"><path d="M1718.6 428.091c0 .365.45.661 1 .661s1-.296 1-.661c0-.365-.45-.661-1-.661s-1 .296-1 .661z" fill="#fff"/></g><g opacity=".65" filter="url(#filter16_f)"><path d="M1421.29 428.753c0 .365.45.66 1 .66.56 0 1-.295 1-.66 0-.366-.44-.661-1-.661-.55 0-1 .295-1 .661z" fill="#fff"/></g><g opacity=".42" filter="url(#filter17_f)"><path d="M1303.17 408.924c0 .365.45.661 1 .661s1-.296 1-.661c0-.365-.45-.661-1-.661s-1 .296-1 .661z" fill="#fff"/></g><g opacity=".68" filter="url(#filter18_f)"><path d="M1535.41 323.661c0 .365.45.661 1 .661s1-.296 1-.661c0-.365-.45-.661-1-.661s-1 .296-1 .661z" fill="#fff"/></g><g opacity=".68" filter="url(#filter19_f)"><path d="M1331 203.991c0 .548.67.992 1.5.992s1.5-.444 1.5-.992c0-.547-.67-.991-1.5-.991s-1.5.444-1.5.991z" fill="#fff"/></g><g opacity=".33" filter="url(#filter20_f)"><path d="M661.505 635.3c0 .547.673.991 1.502.991s1.501-.444 1.501-.991c0-.548-.672-.992-1.501-.992-.829 0-1.502.444-1.502.992z" fill="#fff"/></g><defs><filter id="filter0_f" x="-252" y=".408" width="2462.84" height="1195.71" filterUnits="userSpaceOnUse" color-interpolation-filters="sRGB"><feFlood flood-opacity="0" result="BackgroundImageFix"/><feBlend in="SourceGraphic" in2="BackgroundImageFix" result="shape"/><feGaussianBlur stdDeviation="125" result="effect1_foregroundBlur"/></filter><filter id="filter1_f" x="404.239" y="461.461" width="4.002" height="3.322" filterUnits="userSpaceOnUse" color-interpolation-filters="sRGB"><feFlood flood-opacity="0" result="BackgroundImageFix"/><feBlend in="SourceGraphic" in2="BackgroundImageFix" result="shape"/><feGaussianBlur stdDeviation=".5" result="effect1_foregroundBlur"/></filter><filter id="filter2_f" x="512.352" y="447.581" width="4.002" height="3.322" filterUnits="userSpaceOnUse" color-interpolation-filters="sRGB"><feFlood flood-opacity="0" result="BackgroundImageFix"/><feBlend in="SourceGraphic" in2="BackgroundImageFix" result="shape"/><feGaussianBlur stdDeviation=".5" result="effect1_foregroundBlur"/></filter><filter id="filter3_f" x="536.377" y="421.804" width="4.002" height="3.322" filterUnits="userSpaceOnUse" color-interpolation-filters="sRGB"><feFlood flood-opacity="0" result="BackgroundImageFix"/><feBlend in="SourceGraphic" in2="BackgroundImageFix" result="shape"/><feGaussianBlur stdDeviation=".5" result="effect1_foregroundBlur"/></filter><filter id="filter4_f" x="328.16" y="368.267" width="4.002" height="3.322" filterUnits="userSpaceOnUse" color-interpolation-filters="sRGB"><feFlood flood-opacity="0" result="BackgroundImageFix"/><feBlend in="SourceGraphic" in2="BackgroundImageFix" result="shape"/><feGaussianBlur stdDeviation=".5" result="effect1_foregroundBlur"/></filter><filter id="filter5_f" x="712.559" y="446.259" width="4.002" height="3.322" filterUnits="userSpaceOnUse" color-interpolation-filters="sRGB"><feFlood flood-opacity="0" result="BackgroundImageFix"/><feBlend in="SourceGraphic" in2="BackgroundImageFix" result="shape"/><feGaussianBlur stdDeviation=".5" result="effect1_foregroundBlur"/></filter><filter id="filter6_f" x="761.609" y="355.708" width="4.002" height="3.322" filterUnits="userSpaceOnUse" color-interpolation-filters="sRGB"><feFlood flood-opacity="0" result="BackgroundImageFix"/><feBlend in="SourceGraphic" in2="BackgroundImageFix" result="shape"/><feGaussianBlur stdDeviation=".5" result="effect1_foregroundBlur"/></filter><filter id="filter7_f" x="704.55" y="322.661" width="4.002" height="3.322" filterUnits="userSpaceOnUse" color-interpolation-filters="sRGB"><feFlood flood-opacity="0" result="BackgroundImageFix"/><feBlend in="SourceGraphic" in2="BackgroundImageFix" result="shape"/><feGaussianBlur stdDeviation=".5" result="effect1_foregroundBlur"/></filter><filter id="filter8_f" x="538" y="273" width="6.004" height="4.644" filterUnits="userSpaceOnUse" color-interpolation-filters="sRGB"><feFlood flood-opacity="0" result="BackgroundImageFix"/><feBlend in="SourceGraphic" in2="BackgroundImageFix" result="shape"/><feGaussianBlur stdDeviation=".5" result="effect1_foregroundBlur"/></filter><filter id="filter9_f" x="417" y="145" width="6.004" height="4.644" filterUnits="userSpaceOnUse" color-interpolation-filters="sRGB"><feFlood flood-opacity="0" result="BackgroundImageFix"/><feBlend in="SourceGraphic" in2="BackgroundImageFix" result="shape"/><feGaussianBlur stdDeviation=".5" result="effect1_foregroundBlur"/></filter><filter id="filter10_f" x="173" y="585.72" width="5.003" height="3.983" filterUnits="userSpaceOnUse" color-interpolation-filters="sRGB"><feFlood flood-opacity="0" result="BackgroundImageFix"/><feBlend in="SourceGraphic" in2="BackgroundImageFix" result="shape"/><feGaussianBlur stdDeviation=".5" result="effect1_foregroundBlur"/></filter><filter id="filter11_f" x="448.285" y="667.017" width="7.005" height="5.305" filterUnits="userSpaceOnUse" color-interpolation-filters="sRGB"><feFlood flood-opacity="0" result="BackgroundImageFix"/><feBlend in="SourceGraphic" in2="BackgroundImageFix" result="shape"/><feGaussianBlur stdDeviation=".5" result="effect1_foregroundBlur"/></filter><filter id="filter12_f" x="1315.18" y="665.034" width="5.003" height="3.983" filterUnits="userSpaceOnUse" color-interpolation-filters="sRGB"><feFlood flood-opacity="0" result="BackgroundImageFix"/><feBlend in="SourceGraphic" in2="BackgroundImageFix" result="shape"/><feGaussianBlur stdDeviation=".5" result="effect1_foregroundBlur"/></filter><filter id="filter13_f" x="1131.99" y="726.502" width="6.004" height="4.644" filterUnits="userSpaceOnUse" color-interpolation-filters="sRGB"><feFlood flood-opacity="0" result="BackgroundImageFix"/><feBlend in="SourceGraphic" in2="BackgroundImageFix" result="shape"/><feGaussianBlur stdDeviation=".5" result="effect1_foregroundBlur"/></filter><filter id="filter14_f" x="1374.24" y="544.08" width="4.002" height="3.322" filterUnits="userSpaceOnUse" color-interpolation-filters="sRGB"><feFlood flood-opacity="0" result="BackgroundImageFix"/><feBlend in="SourceGraphic" in2="BackgroundImageFix" result="shape"/><feGaussianBlur stdDeviation=".5" result="effect1_foregroundBlur"/></filter><filter id="filter15_f" x="1717.6" y="426.43" width="4.002" height="3.322" filterUnits="userSpaceOnUse" color-interpolation-filters="sRGB"><feFlood flood-opacity="0" result="BackgroundImageFix"/><feBlend in="SourceGraphic" in2="BackgroundImageFix" result="shape"/><feGaussianBlur stdDeviation=".5" result="effect1_foregroundBlur"/></filter><filter id="filter16_f" x="1420.29" y="427.092" width="4.002" height="3.322" filterUnits="userSpaceOnUse" color-interpolation-filters="sRGB"><feFlood flood-opacity="0" result="BackgroundImageFix"/><feBlend in="SourceGraphic" in2="BackgroundImageFix" result="shape"/><feGaussianBlur stdDeviation=".5" result="effect1_foregroundBlur"/></filter><filter id="filter17_f" x="1302.17" y="407.263" width="4.002" height="3.322" filterUnits="userSpaceOnUse" color-interpolation-filters="sRGB"><feFlood flood-opacity="0" result="BackgroundImageFix"/><feBlend in="SourceGraphic" in2="BackgroundImageFix" result="shape"/><feGaussianBlur stdDeviation=".5" result="effect1_foregroundBlur"/></filter><filter id="filter18_f" x="1534.41" y="322" width="4.002" height="3.322" filterUnits="userSpaceOnUse" color-interpolation-filters="sRGB"><feFlood flood-opacity="0" result="BackgroundImageFix"/><feBlend in="SourceGraphic" in2="BackgroundImageFix" result="shape"/><feGaussianBlur stdDeviation=".5" result="effect1_foregroundBlur"/></filter><filter id="filter19_f" x="1330" y="202" width="5.003" height="3.983" filterUnits="userSpaceOnUse" color-interpolation-filters="sRGB"><feFlood flood-opacity="0" result="BackgroundImageFix"/><feBlend in="SourceGraphic" in2="BackgroundImageFix" result="shape"/><feGaussianBlur stdDeviation=".5" result="effect1_foregroundBlur"/></filter><filter id="filter20_f" x="660.505" y="633.308" width="5.003" height="3.983" filterUnits="userSpaceOnUse" color-interpolation-filters="sRGB"><feFlood flood-opacity="0" result="BackgroundImageFix"/><feBlend in="SourceGraphic" in2="BackgroundImageFix" result="shape"/><feGaussianBlur stdDeviation=".5" result="effect1_foregroundBlur"/></filter></defs></svg>