<svg width="25" height="24" viewBox="0 0 25 24" fill="none" xmlns="http://www.w3.org/2000/svg"><g clip-path="url(#clip0)" fill="#fff"><path d="M12.137 0C5.507 0 .112 5.384.112 12s5.395 12 12.025 12c6.63 0 12.025-5.384 12.025-12S18.768 0 12.137 0zm0 22.5c-5.8 0-10.521-4.71-10.521-10.5S6.336 1.5 12.137 1.5C17.938 1.5 22.66 6.21 22.66 12s-4.72 10.5-10.522 10.5z"/><path d="M15.547 14.652c-.723.722-1.72 1.071-2.713 1.058l1.582-7.108c.415.176.803.419 1.13.746a.753.753 0 001.063 0 .75.75 0 000-1.06 5.02 5.02 0 00-1.865-1.157l.383-1.719a.75.75 0 00-.571-.895.754.754 0 00-.897.57l-.39 1.749c-1.488-.102-3.015.369-4.098 1.453A5.197 5.197 0 007.628 12a5.21 5.21 0 003.399 4.901l-.376 1.688a.75.75 0 00.735.911.752.752 0 00.734-.587l.378-1.701c.13.01.259.038.391.038a5.23 5.23 0 003.72-1.537.75.75 0 10-1.062-1.06zm-4.185.745a3.534 3.534 0 01-1.13-.745A3.728 3.728 0 019.132 12c0-1 .39-1.943 1.1-2.652.722-.722 1.719-1.071 2.712-1.058l-1.582 7.107z"/></g><defs><clipPath id="clip0"><path fill="#fff" transform="translate(.112)" d="M0 0h24.05v24H0z"/></clipPath></defs></svg>