<svg width="39" height="24" viewBox="0 0 39 24" fill="none" xmlns="http://www.w3.org/2000/svg"><g clip-path="url(#clip0)"><path d="M33.13 10.56a4.335 4.335 0 001.814-3.53c0-2.386-1.903-4.315-4.256-4.315s-4.256 1.93-4.256 4.315c0 1.459.716 2.752 1.815 3.53a7.351 7.351 0 00-2.516 1.496 9.503 9.503 0 00-3.452-1.907 5.495 5.495 0 002.604-4.682C24.883 2.446 22.471 0 19.491 0 16.511 0 14.1 2.453 14.1 5.467a5.479 5.479 0 002.603 4.682 9.581 9.581 0 00-3.415 1.885 7.411 7.411 0 00-2.485-1.466 4.335 4.335 0 001.814-3.53c0-2.386-1.903-4.316-4.256-4.316s-4.256 1.93-4.256 4.316c0 1.458.716 2.752 1.815 3.53C2.992 11.592.89 14.412.89 17.725v.494c0 .015.014.03.029.03h9.02c-.051.411-.08.837-.08 1.264v.508c0 2.199 1.755 3.979 3.924 3.979h11.432c2.169 0 3.924-1.78 3.924-3.979v-.508c0-.427-.03-.853-.081-1.264h9.08c.014 0 .029-.015.029-.03v-.494c-.015-3.32-2.11-6.14-5.038-7.165zm-5.518-3.537c0-1.72 1.38-3.119 3.076-3.119 1.696 0 3.076 1.399 3.076 3.119 0 1.697-1.35 3.081-3.017 3.119h-.118c-1.674-.03-3.017-1.414-3.017-3.12zM15.265 5.467c0-2.356 1.888-4.27 4.212-4.27 2.323 0 4.211 1.914 4.211 4.27 0 2.274-1.763 4.136-3.968 4.263h-.487c-2.205-.127-3.968-1.99-3.968-4.263zM5.263 7.023c0-1.72 1.38-3.119 3.076-3.119 1.697 0 3.076 1.399 3.076 3.119 0 1.697-1.35 3.081-3.017 3.119H8.28c-1.667-.03-3.017-1.414-3.017-3.12zm4.883 10.022H2.084c.332-3.187 2.988-5.685 6.21-5.707h.089a6.187 6.187 0 014.02 1.518 9.862 9.862 0 00-2.257 4.189zm17.798 2.976c0 1.533-1.232 2.782-2.744 2.782H13.768c-1.512 0-2.744-1.249-2.744-2.782v-.508c0-4.645 3.658-8.444 8.21-8.579.08.008.169.008.25.008.081 0 .17 0 .25-.008 4.552.135 8.21 3.934 8.21 8.579v.508zm.878-2.976a9.834 9.834 0 00-2.235-4.159 6.217 6.217 0 014.057-1.548h.088c3.223.023 5.879 2.52 6.21 5.707h-8.12z" fill="#fff"/></g><defs><clipPath id="clip0"><path fill="#fff" transform="translate(.89)" d="M0 0h37.278v24H0z"/></clipPath></defs></svg>