<svg width="25" height="21" viewBox="0 0 25 21" fill="none" xmlns="http://www.w3.org/2000/svg"><path d="M21.52 2.658l-2.896 1.473-13.983 7.107a8.42 8.42 0 01-.072-1.085c.006-4.592 3.74-8.308 8.342-8.302a8.352 8.352 0 014.05 1.055l1.658-.843.247-.126C14.318-1.357 7.956-.348 4.655 4.191a10.14 10.14 0 00-1.911 6.738 1.846 1.846 0 01-1.005 1.785l-.874.445v2.074l2.573-1.309.833-.424.821-.418 14.742-7.495 1.657-.842 3.424-1.741V.93L21.52 2.658zm3.395 2.421L5.93 14.725l-1.657.844-3.408 1.733v2.073l3.385-1.721 2.896-1.473 13.998-7.118c.048.363.07.727.07 1.093-.002 4.592-3.734 8.311-8.335 8.308a8.348 8.348 0 01-4.069-1.062l-.101.054-1.797.914c4.547 3.294 10.91 2.286 14.211-2.252a10.144 10.144 0 001.912-6.742 1.849 1.849 0 011.005-1.785l.875-.445V5.08z" fill="#fff"/></svg>