<svg width="48" height="48" viewBox="0 0 48 48" fill="none" xmlns="http://www.w3.org/2000/svg"><path d="M46.5 23.25h-6.44l6.97-6.97a.75.75 0 000-1.06L32.78.97a.75.75 0 00-1.06 0L9.44 23.25H1.5a.75.75 0 00-.75.75v19.5c0 .414.335.75.75.75h10.94l2.78 2.78a.748.748 0 001.06 0l2.781-2.78H46.5a.75.75 0 00.75-.75V24a.75.75 0 00-.75-.75zM32.25 2.56l13.19 13.19-7.5 7.5h-5.727a8.185 8.185 0 00-2.38-5.084c-3.215-3.216-8.45-3.216-11.667 0a8.192 8.192 0 00-2.38 5.084H11.56L32.25 2.56zM20.42 23.25a1.501 1.501 0 01.398-1.371l1.371 1.37H20.42zm8.091 0A3.004 3.004 0 0024 22.94l-2.122-2.122c.567-.566 1.554-.566 2.121 0l1.06-1.06a2.982 2.982 0 00-2.12-.878 2.98 2.98 0 00-2.121.878h-.001l-.53-.53-1.06 1.06.53.531a2.976 2.976 0 00-.858 2.432h-1.605a6.702 6.702 0 011.931-4.023 6.76 6.76 0 019.547 0 6.698 6.698 0 011.932 4.023h-2.193v-.001zM15.75 45.44l-1.19-1.19h2.38l-1.19 1.19zm30-2.69H2.25v-18h43.5v18z" fill="#3D57F4"/><path d="M21.75 36h-1.5c0 1.654 1.346 3 3 3v.75h1.5V39c1.654 0 3-1.346 3-3s-1.346-3-3-3v-3c.827 0 1.5.673 1.5 1.5h1.5c0-1.654-1.346-3-3-3v-.75h-1.5v.75c-1.654 0-3 1.346-3 3s1.346 3 3 3v3c-.827 0-1.5-.673-1.5-1.5zm0-4.5c0-.827.673-1.5 1.5-1.5v3c-.827 0-1.5-.673-1.5-1.5zm3 3c.827 0 1.5.673 1.5 1.5s-.673 1.5-1.5 1.5v-3z" fill="#3D57F4"/><path d="M24 42c4.549 0 8.25-3.701 8.25-8.25 0-4.549-3.701-8.25-8.25-8.25-4.549 0-8.25 3.701-8.25 8.25 0 4.549 3.701 8.25 8.25 8.25zm0-15a6.758 6.758 0 016.75 6.75A6.758 6.758 0 0124 40.5a6.758 6.758 0 01-6.75-6.75A6.758 6.758 0 0124 27zm20.25 13.5V27a.75.75 0 00-.75-.75h-9v1.5h8.25v12H34.5v1.5h9a.75.75 0 00.75-.75zm-39.75.75h9v-1.5H5.25v-12h8.25v-1.5h-9a.75.75 0 00-.75.75v13.5c0 .414.335.75.75.75zM32.454 7.06l8.485 8.486-5.834 5.834 1.06 1.06 6.364-6.364a.75.75 0 000-1.06L32.984 5.47a.772.772 0 00-1.06 0l-6.364 6.364 1.06 1.06 5.834-5.834z" fill="#3D57F4"/></svg>