<svg width="13" height="13" viewBox="0 0 13 13" fill="none" xmlns="http://www.w3.org/2000/svg"><path d="M11.973 7.514a.413.413 0 00-.344.074 4.39 4.39 0 01-1.331.778 4.17 4.17 0 01-1.512.27 4.4 4.4 0 01-3.112-1.287 4.4 4.4 0 01-1.287-3.112c0-.509.09-1.003.24-1.452.164-.478.404-.912.718-1.286a.382.382 0 00-.06-.539.411.411 0 00-.344-.075A6.038 6.038 0 001.77 3.01 5.926 5.926 0 00.542 6.616c0 1.63.658 3.112 1.736 4.19a5.903 5.903 0 004.19 1.735 5.95 5.95 0 003.665-1.272 5.9 5.9 0 002.095-3.277c.075-.224-.045-.433-.255-.478zM9.684 10.64a5.134 5.134 0 01-6.823-.404A5.134 5.134 0 011.351 6.6a5.06 5.06 0 011.061-3.127 5.144 5.144 0 011.721-1.437 4.979 4.979 0 00-.494 2.214 5.17 5.17 0 001.512 3.652 5.17 5.17 0 003.65 1.51c.629 0 1.227-.104 1.78-.313.196-.075.39-.15.57-.24a5.443 5.443 0 01-1.467 1.78z" fill="#fff"/></svg>