<svg width="25" height="24" viewBox="0 0 25 24" fill="none" xmlns="http://www.w3.org/2000/svg"><path d="M.112 2.967v4.066c.777 0 1.41.63 1.41 1.406v1.406h.704c.389 0 .705.316.705.703v8.53a.705.705 0 01-.705.704h-.704v2.812H.112V24h24.05v-1.406h-1.409v-2.812h-.704a.705.705 0 01-.705-.703v-8.53c0-.388.316-.704.704-.704h.705V8.44a1.41 1.41 0 011.41-1.406V2.967L12.136 0 .112 2.967zM4.22 9.845h1.65c-.078.22-.12.457-.12.703v8.53c0 .247.042.483.12.704H4.22a2.1 2.1 0 00.12-.703v-8.53c0-.247-.042-.483-.12-.704zm12.897.703v8.53a.705.705 0 01-.704.704h-3.57v-1.574a2.113 2.113 0 001.41-1.989c0-1.163-.949-2.11-2.115-2.11a.705.705 0 01-.705-.702.705.705 0 011.41 0h1.41c0-.917-.59-1.698-1.41-1.989V9.844h3.57a.706.706 0 01.704.704zm-5.683.871a2.113 2.113 0 00-1.41 1.989c0 1.163.949 2.109 2.115 2.109.388 0 .704.316.704.703a.705.705 0 01-1.409 0h-1.41c0 .917.59 1.698 1.41 1.989v1.574h-3.57a.705.705 0 01-.704-.704v-8.53c0-.388.316-.704.704-.704h3.57v1.574zM2.931 22.594v-1.407h18.413v1.407H2.93zm17.125-2.812h-1.652c.078-.22.122-.457.122-.703v-8.53c0-.247-.043-.483-.122-.704h1.652c-.078.22-.121.457-.121.703v8.53c0 .247.043.483.121.704zm1.288-11.343H2.93c0-.512-.139-.992-.38-1.407h19.172c-.24.415-.38.895-.38 1.407zm1.41-2.812H1.521V4.068l10.615-2.62 10.616 2.62v1.559z" fill="#fff"/><path d="M11.433 2.815h1.41V4.22h-1.41V2.815z" fill="#fff"/></svg>