<svg width="12" height="13" viewBox="0 0 12 13" fill="none" xmlns="http://www.w3.org/2000/svg"><g clip-path="url(#clip0)" fill="#000"><path d="M7.93 4.633a2.952 2.952 0 00-2.076-.867c-.805 0-1.549.325-2.075.867a2.952 2.952 0 00-.868 2.075c0 .805.341 1.549.868 2.075a2.95 2.95 0 002.075.868c.805 0 1.549-.326 2.075-.868a2.95 2.95 0 00.867-2.075c0-.805-.325-1.549-.867-2.075zm-.558 3.593c-.388.387-.93.62-1.518.62-.589 0-1.13-.233-1.518-.62a2.142 2.142 0 01-.62-1.518c0-.588.233-1.13.62-1.518.387-.387.93-.62 1.518-.62s1.13.233 1.518.62c.387.388.62.93.62 1.518 0 .589-.233 1.13-.62 1.518zm3.934-1.921h-1.193a.41.41 0 00-.402.403.41.41 0 00.402.403h1.193a.41.41 0 00.403-.403.41.41 0 00-.403-.403zm-5.452 4.259a.41.41 0 00-.403.403v1.192a.41.41 0 00.403.403.41.41 0 00.403-.403v-1.192a.41.41 0 00-.403-.403zm4.136-.278l-.852-.852c-.14-.155-.403-.155-.558 0a.393.393 0 000 .557l.852.852a.393.393 0 00.557 0 .393.393 0 000-.557zM5.854.854a.41.41 0 00-.403.403v1.192a.41.41 0 00.403.403.41.41 0 00.403-.403V1.257a.41.41 0 00-.403-.403zm4.151 1.719a.393.393 0 00-.558 0l-.852.852a.393.393 0 000 .557c.14.155.403.155.558 0l.851-.852a.393.393 0 000-.557zm-8.41 3.732H.403A.41.41 0 000 6.708a.4.4 0 00.403.403h1.192a.41.41 0 00.403-.403.41.41 0 00-.403-.403zm1.518 3.129c-.14-.155-.403-.155-.558 0l-.851.852a.393.393 0 000 .557.393.393 0 00.557 0l.852-.852a.393.393 0 000-.557zm0-6.009l-.852-.852a.393.393 0 00-.557 0 .393.393 0 000 .557l.851.852a.393.393 0 00.558 0 .393.393 0 000-.557z"/></g><defs><clipPath id="clip0"><path fill="#fff" transform="translate(0 .854)" d="M0 0h11.708v11.708H0z"/></clipPath></defs></svg>