<svg width="48" height="48" viewBox="0 0 48 48" fill="none" xmlns="http://www.w3.org/2000/svg"><path d="M36.471 22.22a7.785 7.785 0 00.916-11.823 7.362 7.362 0 00-5.31-2.146c-4.084.058-7.401 3.506-7.393 7.687a7.736 7.736 0 003.215 6.283.402.402 0 01.16.33v1.002a2.249 2.249 0 00.375 4.069v.878a2.253 2.253 0 002.25 2.25h3a2.253 2.253 0 002.25-2.25v-.879a2.249 2.249 0 00.375-4.069v-1a.403.403 0 01.162-.332zm-10.287-6.285c-.006-3.363 2.647-6.138 5.915-6.184l.085-.001c1.556 0 3.049.617 4.15 1.716a6.285 6.285 0 01-.734 9.533 1.908 1.908 0 00-.79 1.553v.698h-5.25v-.698A1.904 1.904 0 0028.77 21a6.235 6.235 0 01-2.586-5.065zm7.5 13.315h-3a.75.75 0 01-.75-.75v-.75h4.5v.75a.75.75 0 01-.75.75zm1.5-3h-6a.75.75 0 010-1.5h6a.75.75 0 110 1.5zm-7.27-18.592a.75.75 0 00.684-1.055l-.61-1.37a.75.75 0 00-1.37.61l.61 1.37a.75.75 0 00.686.445zm-5.002 5.829a.75.75 0 00-.482-.945l-1.427-.463a.749.749 0 00-.903 1.054.749.749 0 00.44.372l1.427.464a.748.748 0 00.945-.482zm19.258.518a.749.749 0 00.232-.037l1.427-.463a.75.75 0 10-.464-1.427l-1.426.464a.75.75 0 00.231 1.463zm-5.715-6.347a.75.75 0 00.685-.445l.61-1.37a.75.75 0 00-1.37-.61l-.61 1.37a.75.75 0 00.684 1.055zM44.25 39.75H34.5V39c0-1.126-1.465-1.946-1.915-2.17a.756.756 0 00-.12-.048l-7.34-2.203a56.845 56.845 0 00-4.155-3.313c-3.241-2.333-5.754-3.516-7.47-3.516h-6V27a.75.75 0 00-.75-.75h-4.5a.75.75 0 00-.75.75v16.5a.75.75 0 00.75.75h4.5a.75.75 0 00.75-.75v-.75h2.215c.468.062 4.295.818 7.679 1.486 6.767 1.336 7.723 1.514 7.934 1.514H44.25a2.253 2.253 0 002.25-2.25V42a2.253 2.253 0 00-2.25-2.25zM6 42.75H3v-15h3v15zm39 .75a.75.75 0 01-.75.75H25.363c-.468-.062-4.296-.818-7.678-1.486-6.768-1.336-7.724-1.514-7.935-1.514H7.5v-12h6c2.838 0 8.72 4.733 10.748 6.557a.73.73 0 00.287.161l7.434 2.23c.467.245.96.638 1.03.825V40.5a.751.751 0 01-.688.748l-7.295-1.46-5.144-2.94a.75.75 0 10-.744 1.303l5.25 3c.07.04.146.069.225.085l7.5 1.5c.048.01.098.014.147.014a2.253 2.253 0 002.121-1.5h9.879A.75.75 0 0145 42v1.5z" fill="#3D57F4"/></svg>