<svg width="48" height="48" viewBox="0 0 48 48" fill="none" xmlns="http://www.w3.org/2000/svg"><path d="M42.75 40.5v-6a.75.75 0 00-.54-.72l-17.46-5.093V19.5H30a.75.75 0 00.75-.75v-12a.748.748 0 00-.22-.53l-4.5-4.5a.747.747 0 00-.53-.22H18a.75.75 0 00-.75.75v16.5c0 .414.335.75.75.75h5.25v9.188L5.79 33.78a.75.75 0 00-.54.72v6c0 .333.22.626.54.72l18 5.25a.742.742 0 00.42 0l18-5.25a.75.75 0 00.54-.72zM26.25 4.06L28.19 6h-1.94V4.06zM18.75 3h6v3.75c0 .414.335.75.75.75h3.75V18h-10.5V3zm4.5 27.25v3.94l-1.72-1.72-1.06 1.06 3 3a.748.748 0 001.06 0l3-3-1.06-1.06-1.72 1.72v-3.94l14.572 4.25L24 38.968 8.678 34.5l14.572-4.25zM6.75 35.5l16.5 4.813v4.437l-16.5-4.813V35.5zm18 9.25v-4.438l16.5-4.812v4.438l-16.5 4.812z" fill="#3D57F4"/><path d="M2.25 19.5H7.5a3.754 3.754 0 003.75 3.75h2.25c1.24 0 2.25 1.01 2.25 2.25v1.19l-1.72-1.72-1.06 1.06 3 3a.748.748 0 001.06 0l3-3-1.06-1.06-1.72 1.72V25.5a3.754 3.754 0 00-3.75-3.75h-2.25C10.01 21.75 9 20.74 9 19.5h5.25a.75.75 0 00.75-.75v-12a.748.748 0 00-.22-.53l-4.5-4.5a.747.747 0 00-.53-.22h-7.5a.75.75 0 00-.75.75v16.5c0 .414.335.75.75.75zM10.5 4.06L12.44 6H10.5V4.06zM3 3h6v3.75c0 .414.335.75.75.75h3.75V18H3V3zm43.5 15.75v-12a.748.748 0 00-.219-.53l-4.5-4.5a.747.747 0 00-.53-.22h-7.5a.75.75 0 00-.75.75v16.5c0 .414.335.75.75.75H39c0 1.24-1.01 2.25-2.25 2.25H34.5a3.754 3.754 0 00-3.75 3.75v1.19l-1.72-1.72-1.06 1.06 3 3a.748.748 0 001.06 0l3-3-1.06-1.06-1.72 1.72V25.5c0-1.24 1.01-2.25 2.25-2.25h2.25a3.754 3.754 0 003.75-3.75h5.25a.75.75 0 00.75-.75zM42 4.06L43.94 6H42V4.06zM34.5 18V3h6v3.75c0 .414.336.75.75.75H45V18H34.5z" fill="#3D57F4"/></svg>