<svg width="262" height="81" viewBox="0 0 262 81" fill="none" xmlns="http://www.w3.org/2000/svg"><g clip-path="url(#clip0)"><path d="M74.155 31.624s-.132-10.092-9.573-20.907C55.141-.1 39.438 0 39.438 0S23.735-.132 14.293 10.716c-9.441 10.85-9.572 20.909-9.572 20.909S0 31.493 0 35.996c0 4.307 4.983 4.668 4.983 4.668s.459 5.654 3.245 10.322c2.787 4.669 4.459 6.608 4.459 6.608v15.253S19.277 81 33.47 81c14.195 0 32.783-8.153 32.783-8.153V57.594s1.672-1.94 4.459-6.608c2.786-4.668 3.245-10.322 3.245-10.322s4.983-.361 4.983-4.668c-.033-4.504-4.786-4.372-4.786-4.372zm-2.328 5.95c-.754 8.942-4.163 13.084-12.556 14.201-8.392 1.118-8.523-.723-19.8-.723-11.278 0-11.409 1.841-19.801.723-8.393-1.117-11.802-5.26-12.556-14.2C6.327 28.237 8.49 19.23 17.539 12.59c9.048-6.64 21.964-6.64 21.964-6.64s12.917 0 21.965 6.64c8.982 6.64 11.146 15.68 10.36 24.984z" fill="#69AEDE"/><path d="M25.046 26.332a3.447 3.447 0 01-3.442-3.452h-.689a3.447 3.447 0 01-3.442 3.452v.69a3.447 3.447 0 013.442 3.452h.689a3.447 3.447 0 013.442-3.452v-.69zm28.652 1.775c-2.655 0-4.819-2.17-4.819-4.833h-.95c0 2.663-2.164 4.833-4.82 4.833v.953c2.656 0 4.82 2.17 4.82 4.832h.95c0-2.662 2.164-4.832 4.82-4.832v-.953zM30.127 43.755a3.237 3.237 0 01-3.245-3.255h-.656a3.237 3.237 0 01-3.245 3.255v.657a3.237 3.237 0 013.245 3.254h.656a3.237 3.237 0 013.245-3.254v-.657zM28.849 15.55c-.885 0-1.64-.724-1.64-1.645h-.327c0 .888-.721 1.644-1.64 1.644v.329c.886 0 1.64.723 1.64 1.644h.328c0-.888.72-1.644 1.639-1.644v-.329zm31.734 23.175c-.886 0-1.64-.723-1.64-1.644h-.327c0 .888-.721 1.644-1.64 1.644v.329c.886 0 1.64.723 1.64 1.643h.328c0-.887.72-1.643 1.639-1.643v-.33zM38.126 33.3a2.41 2.41 0 01-2.393-2.399h-.491a2.41 2.41 0 01-2.394 2.4v.493a2.41 2.41 0 012.394 2.4h.491a2.41 2.41 0 012.393-2.4V33.3zm14.13-17.817a2.41 2.41 0 01-2.393-2.4h-.492a2.41 2.41 0 01-2.393 2.4v.493a2.41 2.41 0 012.393 2.4h.492a2.41 2.41 0 012.393-2.4v-.493z" fill="#69AEDE"/><path d="M89.989 47.962H88.12a.729.729 0 01-.72-.723v-11.9c0-.395.327-.723.72-.723h1.869c.393 0 .721.328.721.723v11.9c-.032.427-.36.723-.721.723zm17.309-10.158h-7.671a1.94 1.94 0 00-1.934 1.94v8.218h-3.41v-9.007a4.105 4.105 0 014.098-4.11h10.065a4.104 4.104 0 014.097 4.11v9.007h-3.376l.065-8.218a1.94 1.94 0 00-1.934-1.94zm47.207-.065c-.557 0-.983.032-1.311.131a2.359 2.359 0 00-.852.46 2.062 2.062 0 00-.525.888c-.098.329-.164.789-.164 1.348v7.396h-3.278v-7.79c0-1.217.197-2.203.557-2.927a3.775 3.775 0 011.607-1.676 6.124 6.124 0 011.737-.658c.623-.131 1.475-.164 2.524-.164h6.557v2.992h-6.852z" fill="#404040"/><path d="M255.214 37.739c-.557 0-.983.032-1.311.131a2.372 2.372 0 00-.853.46 2.06 2.06 0 00-.524.888c-.099.329-.164.789-.164 1.348v7.396h-3.278v-7.79c0-1.217.196-2.203.557-2.927a3.778 3.778 0 011.606-1.676 6.142 6.142 0 011.738-.658c.623-.131 1.475-.164 2.524-.164h6.557v2.992h-6.852zm-36.553 10.223h-3.278V29.553h3.278v18.41zm7.114 0h-3.278V29.553h3.278v18.41z" fill="#69AEDE"/><path d="M89.956 33.136h-1.869a.729.729 0 01-.72-.723v-1.84c0-.395.327-.724.72-.724h1.87c.392 0 .72.329.72.723v1.874c0 .395-.328.69-.72.69zm35.045 12.229a9.494 9.494 0 01-1.836-.164c-.492-.132-.918-.329-1.18-.592-.426-.427-.656-1.183-.656-2.202v-5.063h4.655v-2.498h-4.655v-3.65h-3.278v3.65h-2.721v2.465h2.721v5.49c0 .855.098 1.61.328 2.203a3.67 3.67 0 00.983 1.545c.492.493 1.148.854 1.934 1.084.787.23 1.803.362 3.016.362h1.869v-2.63h-1.18z" fill="#404040"/><path d="M192.074 45.365a9.475 9.475 0 01-1.835-.164c-.492-.132-.918-.329-1.181-.592-.426-.427-.655-1.183-.655-2.202v-5.063h4.655v-2.498h-4.655v-3.65h-3.279v3.65h-2.721v2.465h2.721v5.49c0 .855.099 1.61.328 2.203.197.591.525 1.117.984 1.545.491.493 1.147.854 1.934 1.084.787.23 1.803.362 3.016.362h1.869v-2.63h-1.181z" fill="#69AEDE"/><path d="M145.162 41.42v-2.53a4.14 4.14 0 00-4.13-4.143h-8.557c-2.294 0-4.13 1.874-4.13 4.142v4.931a4.14 4.14 0 004.13 4.142h12.294V45.07h-11.245a1.905 1.905 0 01-1.901-1.906v-.625h12.457c.591 0 1.082-.493 1.082-1.118zm-11.605-4.043h6.557c1.049 0 1.901.855 1.901 1.907v.92h-10.392v-.92c0-1.02.852-1.907 1.934-1.907z" fill="#404040"/><path d="M212.006 41.42v-2.53a4.14 4.14 0 00-4.13-4.143h-8.557c-2.294 0-4.13 1.874-4.13 4.142v4.931a4.14 4.14 0 004.13 4.142h12.294V45.07h-11.245a1.905 1.905 0 01-1.901-1.906v-.625h12.457c.591 0 1.082-.493 1.082-1.118zm-11.605-4.043h6.557c1.049 0 1.901.855 1.901 1.907v.92h-10.392v-.92c.033-1.02.885-1.907 1.934-1.907zm-21.079-2.63h-12.753a2.928 2.928 0 00-2.917 2.926v1.742a2.928 2.928 0 002.917 2.926h9.278c.557 0 .983.427.983.986v.855a.967.967 0 01-.983.986h-12.195v2.794h13.408a2.929 2.929 0 002.918-2.926v-2.104a2.929 2.929 0 00-2.918-2.925h-9.474a.967.967 0 01-.984-.986v-.757c0-.558.426-.986.984-.986h11.736v-2.53zm62.648 0h-12.818v2.597h12.293c.656 0 1.18.526 1.18 1.184v1.742h-10.851a2.858 2.858 0 00-2.852 2.86v1.972a2.858 2.858 0 002.852 2.86h12.359a1.61 1.61 0 001.607-1.61v-7.857a3.748 3.748 0 00-3.77-3.748zm.492 10.815h-9.049a1.422 1.422 0 01-1.409-1.413v-.559c0-.756.623-1.414 1.409-1.414h9.016v3.386h.033z" fill="#69AEDE"/></g><defs><clipPath id="clip0"><path fill="#fff" d="M0 0h262v81H0z"/></clipPath></defs></svg>