<svg xmlns="http://www.w3.org/2000/svg" viewBox="0 0 327.6 560.84"><g id="Слой_2" data-name="Слой 2"><g id="Слой_1-2" data-name="Слой 1"><path d="M0 268.68C0 160 77.28 83 184.93 83c62.75 0 114.93 26.81 142.67 77.7L279.38 193c-22.45-35.76-56.8-52.26-95.11-52.26-68.69 0-120.2 50.2-120.2 127.9 0 79.08 51.51 128.59 120.2 128.59 38.31 0 72.66-16.51 95.11-52.26l48.22 31.63c-27.74 50.92-79.92 78.4-142.67 78.4C77.28 455 0 377.33 0 268.68z"/><path transform="rotate(12.06 185.6 280.39)" d="M160.25-.92h50.67v562.67h-50.67z"/></g></g></svg>