<svg width="131" height="33" viewBox="0 0 131 33" fill="none" xmlns="http://www.w3.org/2000/svg"><path d="M14.51 9.897c-1.092 5.006-2.12 9.724-3.178 14.583 1.563-.012 2.849-.375 4.02-1.152.39-.259.747-.573 1.116-.862.885-.696 2.032-.726 2.648-.07.702.748.642 1.825-.277 2.718-1.659 1.613-3.631 2.635-5.922 2.971-.364.053-.739.098-1.1.06-1.021-.111-1.527.27-1.59 1.365-.041.7-.274 1.397-.47 2.078-.307 1.056-1.144 1.572-2.141 1.368-.923-.187-1.455-.993-1.298-2.072.12-.837.293-1.671.491-2.495.163-.671-.034-1.06-.658-1.366a10.607 10.607 0 01-4.42-4.027c-4.364-7.09-.138-16.918 8.87-17.224.995-.034 1.33-.377 1.457-1.29.112-.802.327-1.597.57-2.372.317-1 1.175-1.486 2.102-1.268.897.21 1.417.967 1.282 2.01-.1.771-.263 1.544-.485 2.288-.265.883-.106 1.399.798 1.821.895.416 1.72 1.046 2.47 1.705.971.854 1.015 1.837.273 2.67-.686.771-1.607.751-2.582-.018-.57-.448-1.176-.848-1.976-1.42zM7.883 23.78l3.136-14.35c-2.679-.69-6.232 1.926-7.22 5.182-1.097 3.628.781 7.987 4.084 9.168zm36.329-5.696H27.386c-.166 2.332 1.471 4.744 3.89 5.854 3.032 1.388 6.128.516 9.033-2.604.482.383.975.773 1.467 1.166.465.375.929.755 1.436 1.166-1.332 1.854-2.975 3.132-5.035 3.81-2.547.837-5.129.895-7.7.122-4.565-1.37-7.334-5.222-7.51-10.397-.284-8.246 7.184-13.847 14.842-11.074 3.592 1.301 5.442 4.135 6.082 7.832.226 1.29.212 2.626.32 4.125zm-4.533-3.25c.273-3.342-2.118-5.862-5.58-5.938-3.65-.08-6.817 2.704-6.709 5.938h12.29zm65.502 9.369c-1.852 2.728-4.24 3.976-7.273 3.915-4.053-.082-6.878-2.614-7.41-6.719-.16-1.24-.172-2.504-.18-3.758-.022-3.798-.008-7.599-.008-11.483h4.241c0 .395-.004.789 0 1.182.038 4.142-.004 8.287.149 12.424.096 2.628 1.458 4.272 3.45 4.655 2.539.487 4.918-.544 5.945-2.881.542-1.23.811-2.665.857-4.019.118-3.393.04-6.792.04-10.189V6.15h4.25v21.32h-3.827l-.234-3.267zM68.71 27.49h-4.134v-1.073c0-3.499.016-6.998-.012-10.497a18.169 18.169 0 00-.245-2.836c-.287-1.698-1.045-3.138-2.762-3.69-1.89-.606-3.722-.396-5.265.997-1.645 1.484-2.157 3.464-2.173 5.605-.022 3.431-.006 6.863-.006 10.293v1.17H49.91V6.146h3.782l.236 3.182c.163-.112.283-.155.338-.238 2.19-3.385 5.868-4.164 9.074-3.291 3.082.838 5.126 3.325 5.311 7.22.233 4.771.058 9.563.058 14.47zm45.343-3.246l2.803-2.433c.931.726 1.713 1.478 2.62 2.015 1.74 1.027 3.617 1.143 5.503.413 1.122-.434 1.79-1.26 1.834-2.538.044-1.272-.616-2.066-1.711-2.473-1.282-.478-2.6-.86-3.905-1.275-.732-.232-1.484-.405-2.202-.677-1.965-.742-3.453-1.99-3.774-4.216-.346-2.398.367-4.44 2.311-5.936 3.437-2.644 9.857-2.024 12.744 1.218.177.197.327.42.544.7l-2.895 2.45c-1.477-2.015-3.417-2.859-5.799-2.529-.644.09-1.322.3-1.874.64-1.661 1.024-1.585 3.253.167 4.089 1.075.514 2.265.789 3.407 1.158 1.143.369 2.333.626 3.429 1.105 2.161.944 3.673 2.461 3.742 5.047.074 2.789-1.034 4.985-3.556 6.076-4.245 1.837-8.346 1.388-12.114-1.427-.321-.24-.59-.553-.867-.845-.134-.142-.233-.318-.407-.562zM76.436 9.563h-3.999V6.097h3.957V0h4.169v6.046h5.602v3.537H80.68c-.038.284-.088.475-.088.667-.004 3.534-.036 7.07.01 10.603.036 2.763 1.29 3.784 3.993 3.362.455-.071.904-.2 1.522-.338 0 1.031.037 1.98-.026 2.921-.016.245-.303.614-.531.68-1.8.503-3.624.638-5.436.06-2.361-.754-3.651-2.795-3.681-5.92-.034-3.601-.008-7.204-.01-10.807.002-.367.002-.732.002-1.248z" fill="#3D57F4"/></svg>