<svg version="1.1" id="Слой_1" xmlns="http://www.w3.org/2000/svg" xmlns:xlink="http://www.w3.org/1999/xlink" x="0" y="0" viewBox="0 0 2500 1000" xml:space="preserve"><path d="M121.41 535.26c0-108.65 77.28-185.66 184.93-185.66 62.75 0 114.92 26.82 142.66 77.7l-48.21 32.32c-22.46-35.76-56.8-52.26-95.11-52.26-68.69 0-120.21 50.2-120.21 127.9 0 79.08 51.52 128.59 120.21 128.59 38.31 0 72.65-16.5 95.11-52.26L449 643.22c-27.74 50.88-79.92 78.39-142.66 78.39-107.65 0-184.93-77.7-184.93-186.35zm719.27 22.01h-284c7.93 63.95 57.46 106.58 126.81 106.58 40.95 0 75.29-14.44 101.05-44.01l35.01 42.63c-31.7 38.51-79.92 59.14-138.04 59.14-112.94 0-188.24-77.7-188.24-186.35 0-107.96 74.63-185.66 175.69-185.66S842 425.24 842 537.32c0 5.51-.66 13.76-1.32 19.95zm-284.01-47.45h224.56c-6.6-61.2-50.86-104.52-112.28-104.52-60.76 0-105.67 42.63-112.28 104.52zm705.39-2.06v209.73h-63.41V515.32c0-71.51-34.34-106.58-94.45-106.58-67.37 0-110.96 41.95-110.96 121.02v187.72h-63.41V353.04h60.76v55.01c25.76-37.13 70.67-58.45 126.15-58.45 85.22 0 145.32 50.88 145.32 158.16zm314.39 188.41c-19.15 17.19-48.21 25.44-76.62 25.44-70.67 0-110.96-40.57-110.96-114.15v-200.1h-59.44v-54.32h59.44v-79.77h63.41v79.77h100.39v54.32h-100.39v197.35c0 39.2 19.81 61.2 54.82 61.2 18.49 0 36.33-6.19 49.54-17.19l19.81 47.45zm402.89-343.13v364.45h-60.1v-55.01c-25.76 37.82-69.35 59.14-118.89 59.14-90.49 0-150.59-51.57-150.59-158.84V353.04h63.41V555.2c0 71.51 34.34 107.27 94.45 107.27 66.05 0 108.32-42.63 108.32-121.02V353.04h63.4zm76.61 325.94l26.42-52.26c29.72 22 77.28 37.82 122.85 37.82 58.78 0 83.22-18.57 83.22-49.51 0-81.83-221.26-11-221.26-156.09 0-65.33 56.14-109.33 145.97-109.33 45.57 0 97.09 12.38 127.47 33.01l-27.08 52.26c-31.7-21.32-66.71-28.88-101.05-28.88-55.48 0-82.56 21.32-82.56 50.2 0 85.95 221.92 15.82 221.92 157.47 0 66.01-58.12 107.96-151.25 107.96-58.13-.02-115.59-18.59-144.65-42.65z"/><path transform="rotate(12.058 307.033 547.07)" d="M281.67 265.67h50.67v562.67h-50.67z"/></svg>