<svg width="499" height="514" viewBox="0 0 499 514" fill="none" xmlns="http://www.w3.org/2000/svg"><g opacity=".8"><path d="M483.046 152.625c-21.725-11.866-54.236 2.899-54.236 2.899s-7.77 3.247-8.581 6.3c-4.523 2.938-7.307 5.566-7.771 6.455-1.623 3.208-8.118 7.691-11.635 10.281-3.132 2.28-7.229 8.89-8.737 11.557l-.193-.039s-21.107-5.334-28.258-7.112c-.464-.116-.967-.116-1.508-.116.039 0 .116-.038.116-.038s-4.407-1.392-45.267 13.296c-22.808 8.194-49.984 15.035-64.016 22.456-14.033 7.382-25.243 17.006-23.542 18.784.811.851 8.62 8.929 17.434 18.05l-1.817.928s-46.002 21.181-46.118 22.301c-.077.658 2.513 8.388 6.495 14.881a267.04 267.04 0 00-4.601 3.672c-.077.077-.154.116-.232.193-13.645 10.977-42.561 35.52-52.302 53.686 0 0-20.141 16.388-45.732 36.216l8.002 16.002c15.27-7.808 58.295-23.268 64.326-31.423 6.262-8.426 37.265-25.433 37.265-25.433s.039.078.077.232c.232 1.082.541 6.223-10.283 20.794-12.37 16.698-32.742 44.449-35.719 49.242l-11.906 29.916c2.667-2.319 4.252-4.522 4.948-5.605 12.138-4.135 43.992-25.587 52.999-33.317 9.432-8.078 38.154-34.554 49.288-41.782 8.736-5.681 17.318-9.972 24.353-15.808 1.74-.193 3.402-.502 4.91-1.043 8.93-3.092 26.441-17.432 40.319-30.496.232-.232.464-.464.735-.696.425-.386.85-.773 1.237-1.198.927-.889 1.855-1.778 2.744-2.667.271-.27.58-.541.851-.85l2.474-2.474c.309-.309.618-.657.928-.966l2.551-2.667c.077-.116.193-.193.271-.271a112.46 112.46 0 002.242-2.435c.193-.232.386-.463.579-.657a82.904 82.904 0 002.011-2.319c0-.038.038-.038.038-.077 30.423-7.228 66.877-21.026 76.116-25.664 14.535-7.267 33.129-17.123 27.872-23.423l-10.167-29.8s4.948-12.445 3.44-14.996a2.496 2.496 0 00-.386-.503v-.038c-.039-.039-.116-.078-.155-.155-.116-.116-.193-.232-.309-.309-.039-.039-.077-.039-.077-.078-.116-.077-.194-.193-.31-.27l4.6-2.59c4.059-.232 5.838-1.043 8.814-2.203 2.977-1.198 3.789-1.353 9.742-3.749 5.953-2.396 4.291-4.329 4.291-4.329s2.165-.425 5.45-1.778c.735-.309 1.547-.696 2.397-1.082.116-.039.193-.077.309-.155.774-.386 1.585-.85 2.436-1.314.193-.116.386-.232.618-.348.773-.463 1.547-1.005 2.358-1.546.31-.193.619-.386.928-.618a44.782 44.782 0 002.242-1.778c.309-.271.619-.464.967-.734h-.039c.271-.232.541-.426.812-.657 9.316-8.272 15.037-18.669-6.688-30.535z" fill="url(#paint0_linear)"/><path d="M66.132 429.445s-2.127 2.241-4.369 4.87c-2.242 2.628-8.465 6.3-11.094 7.923-2.629 1.623-14.651 10.745-17.202 19.751-2.513 8.967 6.069 10.165 14.883 8.619 8.813-1.546 17.009-9.663 19.405-12.6 2.397-2.938 10.708-9.586 21.532-15.19 10.785-5.605 4.252-13.103 4.252-13.103l-27.407-.27zm80.172 26.668s1.779 4.059 2.281 9.238c.503 5.179 1.237 16.465 1.508 19.75.27 3.286.386 11.364-5.412 19.094-5.799 7.73-8.814 10.784-16.507 7.73-7.692-3.053-7.538-15.963-6.185-22.611 1.353-6.648 2.629-21.528 2.474-23.113-.154-1.546.425-2.551.425-2.551l21.416-7.537z" fill="#160A5B"/><path d="M39.534 276.811s1.624 59.329 15.463 90.83c0 0 9.896 27.751 11.21 60.72 0 0-2.28 5.682.967 10.282 3.247 4.638 23.542 8.851 26.905-6.339 3.363-15.151 2.049-43.56-1.623-55.387-3.673-11.827 1.314-44.449 1.314-44.449s5.567 3.556 12.834 26.979c7.268 23.422 12.641 32.389 15.115 38.844 2.513 6.493 4.793 46.188 3.208 65.591 0 0 16.43 2.319 21.184-5.527 4.755-7.847 6.34-48.507 5.142-61.456-1.199-12.948-6.61-54.497-5.876-67.33.734-12.832 3.44-23.267.464-36.1-2.938-12.832-89.684-41.356-89.684-41.356l-16.623 24.698z" fill="#24126A"/><path opacity=".7" d="M39.534 276.811s1.624 59.329 15.463 90.83c0 0 9.896 27.751 11.21 60.72 0 0-2.28 5.682.967 10.282 3.247 4.638 23.542 8.851 26.905-6.339 3.363-15.151 2.049-43.56-1.623-55.387-3.673-11.827 1.314-44.449 1.314-44.449s5.567 3.556 12.834 26.979c7.268 23.422 12.641 32.389 15.115 38.844 2.513 6.493 4.793 46.188 3.208 65.591 0 0 16.43 2.319 21.184-5.527 4.755-7.847 6.34-48.507 5.142-61.456-1.199-12.948-6.61-54.497-5.876-67.33.734-12.832 3.44-23.267.464-36.1-2.938-12.832-89.684-41.356-89.684-41.356l-16.623 24.698z" fill="url(#paint1_linear)"/><path d="M145.377 329.569c.735-12.832 3.441-23.268.464-36.1-1.121-4.831-14.071-11.866-29.804-18.784-26.558-2.435-60.228-5.218-62.547-4.87-2.088.309-7.577 2.396-12.139 4.213l-1.855 2.744s.116 3.594.464 9.508c6.185 1.855 18.091-.077 18.091-.077 1.662 4.174 12.022 18.977 24.895 25.355 12.873 6.377 50.525 4.213 52.69 6.609 2.165 2.435 2.59 34.902 2.358 39.038-.232 4.135 3.556 30.147 7.035 53.106 3.441 22.611-1.816 50.092-1.971 50.981 1.198-.773 2.281-1.74 3.015-2.976 4.755-7.847 6.34-48.507 5.142-61.455-1.16-12.91-6.572-54.421-5.838-67.292z" fill="#160A5B"/><path d="M68.566 82.745s-19.251 4.406-25.707 5.913a3.396 3.396 0 00-2.358 2.049c-1.856 4.715-6.572 19.441-3.015 40.892 4.33 26.36 2.976 44.14 2.976 44.14l-8.89 46.342s-11.211 44.14-10.245 45.338c.966 1.198 25.784 20.098 33.516 17.431 7.77-2.666 5.218-7.034 5.218-7.034s6.263 31.964 34.096 31.655c27.794-.309 50.524-.232 55.241-11.441 4.716-11.247-1.276-58.478-6.185-77.147-4.91-18.707-16.546-55.967-16.546-55.967l40.706-45.067-34.791-26.553s-8.311-15.46-11.713-17.393c-3.402-1.97-5.219-.309-5.219-.309l-47.084 7.15z" fill="#453C9E"/><path d="M68.566 82.745s-19.251 4.406-25.707 5.913a3.396 3.396 0 00-2.358 2.049c-1.856 4.715-6.572 19.441-3.015 40.892 4.33 26.36 2.976 44.14 2.976 44.14l-8.89 46.342s-11.211 44.14-10.245 45.338c.966 1.198 25.784 20.098 33.516 17.431 7.77-2.666 5.218-7.034 5.218-7.034s6.263 31.964 34.096 31.655c27.794-.309 50.524-.232 55.241-11.441 4.716-11.247-1.276-58.478-6.185-77.147-4.91-18.707-16.546-55.967-16.546-55.967l40.706-45.067-34.791-26.553s-8.311-15.46-11.713-17.393c-3.402-1.97-5.219-.309-5.219-.309l-47.084 7.15z" fill="#453C9E"/><path opacity=".7" d="M68.566 82.745s-19.251 4.406-25.707 5.913a3.396 3.396 0 00-2.358 2.049c-1.856 4.715-6.572 19.441-3.015 40.892 4.33 26.36 2.976 44.14 2.976 44.14l-8.89 46.342s-11.211 44.14-10.245 45.338c.966 1.198 25.784 20.098 33.516 17.431 7.77-2.666 5.218-7.034 5.218-7.034s6.263 31.964 34.096 31.655c27.794-.309 50.524-.232 55.241-11.441 4.716-11.247-1.276-58.478-6.185-77.147-4.91-18.707-16.546-55.967-16.546-55.967l40.706-45.067-34.791-26.553s-8.311-15.46-11.713-17.393c-3.402-1.97-5.219-.309-5.219-.309l-47.084 7.15z" fill="url(#paint2_linear)"/><path d="M120.057 75.4s7.113 8.581-3.131 20.215c-6.301 7.15-17.125 22.534-26.364 38.535-5.76 10.011-11.095 15.306-14.11 23.925 0 0-.425-10.204-.812-25.935-.386-14.88-.58-30.302.077-34.206 1.353-8.04 36.454-26.437 44.34-22.533z" fill="#F0F6FF"/><path d="M93.462 101.258s-3.634 2.281-4.91 2.087c-1.237-.193-5.296-4.097-5.296-4.097s-10.09-.193-11.21-4.522c-1.121-4.329-1.817-8.696-2.86-10.938-1.006-2.242-5.374-13.025-5.413-17.393-.039-4.367.116-12.175-1.74-16.35-1.894-4.135-4.445-45.53 35.565-44.37 40.01 1.159 27.562 42.67 27.562 42.67s2.938 1.237 1.16 6.57c-1.778 5.335-2.165 5.914-3.054 8.543-.889 2.666-1.353 4.367-3.904 6.493l-.657 4.909s1.894 7.537-3.054 14.842c-4.987 7.382-22.19 11.556-22.19 11.556z" fill="#FCD1C5"/><path d="M41.737 89.122s-4.252.618-18.092 35.443c-7.731 19.403-19.637 39.54-22.15 53.956-2.513 14.417-1.121 29.878 1.74 30.96 2.744 1.043 52.457 19.635 67.997 25.51.85.309 1.778-.232 1.972-1.121l4.29-24.003-30.848-11.904s-5.876-7.189-11.404-9.856c0 0 6.186-11.402 5.799-14.494-.386-3.092.541-35.289-3.054-48.391-3.634-13.142 3.75-36.1 3.75-36.1z" fill="#4846A5"/><path opacity=".7" d="M41.737 89.122s-4.252.618-18.092 35.443c-7.731 19.403-19.637 39.54-22.15 53.956-2.513 14.417-1.121 29.878 1.74 30.96 2.744 1.043 52.457 19.635 67.997 25.51.85.309 1.778-.232 1.972-1.121l4.29-24.003-30.848-11.904s-5.876-7.189-11.404-9.856c0 0 6.186-11.402 5.799-14.494-.386-3.092.541-35.289-3.054-48.391-3.634-13.142 3.75-36.1 3.75-36.1z" fill="url(#paint3_linear)"/><path d="M59.83 181.111s-4.252-2.86-5.296-3.247c-1.044-.425-6.726-2.357-7.809-2.821-.811-.348-4.097-.078-5.76.077a1.941 1.941 0 00-1.43.928c-1.314 2.396-4.986 9.508-4.561 12.213 0 0 10.283 6.494 11.404 9.393l1.623.348c.039 0 6.92-14.765 11.83-16.891z" fill="#FCD1C5"/><path d="M143.175 220.806a825.545 825.545 0 00-4.446-15.963l-62.47 26.785s18.71 22.997 51.491 21.529c8.969-.387 15.502-3.633 20.295-6.416-1.469-10.243-3.247-19.674-4.87-25.935z" fill="#24126A"/><path d="M167.334 119.772s-16.467 2.28-29.804 23.345c-13.298 21.103-23.001 45.492-23.001 45.492l-.464 2.744c-1.198 7.19-8.852 11.287-15.501 8.31-14.071-6.261-34.869-15.769-38.773-18.629 0 0-12.448 6.88-15.85 23.152-2.706 12.948-2.01 12.986-2.01 12.986s55.473 25.897 76.889 25.626c21.416-.271 48.592-70.693 51.607-85.264 3.015-14.456 6.34-33.665-3.093-37.762z" fill="#24126A"/><path d="M167.334 119.772s-16.467 2.28-29.804 23.345c-13.298 21.103-23.001 45.492-23.001 45.492l-.464 2.744c-1.198 7.19-8.852 11.287-15.501 8.31-14.071-6.261-34.869-15.769-38.773-18.629 0 0-12.448 6.88-15.85 23.152-2.706 12.948-2.01 12.986-2.01 12.986s55.473 25.897 76.889 25.626c21.416-.271 48.592-70.693 51.607-85.264 3.015-14.456 6.34-33.665-3.093-37.762z" fill="#4846A5"/><path opacity=".7" d="M167.334 119.772s-16.467 2.28-29.804 23.345c-13.298 21.103-23.001 45.492-23.001 45.492l-.464 2.744c-1.198 7.19-8.852 11.287-15.501 8.31-14.071-6.261-34.869-15.769-38.773-18.629 0 0-12.448 6.88-15.85 23.152-2.706 12.948-2.01 12.986-2.01 12.986s55.473 25.897 76.889 25.626c21.416-.271 48.592-70.693 51.607-85.264 3.015-14.456 6.34-33.665-3.093-37.762z" fill="url(#paint4_linear)"/><path d="M106.526 202.988s6.997 6.532 10.051 2.976c3.054-3.595 2.165-3.981 2.165-3.981s6.301-.039 7.074-4.02c.773-3.942 3.866-1.855 4.059-6.261.193-4.407-5.103-3.479-5.103-3.479l-18.246 14.765z" fill="#453C9E"/><path d="M98.1 199.509s1.932-1.778 4.406-3.904c2.474-2.087 6.494-10.783 7.19-11.556.696-.773 9.046-7.189 13.105-7.305 4.02-.116 1.044 4.406.116 5.024-.928.619-4.871 2.59-4.871 2.59s-4.059 3.401-4.523 3.904c-.464.502 11.288-.812 13.144.348 1.855 1.159 1.43 4.135.116 4.947-1.315.812-2.32.773-2.32.773s1.315 3.517-2.203 5.179c-3.518 1.623-4.33.735-4.33.735s-.309 6.106-6.108 4.908l-13.723-5.643z" fill="#FCD1C5"/><path d="M61.182 28.903s-5.218 16.62 8.505 11.905c13.723-4.715 26.17-12.639 30.5-9.624 3.286 2.28 3.131 9.315 2.861 12.561-.077 1.083.193 2.204.812 3.093l4.059 5.913a4.23 4.23 0 01.773 2.242l.309 4.136a2.078 2.078 0 001.933 1.932l.928.039c1.043.077 1.971-.657 2.164-1.7l1.044-6.07s3.247-8.154 10.09-4.947c0 0 4.561-6.145 3.054-19.286-1.508-13.142-7.423-26.785-33.168-28.989C69.3-2.056 61.182 28.903 61.182 28.903z" fill="#AA8383"/><path d="M100.574 115.907l-3.866-2.976s-3.556 2.976-4.948 6.107c-1.392 3.131 0 13.141 0 13.141l-1.16 2.01-1.43-2.628-1.237-11.827s1.314-8.736 1.43-8.967c.116-.232 7.422.773 7.422.773s2.513 1.932 3.789 4.367zm-18.556-11.75s-4.136.27-5.991 1.816c0 0 4.33.194 5.025.309.696.116.966-2.125.966-2.125z" fill="#C4CCD6"/><path d="M89.867 105.085l6.92 6.454s-6.07 2.783-7.77 8.233c0 0-7.539 1.392-8.196-1.314-.696-2.744 0-9.585-.89-12.639-.888-3.053 9.936-.734 9.936-.734z" fill="#24126A"/><path d="M81.091 118.265s-1.275 5.643-2.706 8c-1.391 2.319-2.86 4.948-2.86 4.948l.154 33.162s12.216-25.162 14.845-30.264c0 0-.387-12.097-1.547-14.416-1.12-2.242-7.886-1.43-7.886-1.43z" fill="#24126A"/><path d="M113.833 69.255c-8.002 23.113-30.577 29.993-30.577 29.993s4.02 3.904 5.296 4.097c1.237.193 4.91-2.087 4.91-2.087s17.202-4.174 22.188-11.48c4.987-7.305 3.054-14.841 3.054-14.841l.657-4.91c-3.556 1.16-5.528-.772-5.528-.772z" fill="#E2B1A6"/><path d="M132.195 96.31s-3.17 10.9-3.557 11.325c-.425.426-7.963-.463-7.963-.463l3.672 6.957s-37.96 40.699-45.847 62.614c0 0 17.976-27.751 49.597-60.914l-4.484-6.764 7.77 1.508.812-14.262zm-62.352-9.624l-2.01 2.32 2.358 2.203-7.036 6.338s-2.165 44.526 6.417 74.017c0 0-11.635-27.056-9.007-75.253l7.616-5.141-2.474-2.435 4.136-2.049z" fill="#24126A"/><path d="M93.77 332.469s.078.077.271.193l-9.819-10.474c4.523 6.416-.695 35.713-1.237 42.439-.54 6.725 5.258 20.562 7.422 36.795 2.165 16.234-2.28 39.347-2.28 39.424 2.822-1.623 5.064-4.329 5.992-8.541 3.363-15.152 2.048-43.56-1.624-55.387-3.75-11.828 1.276-44.449 1.276-44.449z" fill="#160A5B"/><path d="M111.9 61.1c1.044.077 1.971-.657 2.165-1.7l1.043-6.069s3.248-8.155 10.09-4.947c0 0 4.329-5.837 3.131-18.244-7.615 11.402-24.47 16.659-24.47 16.659l4.059 5.913c.464.658.735 1.43.773 2.242l.31 4.136a2.078 2.078 0 001.932 1.932l.967.078z" fill="#936D6D"/></g><defs><linearGradient id="paint0_linear" x1="102.572" y1="297.265" x2="498.036" y2="297.265" gradientUnits="userSpaceOnUse"><stop stop-color="#0B0244"/><stop offset=".111" stop-color="#12064E"/><stop offset=".348" stop-color="#1C0D5E"/><stop offset=".62" stop-color="#221167"/><stop offset="1" stop-color="#24126A"/></linearGradient><linearGradient id="paint1_linear" x1="156.846" y1="314.774" x2="6.248" y2="425.355" gradientUnits="userSpaceOnUse"><stop stop-color="#180D5B"/><stop offset=".095" stop-color="#1A1660"/><stop offset=".247" stop-color="#1E2D6E"/><stop offset=".436" stop-color="#255385"/><stop offset=".655" stop-color="#2F87A5"/><stop offset=".898" stop-color="#3CCACE"/><stop offset="1" stop-color="#42E8E0"/></linearGradient><linearGradient id="paint2_linear" x1="150.781" y1="166.713" x2="8.172" y2="239.933" gradientUnits="userSpaceOnUse"><stop stop-color="#180D5B"/><stop offset=".095" stop-color="#1A1660"/><stop offset=".247" stop-color="#1E2D6E"/><stop offset=".436" stop-color="#255385"/><stop offset=".655" stop-color="#2F87A5"/><stop offset=".898" stop-color="#3CCACE"/><stop offset="1" stop-color="#42E8E0"/></linearGradient><linearGradient id="paint3_linear" x1="105.051" y1="128.865" x2="-1.942" y2="202.813" gradientUnits="userSpaceOnUse"><stop stop-color="#180D5B"/><stop offset=".095" stop-color="#1A1660"/><stop offset=".247" stop-color="#1E2D6E"/><stop offset=".436" stop-color="#255385"/><stop offset=".655" stop-color="#2F87A5"/><stop offset=".898" stop-color="#3CCACE"/><stop offset="1" stop-color="#42E8E0"/></linearGradient><linearGradient id="paint4_linear" x1="204.819" y1="152.439" x2="50.412" y2="224.878" gradientUnits="userSpaceOnUse"><stop stop-color="#180D5B"/><stop offset=".095" stop-color="#1A1660"/><stop offset=".247" stop-color="#1E2D6E"/><stop offset=".436" stop-color="#255385"/><stop offset=".655" stop-color="#2F87A5"/><stop offset=".898" stop-color="#3CCACE"/><stop offset="1" stop-color="#42E8E0"/></linearGradient></defs></svg>