<svg width="34" height="34" viewBox="0 0 34 34" fill="none" xmlns="http://www.w3.org/2000/svg"><path d="M8.08 11.272l2.03 1.335v8.494l-2.12 2.092a.587.587 0 00.412 1.003h4.588a.587.587 0 00.412-1.003l-2.12-2.092v-6.184c2.173 4.624 4.292 9.124 4.242 9.021.214.435.891.447 1.075-.058v-.002s.002 0 .002-.002l1.528-4.215 1.92-5.48v7.638l-1.36 1.38a.587.587 0 00.417.998h6.882a.586.586 0 00.42-.996L25.1 21.862l-.053-9.327L26.4 11.2a.587.587 0 00-.412-1.003l-5.37.003c-.748.022-.495.695-3.115 7.638l-3.212-7.292a.588.588 0 00-.537-.35H8.402c-.58 0-.807.758-.322 1.076zm1.75 11.753l.865-.855.866.855H9.83zm11.392-11.656h3.338c-.374.418-.688.54-.686.926l.055 9.81c.002.372.306.503.668.919h-4.088c.404-.459.714-.585.714-.965V11.37zm-7.85 0l3.56 8.078-.959 2.694C11.146 11.89 11.315 11.73 10.36 11.37h3.012z" fill="#3D57F4"/><circle cx="17" cy="17" r="16.414" stroke="#3D57F4" stroke-width="1.172"/></svg>