<svg width="255" height="57" viewBox="0 0 255 57" fill="none" xmlns="http://www.w3.org/2000/svg"><path d="M0 12.395V56.24c0 .214.212.32.425.32H12.1c.212 0 .425-.213.425-.426v-43.74H0z" fill="#8D96BD"/><path d="M0 12.395V56.24c0 .214.212.32.425.32H12.1c.212 0 .425-.213.425-.426v-43.74H0zm41.504 0h-12.42v16.962h12.42V12.395z" fill="#8D96BD"/><path d="M41.504 12.395h-12.42v16.962h12.42V12.395z" fill="#8D96BD"/><path d="M41.504 12.395h-12.42v16.962h12.42V12.395zm0 0c0-.107 0-.214-.106-.32L29.828.34c-.106-.107-.212-.107-.319-.107H12.42c-.106 0-.212 0-.318.107L.106 12.075C0 12.18 0 12.287 0 12.395h41.504z" fill="#8D96BD"/><path d="M18.152 29.25H16.24c-.212 0-.425.213-.425.427v11.308c0 .213.213.427.425.427h13.268c.107 0 .213 0 .319-.107l11.57-11.735c.106-.107.106-.107.106-.213H18.152v-.107zm48.294 2.716v12.877h-4.19V11.95H72.88c3.099 0 5.533.919 7.304 2.756 1.77 1.823 2.655 4.255 2.655 7.297 0 3.163-.847 5.603-2.54 7.32-1.68 1.702-4.053 2.583-7.121 2.643h-6.73zm0-3.547h6.433c1.862 0 3.29-.55 4.282-1.649.992-1.1 1.488-2.673 1.488-4.722 0-1.973-.512-3.554-1.534-4.744-1.023-1.19-2.427-1.784-4.213-1.784h-6.456v12.9zm41.69-16.469v23.382c-.03 3.118-.946 5.557-2.747 7.32-1.801 1.762-4.312 2.643-7.532 2.643-3.297 0-5.815-.859-7.555-2.576-1.74-1.732-2.625-4.194-2.656-7.387V11.95h4.167v23.224c0 2.214.473 3.87 1.42 4.97.96 1.084 2.502 1.627 4.624 1.627 2.137 0 3.678-.543 4.624-1.627.962-1.1 1.443-2.756 1.443-4.97V11.95h4.212zm6.456 32.893V11.95h9.501c3.038 0 5.319.73 6.846 2.192 1.541 1.46 2.312 3.652 2.312 6.573 0 1.537-.389 2.892-1.168 4.067-.778 1.175-1.831 2.086-3.159 2.733 1.526.452 2.732 1.378 3.617 2.78.901 1.4 1.351 3.087 1.351 5.06 0 2.952-.824 5.27-2.473 6.958-1.633 1.686-3.968 2.53-7.005 2.53h-9.822zm4.19-15.385v11.838h5.723c1.588 0 2.847-.512 3.778-1.536.931-1.04 1.397-2.493 1.397-4.36 0-3.961-1.695-5.942-5.083-5.942h-5.815zm0-3.479h5.38c1.45 0 2.618-.482 3.503-1.446.9-.963 1.351-2.244 1.351-3.84 0-1.807-.405-3.118-1.214-3.931-.809-.828-2.045-1.242-3.709-1.242h-5.311v10.46zM144.4 41.296h13.073v3.547h-17.285V11.95h4.212v29.346zm22.459 3.547h-4.189V11.95h4.189v32.893zm28.252-10.437c-.183 3.524-1.191 6.22-3.022 8.087-1.817 1.868-4.388 2.802-7.716 2.802-3.342 0-5.998-1.25-7.967-3.75-1.969-2.516-2.953-5.92-2.953-10.212V25.37c0-4.277 1.007-7.658 3.022-10.143 2.03-2.485 4.792-3.728 8.288-3.728 3.22 0 5.708.957 7.463 2.87 1.771 1.897 2.732 4.615 2.885 8.155h-4.236c-.183-2.681-.755-4.594-1.717-5.738-.961-1.145-2.427-1.717-4.395-1.717-2.275 0-4.022.88-5.243 2.643-1.221 1.747-1.832 4.315-1.832 7.704v6.031c0 3.329.565 5.882 1.695 7.659 1.144 1.777 2.808 2.666 4.99 2.666 2.183 0 3.755-.535 4.717-1.605.961-1.069 1.556-2.989 1.785-5.76h4.236zm10.073 10.437h-4.19V11.95h4.19v32.893zm10.486-3.547h15.819v3.547h-20.467V41.59l15.179-26.07h-15.019v-3.57h19.689v3.186l-15.201 26.16zm37.34-11.657h-11.791v11.657h13.737v3.547H237.03V11.95h17.697v3.57h-13.508v10.572h11.791v3.547z" fill="#8D96BD"/></svg>