<svg width="1920" height="1051" viewBox="0 0 1920 1051" fill="none" xmlns="http://www.w3.org/2000/svg"><g filter="url(#filter0_f)"><path d="M2469.26 491.271c425.92 47.138-22.89 300.31-586.44 309.657-208.92 3.465-357.28-119.652-663.9-145.189C912.307 630.202-197 598.691-197 491.271c0-52.574 263.924-196.043 590.012-231.049 340.178-36.518 743.118 36.548 743.118 36.548 736.26 0 749.3 129.887 1333.13 194.501z" fill="url(#paint0_linear)"/></g><g opacity=".82"><g filter="url(#filter1_f)"><path d="M1745 301c0 .552-.45 1-1 1s-1-.448-1-1 .45-1 1-1 1 .448 1 1z" fill="#fff"/></g><g opacity=".72" filter="url(#filter2_f)"><path d="M1696 164c0 .552-.45 1-1 1s-1-.448-1-1 .45-1 1-1 1 .448 1 1z" fill="#fff"/></g><g filter="url(#filter3_f)"><path d="M1753 114c0 .552-.45 1-1 1s-1-.448-1-1 .45-1 1-1 1 .448 1 1z" fill="#fff"/></g><g opacity=".92" filter="url(#filter4_f)"><path d="M1143 632.5a1.5 1.5 0 11-2.999.001 1.5 1.5 0 012.999-.001z" fill="#fff"/></g><g filter="url(#filter5_f)"><path d="M843 522.5a2.5 2.5 0 11-5 0 2.5 2.5 0 015 0z" fill="#fff"/></g><g opacity=".78" filter="url(#filter6_f)"><path d="M1084 449c0 .552-.45 1-1 1s-1-.448-1-1 .45-1 1-1 1 .448 1 1z" fill="#fff"/></g><g opacity=".78" filter="url(#filter7_f)"><path d="M741 271a1 1 0 11-2 0 1 1 0 012 0z" fill="#fff"/></g><g opacity=".65" filter="url(#filter8_f)"><path d="M1038 272c0 .552-.45 1-1 1s-1-.448-1-1 .45-1 1-1 1 .448 1 1z" fill="#fff"/></g><g opacity=".42" filter="url(#filter9_f)"><path d="M1156 242c0 .552-.45 1-1 1s-1-.448-1-1 .45-1 1-1 1 .448 1 1z" fill="#fff"/></g><g opacity=".68" filter="url(#filter10_f)"><path d="M924 113a1 1 0 11-2 0 1 1 0 012 0z" fill="#fff"/></g><g opacity=".33" filter="url(#filter11_f)"><path d="M1797 584.5a1.5 1.5 0 11-2.999.001 1.5 1.5 0 012.999-.001z" fill="#fff"/></g></g><defs><filter id="filter0_f" x="-447" y="0" width="3335" height="1051" filterUnits="userSpaceOnUse" color-interpolation-filters="sRGB"><feFlood flood-opacity="0" result="BackgroundImageFix"/><feBlend in="SourceGraphic" in2="BackgroundImageFix" result="shape"/><feGaussianBlur stdDeviation="125" result="effect1_foregroundBlur"/></filter><filter id="filter1_f" x="1742" y="299" width="4" height="4" filterUnits="userSpaceOnUse" color-interpolation-filters="sRGB"><feFlood flood-opacity="0" result="BackgroundImageFix"/><feBlend in="SourceGraphic" in2="BackgroundImageFix" result="shape"/><feGaussianBlur stdDeviation=".5" result="effect1_foregroundBlur"/></filter><filter id="filter2_f" x="1693" y="162" width="4" height="4" filterUnits="userSpaceOnUse" color-interpolation-filters="sRGB"><feFlood flood-opacity="0" result="BackgroundImageFix"/><feBlend in="SourceGraphic" in2="BackgroundImageFix" result="shape"/><feGaussianBlur stdDeviation=".5" result="effect1_foregroundBlur"/></filter><filter id="filter3_f" x="1750" y="112" width="4" height="4" filterUnits="userSpaceOnUse" color-interpolation-filters="sRGB"><feFlood flood-opacity="0" result="BackgroundImageFix"/><feBlend in="SourceGraphic" in2="BackgroundImageFix" result="shape"/><feGaussianBlur stdDeviation=".5" result="effect1_foregroundBlur"/></filter><filter id="filter4_f" x="1139" y="630" width="5" height="5" filterUnits="userSpaceOnUse" color-interpolation-filters="sRGB"><feFlood flood-opacity="0" result="BackgroundImageFix"/><feBlend in="SourceGraphic" in2="BackgroundImageFix" result="shape"/><feGaussianBlur stdDeviation=".5" result="effect1_foregroundBlur"/></filter><filter id="filter5_f" x="837" y="519" width="7" height="7" filterUnits="userSpaceOnUse" color-interpolation-filters="sRGB"><feFlood flood-opacity="0" result="BackgroundImageFix"/><feBlend in="SourceGraphic" in2="BackgroundImageFix" result="shape"/><feGaussianBlur stdDeviation=".5" result="effect1_foregroundBlur"/></filter><filter id="filter6_f" x="1081" y="447" width="4" height="4" filterUnits="userSpaceOnUse" color-interpolation-filters="sRGB"><feFlood flood-opacity="0" result="BackgroundImageFix"/><feBlend in="SourceGraphic" in2="BackgroundImageFix" result="shape"/><feGaussianBlur stdDeviation=".5" result="effect1_foregroundBlur"/></filter><filter id="filter7_f" x="738" y="269" width="4" height="4" filterUnits="userSpaceOnUse" color-interpolation-filters="sRGB"><feFlood flood-opacity="0" result="BackgroundImageFix"/><feBlend in="SourceGraphic" in2="BackgroundImageFix" result="shape"/><feGaussianBlur stdDeviation=".5" result="effect1_foregroundBlur"/></filter><filter id="filter8_f" x="1035" y="270" width="4" height="4" filterUnits="userSpaceOnUse" color-interpolation-filters="sRGB"><feFlood flood-opacity="0" result="BackgroundImageFix"/><feBlend in="SourceGraphic" in2="BackgroundImageFix" result="shape"/><feGaussianBlur stdDeviation=".5" result="effect1_foregroundBlur"/></filter><filter id="filter9_f" x="1153" y="240" width="4" height="4" filterUnits="userSpaceOnUse" color-interpolation-filters="sRGB"><feFlood flood-opacity="0" result="BackgroundImageFix"/><feBlend in="SourceGraphic" in2="BackgroundImageFix" result="shape"/><feGaussianBlur stdDeviation=".5" result="effect1_foregroundBlur"/></filter><filter id="filter10_f" x="921" y="111" width="4" height="4" filterUnits="userSpaceOnUse" color-interpolation-filters="sRGB"><feFlood flood-opacity="0" result="BackgroundImageFix"/><feBlend in="SourceGraphic" in2="BackgroundImageFix" result="shape"/><feGaussianBlur stdDeviation=".5" result="effect1_foregroundBlur"/></filter><filter id="filter11_f" x="1793" y="582" width="5" height="5" filterUnits="userSpaceOnUse" color-interpolation-filters="sRGB"><feFlood flood-opacity="0" result="BackgroundImageFix"/><feBlend in="SourceGraphic" in2="BackgroundImageFix" result="shape"/><feGaussianBlur stdDeviation=".5" result="effect1_foregroundBlur"/></filter><linearGradient id="paint0_linear" x1="1214.17" y1="296.77" x2="1214.17" y2="611.18" gradientUnits="userSpaceOnUse"><stop/><stop offset="1"/></linearGradient></defs></svg>