<svg width="1920" height="2970" viewBox="0 0 1920 2970" fill="none" xmlns="http://www.w3.org/2000/svg"><g opacity=".58" filter="url(#filter0_f)"><path d="M1579.14 2496.13c253.81 120.63-265.94 294.2-546.43 193.88C752.222 2589.68 420 2696.68 420 2496.13 420 2295.58 999.57 2133 999.57 2133c320.09 0 325.76 242.5 579.57 363.13z" fill="#030207"/></g><g filter="url(#filter1_f)"><path d="M440.239 2367.12c0 .37.448.66 1.001.66.553 0 1.001-.29 1.001-.66 0-.36-.448-.66-1.001-.66-.553 0-1.001.3-1.001.66z" fill="#fff"/></g><g opacity=".91" filter="url(#filter2_f)"><path d="M548.352 2353.24c0 .37.448.66 1.001.66.553 0 1.001-.29 1.001-.66 0-.36-.448-.66-1.001-.66-.553 0-1.001.3-1.001.66z" fill="#fff"/></g><g filter="url(#filter3_f)"><path d="M572.377 2327.46c0 .37.448.67 1.001.67.553 0 1.001-.3 1.001-.67 0-.36-.448-.66-1.001-.66-.553 0-1.001.3-1.001.66z" fill="#fff"/></g><g filter="url(#filter4_f)"><path d="M364.16 2273.93c0 .36.448.66 1.001.66.553 0 1.001-.3 1.001-.66 0-.37-.448-.66-1.001-.66-.553 0-1.001.29-1.001.66z" fill="#fff"/></g><g filter="url(#filter5_f)"><path d="M748.559 2351.92c0 .37.448.66 1.001.66.553 0 1.001-.29 1.001-.66 0-.36-.448-.66-1.001-.66-.553 0-1.001.3-1.001.66z" fill="#fff"/></g><g opacity=".72" filter="url(#filter6_f)"><path d="M797.609 2261.37c0 .36.448.66 1.001.66.553 0 1.001-.3 1.001-.66 0-.37-.448-.66-1.001-.66-.553 0-1.001.29-1.001.66z" fill="#fff"/></g><g filter="url(#filter7_f)"><path d="M740.55 2228.32c0 .37.448.66 1.001.66.553 0 1.001-.29 1.001-.66 0-.36-.448-.66-1.001-.66-.553 0-1.001.3-1.001.66z" fill="#fff"/></g><g opacity=".9" filter="url(#filter8_f)"><path d="M457.258 2418.68c0 .73.896 1.32 2.002 1.32 1.106 0 2.002-.59 2.002-1.32 0-.73-.896-1.33-2.002-1.33-1.106 0-2.002.6-2.002 1.33z" fill="#fff"/></g><g opacity=".9" filter="url(#filter9_f)"><path d="M453 2051.32c0 .73.896 1.32 2.002 1.32 1.106 0 2.002-.59 2.002-1.32 0-.73-.896-1.32-2.002-1.32-1.106 0-2.002.59-2.002 1.32z" fill="#fff"/></g><g opacity=".9" filter="url(#filter10_f)"><path d="M209 2491.71c0 .55.672.99 1.501.99.83 0 1.502-.44 1.502-.99s-.672-.99-1.502-.99c-.829 0-1.501.44-1.501.99z" fill="#fff"/></g><g filter="url(#filter11_f)"><path d="M484.285 2573.67c0 .91 1.12 1.65 2.502 1.65 1.383 0 2.503-.74 2.503-1.65 0-.91-1.12-1.65-2.503-1.65-1.382 0-2.502.74-2.502 1.65z" fill="#fff"/></g><g opacity=".92" filter="url(#filter12_f)"><path d="M1351.18 2571.03c0 .54.68.99 1.5.99.83 0 1.51-.45 1.51-.99 0-.55-.68-1-1.51-1-.82 0-1.5.45-1.5 1z" fill="#fff"/></g><g filter="url(#filter13_f)"><path d="M1529 2717.65c0 .91 1.12 1.65 2.5 1.65s2.51-.74 2.51-1.65c0-.91-1.13-1.65-2.51-1.65s-2.5.74-2.5 1.65z" fill="#fff"/></g><g filter="url(#filter14_f)"><path d="M1167.99 2632.82c0 .73.9 1.33 2.01 1.33 1.1 0 2-.6 2-1.33 0-.73-.9-1.32-2-1.32-1.11 0-2.01.59-2.01 1.32z" fill="#fff"/></g><g opacity=".78" filter="url(#filter15_f)"><path d="M1410.24 2449.74c0 .37.45.66 1 .66.56 0 1.01-.29 1.01-.66 0-.36-.45-.66-1.01-.66-.55 0-1 .3-1 .66z" fill="#fff"/></g><g opacity=".78" filter="url(#filter16_f)"><path d="M1753.6 2332.09c0 .37.45.66 1 .66s1-.29 1-.66c0-.36-.45-.66-1-.66s-1 .3-1 .66z" fill="#fff"/></g><g opacity=".65" filter="url(#filter17_f)"><path d="M1456.29 2332.75c0 .37.45.66 1 .66.56 0 1-.29 1-.66 0-.36-.44-.66-1-.66-.55 0-1 .3-1 .66z" fill="#fff"/></g><g opacity=".42" filter="url(#filter18_f)"><path d="M1338.17 2312.92c0 .37.45.66 1 .66s1-.29 1-.66c0-.36-.45-.66-1-.66s-1 .3-1 .66z" fill="#fff"/></g><g opacity=".68" filter="url(#filter19_f)"><path d="M1570.41 2227.66c0 .37.45.66 1 .66s1-.29 1-.66c0-.36-.45-.66-1-.66s-1 .3-1 .66z" fill="#fff"/></g><g opacity=".68" filter="url(#filter20_f)"><path d="M1560.4 2261.7c0 .55.67.99 1.5.99s1.5-.44 1.5-.99-.67-.99-1.5-.99-1.5.44-1.5.99z" fill="#fff"/></g><g opacity=".33" filter="url(#filter21_f)"><path d="M696.505 2539.3c0 .55.673.99 1.502.99s1.501-.44 1.501-.99-.672-.99-1.501-.99c-.829 0-1.502.44-1.502.99z" fill="#fff"/></g><g filter="url(#filter22_f)"><path d="M398.239 1313.12c0 .37.448.66 1.001.66.553 0 1.001-.29 1.001-.66 0-.36-.448-.66-1.001-.66-.553 0-1.001.3-1.001.66z" fill="#fff"/></g><g opacity=".91" filter="url(#filter23_f)"><path d="M506.352 1299.24c0 .37.448.66 1.001.66.553 0 1.001-.29 1.001-.66 0-.36-.448-.66-1.001-.66-.553 0-1.001.3-1.001.66z" fill="#fff"/></g><g filter="url(#filter24_f)"><path d="M530.377 1273.46c0 .37.448.67 1.001.67.553 0 1.001-.3 1.001-.67 0-.36-.448-.66-1.001-.66-.553 0-1.001.3-1.001.66z" fill="#fff"/></g><g filter="url(#filter25_f)"><path d="M322.16 1219.93c0 .36.448.66 1.001.66.553 0 1.001-.3 1.001-.66 0-.37-.448-.66-1.001-.66-.553 0-1.001.29-1.001.66z" fill="#fff"/></g><g filter="url(#filter26_f)"><path d="M706.559 1297.92c0 .37.448.66 1.001.66.553 0 1.001-.29 1.001-.66 0-.36-.448-.66-1.001-.66-.553 0-1.001.3-1.001.66z" fill="#fff"/></g><g opacity=".72" filter="url(#filter27_f)"><path d="M755.609 1207.37c0 .36.448.66 1.001.66.553 0 1.001-.3 1.001-.66 0-.37-.448-.66-1.001-.66-.553 0-1.001.29-1.001.66z" fill="#fff"/></g><g filter="url(#filter28_f)"><path d="M698.55 1174.32c0 .37.448.66 1.001.66.553 0 1.001-.29 1.001-.66 0-.36-.448-.66-1.001-.66-.553 0-1.001.3-1.001.66z" fill="#fff"/></g><g opacity=".9" filter="url(#filter29_f)"><path d="M415.258 1364.68c0 .73.896 1.32 2.002 1.32 1.106 0 2.002-.59 2.002-1.32 0-.73-.896-1.33-2.002-1.33-1.106 0-2.002.6-2.002 1.33z" fill="#fff"/></g><g opacity=".9" filter="url(#filter30_f)"><path d="M406 1024.32c0 .73.896 1.32 2.002 1.32 1.106 0 2.002-.59 2.002-1.32 0-.73-.896-1.32-2.002-1.32-1.106 0-2.002.59-2.002 1.32z" fill="#fff"/></g><g opacity=".9" filter="url(#filter31_f)"><path d="M167 1437.71c0 .55.672.99 1.501.99.83 0 1.502-.44 1.502-.99s-.672-.99-1.502-.99c-.829 0-1.501.44-1.501.99z" fill="#fff"/></g><g filter="url(#filter32_f)"><path d="M442.285 1519.67c0 .91 1.12 1.65 2.502 1.65 1.383 0 2.503-.74 2.503-1.65 0-.91-1.12-1.65-2.503-1.65-1.382 0-2.502.74-2.502 1.65z" fill="#fff"/></g><g opacity=".92" filter="url(#filter33_f)"><path d="M1309.18 1517.03c0 .54.68.99 1.5.99.83 0 1.51-.45 1.51-.99 0-.55-.68-1-1.51-1-.82 0-1.5.45-1.5 1z" fill="#fff"/></g><g filter="url(#filter34_f)"><path d="M1609.49 1444.32c0 .91 1.12 1.65 2.51 1.65 1.38 0 2.5-.74 2.5-1.65 0-.91-1.12-1.65-2.5-1.65-1.39 0-2.51.74-2.51 1.65z" fill="#fff"/></g><g filter="url(#filter35_f)"><path d="M1125.99 1578.82c0 .73.9 1.33 2.01 1.33 1.1 0 2-.6 2-1.33 0-.73-.9-1.32-2-1.32-1.11 0-2.01.59-2.01 1.32z" fill="#fff"/></g><g opacity=".78" filter="url(#filter36_f)"><path d="M1368.24 1395.74c0 .37.45.66 1 .66.56 0 1.01-.29 1.01-.66 0-.36-.45-.66-1.01-.66-.55 0-1 .3-1 .66z" fill="#fff"/></g><g opacity=".78" filter="url(#filter37_f)"><path d="M1711.6 1278.09c0 .37.45.66 1 .66s1-.29 1-.66c0-.36-.45-.66-1-.66s-1 .3-1 .66z" fill="#fff"/></g><g opacity=".65" filter="url(#filter38_f)"><path d="M1414.29 1278.75c0 .37.45.66 1 .66.56 0 1-.29 1-.66 0-.36-.44-.66-1-.66-.55 0-1 .3-1 .66z" fill="#fff"/></g><g opacity=".42" filter="url(#filter39_f)"><path d="M1296.17 1258.92c0 .37.45.66 1 .66s1-.29 1-.66c0-.36-.45-.66-1-.66s-1 .3-1 .66z" fill="#fff"/></g><g opacity=".68" filter="url(#filter40_f)"><path d="M1528.41 1173.66c0 .37.45.66 1 .66s1-.29 1-.66c0-.36-.45-.66-1-.66s-1 .3-1 .66z" fill="#fff"/></g><g opacity=".68" filter="url(#filter41_f)"><path d="M1518.4 1207.7c0 .55.67.99 1.5.99s1.5-.44 1.5-.99-.67-.99-1.5-.99-1.5.44-1.5.99z" fill="#fff"/></g><g opacity=".33" filter="url(#filter42_f)"><path d="M654.505 1485.3c0 .55.673.99 1.502.99s1.501-.44 1.501-.99-.672-.99-1.501-.99c-.829 0-1.502.44-1.502.99z" fill="#fff"/></g><g opacity=".43" filter="url(#filter43_f)"><path d="M2011.75 613.13c206.65 120.633-216.52 294.198-444.89 193.875C1338.49 706.683 1068 813.682 1068 613.13 1068 412.579 1539.87 250 1539.87 250c260.61 0 265.23 242.497 471.88 363.13z" fill="#030207"/></g><g opacity=".43" filter="url(#filter44_f)"><path d="M691.749 1290.13c206.651 120.63-216.522 294.2-444.891 193.88C18.488 1383.68-252 1490.68-252 1290.13-252 1089.58 219.875 927 219.875 927c260.609 0 265.224 242.5 471.874 363.13z" fill="#030207"/></g><g filter="url(#filter45_f)"><path d="M1499.56 459.006c0 .552-.44 1-1 1a1.001 1.001 0 111-1z" fill="#fff"/></g><g opacity=".91" filter="url(#filter46_f)"><path d="M1391.45 438.006c0 .552-.45 1-1 1s-1-.448-1-1a1.001 1.001 0 012 0z" fill="#fff"/></g><g filter="url(#filter47_f)"><path d="M1367.43 399.005a1.001 1.001 0 11-2.002-.002 1.001 1.001 0 012.002.002z" fill="#fff"/></g><g filter="url(#filter48_f)"><path d="M1575.64 318.005a1.001 1.001 0 11-1.998-.002 1.001 1.001 0 011.998.002z" fill="#fff"/></g><g filter="url(#filter49_f)"><path d="M1191.24 436.006c0 .552-.44 1-1 1a1.001 1.001 0 111-1z" fill="#fff"/></g><g opacity=".72" filter="url(#filter50_f)"><path d="M1142.2 299.005c0 .553-.45 1-1.01 1a1.001 1.001 0 010-2c.56 0 1.01.448 1.01 1z" fill="#fff"/></g><g filter="url(#filter51_f)"><path d="M1199.25 249.005a1.001 1.001 0 11-1.998-.002 1.001 1.001 0 011.998.002z" fill="#fff"/></g><g opacity=".9" filter="url(#filter52_f)"><path d="M1482.55 537.006a2.005 2.005 0 01-4.01 0 2.005 2.005 0 014.01 0z" fill="#fff"/></g><g opacity=".9" filter="url(#filter53_f)"><path d="M1730.8 647.506a1.5 1.5 0 11-2.999.001 1.5 1.5 0 012.999-.001z" fill="#fff"/></g><g filter="url(#filter54_f)"><path d="M1455.52 771.506a2.5 2.5 0 01-2.5 2.5c-1.39 0-2.51-1.12-2.51-2.5 0-1.381 1.12-2.5 2.51-2.5a2.5 2.5 0 012.5 2.5z" fill="#fff"/></g><g opacity=".92" filter="url(#filter55_f)"><path d="M588.621 767.506a1.501 1.501 0 11-3.002-.002 1.501 1.501 0 013.002.002z" fill="#fff"/></g><g filter="url(#filter56_f)"><path d="M288.31 657.506c0 1.38-1.12 2.5-2.502 2.5a2.5 2.5 0 110-5 2.5 2.5 0 012.502 2.5z" fill="#fff"/></g><g opacity=".78" filter="url(#filter57_f)"><path d="M529.56 584.006a1 1 0 11-2.001-.001 1 1 0 012.001.001z" fill="#fff"/></g><g opacity=".78" filter="url(#filter58_f)"><path d="M186.204 406.005a1 1 0 11-2 0 1 1 0 012 0z" fill="#fff"/></g><g opacity=".65" filter="url(#filter59_f)"><path d="M483.511 407.006a1 1 0 11-2.001-.001 1 1 0 012.001.001z" fill="#fff"/></g><g opacity=".42" filter="url(#filter60_f)"><path d="M601.634 377.005a1 1 0 11-2 0 1 1 0 012 0z" fill="#fff"/></g><g opacity=".68" filter="url(#filter61_f)"><path d="M369.395 248.005a1 1 0 11-2.001-.001 1 1 0 012.001.001z" fill="#fff"/></g><g opacity=".68" filter="url(#filter62_f)"><path d="M379.404 299.505a1.5 1.5 0 01-1.501 1.5 1.5 1.5 0 111.501-1.5z" fill="#fff"/></g><g opacity=".33" filter="url(#filter63_f)"><path d="M1243.3 719.506a1.5 1.5 0 11-2.999.001 1.5 1.5 0 012.999-.001z" fill="#fff"/></g><defs><filter id="filter0_f" x="170" y="1883" width="1727" height="1087" filterUnits="userSpaceOnUse" color-interpolation-filters="sRGB"><feFlood flood-opacity="0" result="BackgroundImageFix"/><feBlend in="SourceGraphic" in2="BackgroundImageFix" result="shape"/><feGaussianBlur stdDeviation="125" result="effect1_foregroundBlur"/></filter><filter id="filter1_f" x="439.239" y="2365.46" width="4.002" height="3.322" filterUnits="userSpaceOnUse" color-interpolation-filters="sRGB"><feFlood flood-opacity="0" result="BackgroundImageFix"/><feBlend in="SourceGraphic" in2="BackgroundImageFix" result="shape"/><feGaussianBlur stdDeviation=".5" result="effect1_foregroundBlur"/></filter><filter id="filter2_f" x="547.352" y="2351.58" width="4.002" height="3.322" filterUnits="userSpaceOnUse" color-interpolation-filters="sRGB"><feFlood flood-opacity="0" result="BackgroundImageFix"/><feBlend in="SourceGraphic" in2="BackgroundImageFix" result="shape"/><feGaussianBlur stdDeviation=".5" result="effect1_foregroundBlur"/></filter><filter id="filter3_f" x="571.377" y="2325.8" width="4.002" height="3.322" filterUnits="userSpaceOnUse" color-interpolation-filters="sRGB"><feFlood flood-opacity="0" result="BackgroundImageFix"/><feBlend in="SourceGraphic" in2="BackgroundImageFix" result="shape"/><feGaussianBlur stdDeviation=".5" result="effect1_foregroundBlur"/></filter><filter id="filter4_f" x="363.16" y="2272.27" width="4.002" height="3.322" filterUnits="userSpaceOnUse" color-interpolation-filters="sRGB"><feFlood flood-opacity="0" result="BackgroundImageFix"/><feBlend in="SourceGraphic" in2="BackgroundImageFix" result="shape"/><feGaussianBlur stdDeviation=".5" result="effect1_foregroundBlur"/></filter><filter id="filter5_f" x="747.559" y="2350.26" width="4.002" height="3.322" filterUnits="userSpaceOnUse" color-interpolation-filters="sRGB"><feFlood flood-opacity="0" result="BackgroundImageFix"/><feBlend in="SourceGraphic" in2="BackgroundImageFix" result="shape"/><feGaussianBlur stdDeviation=".5" result="effect1_foregroundBlur"/></filter><filter id="filter6_f" x="796.609" y="2259.71" width="4.002" height="3.322" filterUnits="userSpaceOnUse" color-interpolation-filters="sRGB"><feFlood flood-opacity="0" result="BackgroundImageFix"/><feBlend in="SourceGraphic" in2="BackgroundImageFix" result="shape"/><feGaussianBlur stdDeviation=".5" result="effect1_foregroundBlur"/></filter><filter id="filter7_f" x="739.55" y="2226.66" width="4.002" height="3.322" filterUnits="userSpaceOnUse" color-interpolation-filters="sRGB"><feFlood flood-opacity="0" result="BackgroundImageFix"/><feBlend in="SourceGraphic" in2="BackgroundImageFix" result="shape"/><feGaussianBlur stdDeviation=".5" result="effect1_foregroundBlur"/></filter><filter id="filter8_f" x="456.258" y="2416.35" width="6.004" height="4.644" filterUnits="userSpaceOnUse" color-interpolation-filters="sRGB"><feFlood flood-opacity="0" result="BackgroundImageFix"/><feBlend in="SourceGraphic" in2="BackgroundImageFix" result="shape"/><feGaussianBlur stdDeviation=".5" result="effect1_foregroundBlur"/></filter><filter id="filter9_f" x="452" y="2049" width="6.004" height="4.644" filterUnits="userSpaceOnUse" color-interpolation-filters="sRGB"><feFlood flood-opacity="0" result="BackgroundImageFix"/><feBlend in="SourceGraphic" in2="BackgroundImageFix" result="shape"/><feGaussianBlur stdDeviation=".5" result="effect1_foregroundBlur"/></filter><filter id="filter10_f" x="208" y="2489.72" width="5.003" height="3.983" filterUnits="userSpaceOnUse" color-interpolation-filters="sRGB"><feFlood flood-opacity="0" result="BackgroundImageFix"/><feBlend in="SourceGraphic" in2="BackgroundImageFix" result="shape"/><feGaussianBlur stdDeviation=".5" result="effect1_foregroundBlur"/></filter><filter id="filter11_f" x="483.285" y="2571.02" width="7.005" height="5.305" filterUnits="userSpaceOnUse" color-interpolation-filters="sRGB"><feFlood flood-opacity="0" result="BackgroundImageFix"/><feBlend in="SourceGraphic" in2="BackgroundImageFix" result="shape"/><feGaussianBlur stdDeviation=".5" result="effect1_foregroundBlur"/></filter><filter id="filter12_f" x="1350.18" y="2569.03" width="5.003" height="3.983" filterUnits="userSpaceOnUse" color-interpolation-filters="sRGB"><feFlood flood-opacity="0" result="BackgroundImageFix"/><feBlend in="SourceGraphic" in2="BackgroundImageFix" result="shape"/><feGaussianBlur stdDeviation=".5" result="effect1_foregroundBlur"/></filter><filter id="filter13_f" x="1528" y="2715" width="7.005" height="5.305" filterUnits="userSpaceOnUse" color-interpolation-filters="sRGB"><feFlood flood-opacity="0" result="BackgroundImageFix"/><feBlend in="SourceGraphic" in2="BackgroundImageFix" result="shape"/><feGaussianBlur stdDeviation=".5" result="effect1_foregroundBlur"/></filter><filter id="filter14_f" x="1166.99" y="2630.5" width="6.004" height="4.644" filterUnits="userSpaceOnUse" color-interpolation-filters="sRGB"><feFlood flood-opacity="0" result="BackgroundImageFix"/><feBlend in="SourceGraphic" in2="BackgroundImageFix" result="shape"/><feGaussianBlur stdDeviation=".5" result="effect1_foregroundBlur"/></filter><filter id="filter15_f" x="1409.24" y="2448.08" width="4.002" height="3.322" filterUnits="userSpaceOnUse" color-interpolation-filters="sRGB"><feFlood flood-opacity="0" result="BackgroundImageFix"/><feBlend in="SourceGraphic" in2="BackgroundImageFix" result="shape"/><feGaussianBlur stdDeviation=".5" result="effect1_foregroundBlur"/></filter><filter id="filter16_f" x="1752.6" y="2330.43" width="4.002" height="3.322" filterUnits="userSpaceOnUse" color-interpolation-filters="sRGB"><feFlood flood-opacity="0" result="BackgroundImageFix"/><feBlend in="SourceGraphic" in2="BackgroundImageFix" result="shape"/><feGaussianBlur stdDeviation=".5" result="effect1_foregroundBlur"/></filter><filter id="filter17_f" x="1455.29" y="2331.09" width="4.002" height="3.322" filterUnits="userSpaceOnUse" color-interpolation-filters="sRGB"><feFlood flood-opacity="0" result="BackgroundImageFix"/><feBlend in="SourceGraphic" in2="BackgroundImageFix" result="shape"/><feGaussianBlur stdDeviation=".5" result="effect1_foregroundBlur"/></filter><filter id="filter18_f" x="1337.17" y="2311.26" width="4.002" height="3.322" filterUnits="userSpaceOnUse" color-interpolation-filters="sRGB"><feFlood flood-opacity="0" result="BackgroundImageFix"/><feBlend in="SourceGraphic" in2="BackgroundImageFix" result="shape"/><feGaussianBlur stdDeviation=".5" result="effect1_foregroundBlur"/></filter><filter id="filter19_f" x="1569.41" y="2226" width="4.002" height="3.322" filterUnits="userSpaceOnUse" color-interpolation-filters="sRGB"><feFlood flood-opacity="0" result="BackgroundImageFix"/><feBlend in="SourceGraphic" in2="BackgroundImageFix" result="shape"/><feGaussianBlur stdDeviation=".5" result="effect1_foregroundBlur"/></filter><filter id="filter20_f" x="1559.4" y="2259.71" width="5.003" height="3.983" filterUnits="userSpaceOnUse" color-interpolation-filters="sRGB"><feFlood flood-opacity="0" result="BackgroundImageFix"/><feBlend in="SourceGraphic" in2="BackgroundImageFix" result="shape"/><feGaussianBlur stdDeviation=".5" result="effect1_foregroundBlur"/></filter><filter id="filter21_f" x="695.505" y="2537.31" width="5.003" height="3.983" filterUnits="userSpaceOnUse" color-interpolation-filters="sRGB"><feFlood flood-opacity="0" result="BackgroundImageFix"/><feBlend in="SourceGraphic" in2="BackgroundImageFix" result="shape"/><feGaussianBlur stdDeviation=".5" result="effect1_foregroundBlur"/></filter><filter id="filter22_f" x="397.239" y="1311.46" width="4.002" height="3.322" filterUnits="userSpaceOnUse" color-interpolation-filters="sRGB"><feFlood flood-opacity="0" result="BackgroundImageFix"/><feBlend in="SourceGraphic" in2="BackgroundImageFix" result="shape"/><feGaussianBlur stdDeviation=".5" result="effect1_foregroundBlur"/></filter><filter id="filter23_f" x="505.352" y="1297.58" width="4.002" height="3.322" filterUnits="userSpaceOnUse" color-interpolation-filters="sRGB"><feFlood flood-opacity="0" result="BackgroundImageFix"/><feBlend in="SourceGraphic" in2="BackgroundImageFix" result="shape"/><feGaussianBlur stdDeviation=".5" result="effect1_foregroundBlur"/></filter><filter id="filter24_f" x="529.377" y="1271.8" width="4.002" height="3.322" filterUnits="userSpaceOnUse" color-interpolation-filters="sRGB"><feFlood flood-opacity="0" result="BackgroundImageFix"/><feBlend in="SourceGraphic" in2="BackgroundImageFix" result="shape"/><feGaussianBlur stdDeviation=".5" result="effect1_foregroundBlur"/></filter><filter id="filter25_f" x="321.16" y="1218.27" width="4.002" height="3.322" filterUnits="userSpaceOnUse" color-interpolation-filters="sRGB"><feFlood flood-opacity="0" result="BackgroundImageFix"/><feBlend in="SourceGraphic" in2="BackgroundImageFix" result="shape"/><feGaussianBlur stdDeviation=".5" result="effect1_foregroundBlur"/></filter><filter id="filter26_f" x="705.559" y="1296.26" width="4.002" height="3.322" filterUnits="userSpaceOnUse" color-interpolation-filters="sRGB"><feFlood flood-opacity="0" result="BackgroundImageFix"/><feBlend in="SourceGraphic" in2="BackgroundImageFix" result="shape"/><feGaussianBlur stdDeviation=".5" result="effect1_foregroundBlur"/></filter><filter id="filter27_f" x="754.609" y="1205.71" width="4.002" height="3.322" filterUnits="userSpaceOnUse" color-interpolation-filters="sRGB"><feFlood flood-opacity="0" result="BackgroundImageFix"/><feBlend in="SourceGraphic" in2="BackgroundImageFix" result="shape"/><feGaussianBlur stdDeviation=".5" result="effect1_foregroundBlur"/></filter><filter id="filter28_f" x="697.55" y="1172.66" width="4.002" height="3.322" filterUnits="userSpaceOnUse" color-interpolation-filters="sRGB"><feFlood flood-opacity="0" result="BackgroundImageFix"/><feBlend in="SourceGraphic" in2="BackgroundImageFix" result="shape"/><feGaussianBlur stdDeviation=".5" result="effect1_foregroundBlur"/></filter><filter id="filter29_f" x="414.258" y="1362.35" width="6.004" height="4.644" filterUnits="userSpaceOnUse" color-interpolation-filters="sRGB"><feFlood flood-opacity="0" result="BackgroundImageFix"/><feBlend in="SourceGraphic" in2="BackgroundImageFix" result="shape"/><feGaussianBlur stdDeviation=".5" result="effect1_foregroundBlur"/></filter><filter id="filter30_f" x="405" y="1022" width="6.004" height="4.644" filterUnits="userSpaceOnUse" color-interpolation-filters="sRGB"><feFlood flood-opacity="0" result="BackgroundImageFix"/><feBlend in="SourceGraphic" in2="BackgroundImageFix" result="shape"/><feGaussianBlur stdDeviation=".5" result="effect1_foregroundBlur"/></filter><filter id="filter31_f" x="166" y="1435.72" width="5.003" height="3.983" filterUnits="userSpaceOnUse" color-interpolation-filters="sRGB"><feFlood flood-opacity="0" result="BackgroundImageFix"/><feBlend in="SourceGraphic" in2="BackgroundImageFix" result="shape"/><feGaussianBlur stdDeviation=".5" result="effect1_foregroundBlur"/></filter><filter id="filter32_f" x="441.285" y="1517.02" width="7.005" height="5.305" filterUnits="userSpaceOnUse" color-interpolation-filters="sRGB"><feFlood flood-opacity="0" result="BackgroundImageFix"/><feBlend in="SourceGraphic" in2="BackgroundImageFix" result="shape"/><feGaussianBlur stdDeviation=".5" result="effect1_foregroundBlur"/></filter><filter id="filter33_f" x="1308.18" y="1515.03" width="5.003" height="3.983" filterUnits="userSpaceOnUse" color-interpolation-filters="sRGB"><feFlood flood-opacity="0" result="BackgroundImageFix"/><feBlend in="SourceGraphic" in2="BackgroundImageFix" result="shape"/><feGaussianBlur stdDeviation=".5" result="effect1_foregroundBlur"/></filter><filter id="filter34_f" x="1608.49" y="1441.67" width="7.005" height="5.305" filterUnits="userSpaceOnUse" color-interpolation-filters="sRGB"><feFlood flood-opacity="0" result="BackgroundImageFix"/><feBlend in="SourceGraphic" in2="BackgroundImageFix" result="shape"/><feGaussianBlur stdDeviation=".5" result="effect1_foregroundBlur"/></filter><filter id="filter35_f" x="1124.99" y="1576.5" width="6.004" height="4.644" filterUnits="userSpaceOnUse" color-interpolation-filters="sRGB"><feFlood flood-opacity="0" result="BackgroundImageFix"/><feBlend in="SourceGraphic" in2="BackgroundImageFix" result="shape"/><feGaussianBlur stdDeviation=".5" result="effect1_foregroundBlur"/></filter><filter id="filter36_f" x="1367.24" y="1394.08" width="4.002" height="3.322" filterUnits="userSpaceOnUse" color-interpolation-filters="sRGB"><feFlood flood-opacity="0" result="BackgroundImageFix"/><feBlend in="SourceGraphic" in2="BackgroundImageFix" result="shape"/><feGaussianBlur stdDeviation=".5" result="effect1_foregroundBlur"/></filter><filter id="filter37_f" x="1710.6" y="1276.43" width="4.002" height="3.322" filterUnits="userSpaceOnUse" color-interpolation-filters="sRGB"><feFlood flood-opacity="0" result="BackgroundImageFix"/><feBlend in="SourceGraphic" in2="BackgroundImageFix" result="shape"/><feGaussianBlur stdDeviation=".5" result="effect1_foregroundBlur"/></filter><filter id="filter38_f" x="1413.29" y="1277.09" width="4.002" height="3.322" filterUnits="userSpaceOnUse" color-interpolation-filters="sRGB"><feFlood flood-opacity="0" result="BackgroundImageFix"/><feBlend in="SourceGraphic" in2="BackgroundImageFix" result="shape"/><feGaussianBlur stdDeviation=".5" result="effect1_foregroundBlur"/></filter><filter id="filter39_f" x="1295.17" y="1257.26" width="4.002" height="3.322" filterUnits="userSpaceOnUse" color-interpolation-filters="sRGB"><feFlood flood-opacity="0" result="BackgroundImageFix"/><feBlend in="SourceGraphic" in2="BackgroundImageFix" result="shape"/><feGaussianBlur stdDeviation=".5" result="effect1_foregroundBlur"/></filter><filter id="filter40_f" x="1527.41" y="1172" width="4.002" height="3.322" filterUnits="userSpaceOnUse" color-interpolation-filters="sRGB"><feFlood flood-opacity="0" result="BackgroundImageFix"/><feBlend in="SourceGraphic" in2="BackgroundImageFix" result="shape"/><feGaussianBlur stdDeviation=".5" result="effect1_foregroundBlur"/></filter><filter id="filter41_f" x="1517.4" y="1205.71" width="5.003" height="3.983" filterUnits="userSpaceOnUse" color-interpolation-filters="sRGB"><feFlood flood-opacity="0" result="BackgroundImageFix"/><feBlend in="SourceGraphic" in2="BackgroundImageFix" result="shape"/><feGaussianBlur stdDeviation=".5" result="effect1_foregroundBlur"/></filter><filter id="filter42_f" x="653.505" y="1483.31" width="5.003" height="3.983" filterUnits="userSpaceOnUse" color-interpolation-filters="sRGB"><feFlood flood-opacity="0" result="BackgroundImageFix"/><feBlend in="SourceGraphic" in2="BackgroundImageFix" result="shape"/><feGaussianBlur stdDeviation=".5" result="effect1_foregroundBlur"/></filter><filter id="filter43_f" x="818" y="0" width="1499" height="1087" filterUnits="userSpaceOnUse" color-interpolation-filters="sRGB"><feFlood flood-opacity="0" result="BackgroundImageFix"/><feBlend in="SourceGraphic" in2="BackgroundImageFix" result="shape"/><feGaussianBlur stdDeviation="125" result="effect1_foregroundBlur"/></filter><filter id="filter44_f" x="-502" y="677" width="1499" height="1087" filterUnits="userSpaceOnUse" color-interpolation-filters="sRGB"><feFlood flood-opacity="0" result="BackgroundImageFix"/><feBlend in="SourceGraphic" in2="BackgroundImageFix" result="shape"/><feGaussianBlur stdDeviation="125" result="effect1_foregroundBlur"/></filter><filter id="filter45_f" x="1496.56" y="457.006" width="4.002" height="4" filterUnits="userSpaceOnUse" color-interpolation-filters="sRGB"><feFlood flood-opacity="0" result="BackgroundImageFix"/><feBlend in="SourceGraphic" in2="BackgroundImageFix" result="shape"/><feGaussianBlur stdDeviation=".5" result="effect1_foregroundBlur"/></filter><filter id="filter46_f" x="1388.45" y="436.006" width="4.002" height="4" filterUnits="userSpaceOnUse" color-interpolation-filters="sRGB"><feFlood flood-opacity="0" result="BackgroundImageFix"/><feBlend in="SourceGraphic" in2="BackgroundImageFix" result="shape"/><feGaussianBlur stdDeviation=".5" result="effect1_foregroundBlur"/></filter><filter id="filter47_f" x="1364.43" y="397.005" width="4.002" height="4" filterUnits="userSpaceOnUse" color-interpolation-filters="sRGB"><feFlood flood-opacity="0" result="BackgroundImageFix"/><feBlend in="SourceGraphic" in2="BackgroundImageFix" result="shape"/><feGaussianBlur stdDeviation=".5" result="effect1_foregroundBlur"/></filter><filter id="filter48_f" x="1572.64" y="316.005" width="4.002" height="4" filterUnits="userSpaceOnUse" color-interpolation-filters="sRGB"><feFlood flood-opacity="0" result="BackgroundImageFix"/><feBlend in="SourceGraphic" in2="BackgroundImageFix" result="shape"/><feGaussianBlur stdDeviation=".5" result="effect1_foregroundBlur"/></filter><filter id="filter49_f" x="1188.24" y="434.006" width="4.002" height="4" filterUnits="userSpaceOnUse" color-interpolation-filters="sRGB"><feFlood flood-opacity="0" result="BackgroundImageFix"/><feBlend in="SourceGraphic" in2="BackgroundImageFix" result="shape"/><feGaussianBlur stdDeviation=".5" result="effect1_foregroundBlur"/></filter><filter id="filter50_f" x="1139.19" y="297.005" width="4.002" height="4" filterUnits="userSpaceOnUse" color-interpolation-filters="sRGB"><feFlood flood-opacity="0" result="BackgroundImageFix"/><feBlend in="SourceGraphic" in2="BackgroundImageFix" result="shape"/><feGaussianBlur stdDeviation=".5" result="effect1_foregroundBlur"/></filter><filter id="filter51_f" x="1196.25" y="247.005" width="4.002" height="4" filterUnits="userSpaceOnUse" color-interpolation-filters="sRGB"><feFlood flood-opacity="0" result="BackgroundImageFix"/><feBlend in="SourceGraphic" in2="BackgroundImageFix" result="shape"/><feGaussianBlur stdDeviation=".5" result="effect1_foregroundBlur"/></filter><filter id="filter52_f" x="1477.54" y="534.006" width="6.004" height="6" filterUnits="userSpaceOnUse" color-interpolation-filters="sRGB"><feFlood flood-opacity="0" result="BackgroundImageFix"/><feBlend in="SourceGraphic" in2="BackgroundImageFix" result="shape"/><feGaussianBlur stdDeviation=".5" result="effect1_foregroundBlur"/></filter><filter id="filter53_f" x="1726.8" y="645.006" width="5.003" height="5" filterUnits="userSpaceOnUse" color-interpolation-filters="sRGB"><feFlood flood-opacity="0" result="BackgroundImageFix"/><feBlend in="SourceGraphic" in2="BackgroundImageFix" result="shape"/><feGaussianBlur stdDeviation=".5" result="effect1_foregroundBlur"/></filter><filter id="filter54_f" x="1449.51" y="768.006" width="7.005" height="7" filterUnits="userSpaceOnUse" color-interpolation-filters="sRGB"><feFlood flood-opacity="0" result="BackgroundImageFix"/><feBlend in="SourceGraphic" in2="BackgroundImageFix" result="shape"/><feGaussianBlur stdDeviation=".5" result="effect1_foregroundBlur"/></filter><filter id="filter55_f" x="584.618" y="765.006" width="5.003" height="5" filterUnits="userSpaceOnUse" color-interpolation-filters="sRGB"><feFlood flood-opacity="0" result="BackgroundImageFix"/><feBlend in="SourceGraphic" in2="BackgroundImageFix" result="shape"/><feGaussianBlur stdDeviation=".5" result="effect1_foregroundBlur"/></filter><filter id="filter56_f" x="282.305" y="654.006" width="7.005" height="7" filterUnits="userSpaceOnUse" color-interpolation-filters="sRGB"><feFlood flood-opacity="0" result="BackgroundImageFix"/><feBlend in="SourceGraphic" in2="BackgroundImageFix" result="shape"/><feGaussianBlur stdDeviation=".5" result="effect1_foregroundBlur"/></filter><filter id="filter57_f" x="526.558" y="582.006" width="4.002" height="4" filterUnits="userSpaceOnUse" color-interpolation-filters="sRGB"><feFlood flood-opacity="0" result="BackgroundImageFix"/><feBlend in="SourceGraphic" in2="BackgroundImageFix" result="shape"/><feGaussianBlur stdDeviation=".5" result="effect1_foregroundBlur"/></filter><filter id="filter58_f" x="183.202" y="404.005" width="4.002" height="4" filterUnits="userSpaceOnUse" color-interpolation-filters="sRGB"><feFlood flood-opacity="0" result="BackgroundImageFix"/><feBlend in="SourceGraphic" in2="BackgroundImageFix" result="shape"/><feGaussianBlur stdDeviation=".5" result="effect1_foregroundBlur"/></filter><filter id="filter59_f" x="480.509" y="405.006" width="4.002" height="4" filterUnits="userSpaceOnUse" color-interpolation-filters="sRGB"><feFlood flood-opacity="0" result="BackgroundImageFix"/><feBlend in="SourceGraphic" in2="BackgroundImageFix" result="shape"/><feGaussianBlur stdDeviation=".5" result="effect1_foregroundBlur"/></filter><filter id="filter60_f" x="598.632" y="375.005" width="4.002" height="4" filterUnits="userSpaceOnUse" color-interpolation-filters="sRGB"><feFlood flood-opacity="0" result="BackgroundImageFix"/><feBlend in="SourceGraphic" in2="BackgroundImageFix" result="shape"/><feGaussianBlur stdDeviation=".5" result="effect1_foregroundBlur"/></filter><filter id="filter61_f" x="366.393" y="246.005" width="4.002" height="4" filterUnits="userSpaceOnUse" color-interpolation-filters="sRGB"><feFlood flood-opacity="0" result="BackgroundImageFix"/><feBlend in="SourceGraphic" in2="BackgroundImageFix" result="shape"/><feGaussianBlur stdDeviation=".5" result="effect1_foregroundBlur"/></filter><filter id="filter62_f" x="375.401" y="297.005" width="5.003" height="5" filterUnits="userSpaceOnUse" color-interpolation-filters="sRGB"><feFlood flood-opacity="0" result="BackgroundImageFix"/><feBlend in="SourceGraphic" in2="BackgroundImageFix" result="shape"/><feGaussianBlur stdDeviation=".5" result="effect1_foregroundBlur"/></filter><filter id="filter63_f" x="1239.3" y="717.006" width="5.003" height="5" filterUnits="userSpaceOnUse" color-interpolation-filters="sRGB"><feFlood flood-opacity="0" result="BackgroundImageFix"/><feBlend in="SourceGraphic" in2="BackgroundImageFix" result="shape"/><feGaussianBlur stdDeviation=".5" result="effect1_foregroundBlur"/></filter></defs></svg>