<svg width="153" height="22" viewBox="0 0 153 22" fill="none" xmlns="http://www.w3.org/2000/svg"><g clip-path="url(#clip0)" fill="#6DC071"><path d="M13.822 4.6S11.704 2 7.741 2C3.778 2 1.075 4.242 1.075 7.47c0 3.228 3.041 4.753 6.02 6.068 2.888 1.285 4.086 2.361 3.87 4.035-.214 1.674-1.965 2.212-4.177 2.212-2.211 0-4.607-2.241-4.607-2.241L0 19.785s2.826 3.109 6.911 3.109c4.086 0 7.495-1.674 7.495-6.008s-5.099-5.889-7.218-6.815c-2.12-.927-2.826-1.734-2.826-2.72.03-1.346 1.044-2.75 3.348-2.75s4.239 2.032 4.239 2.032l1.873-2.032zm4.454-2.358v15.932s-.061 1.883 1.936 2.93c1.996 1.045 5.498-.27 5.498-.27l-.799-2.391s-2.027.568-2.887.239c-.922-.359-.83-1.405-.83-1.405V2.242h-2.918z"/><path d="M25.218 6.457h-9.706v2.899h9.706v-2.9zm15.451 8.01s.522-7.741-5.96-8.01c-5.927-.24-7.525 3.587-7.525 7.682 0 4.095 2.427 7.562 7.28 7.562 4.024 0 5.683-2.092 5.683-2.092l-1.475-1.824s-1.413 1.674-4.054 1.674c-2.642 0-3.993-2.45-4.178-3.348-.215-.896-.153-1.614-.153-1.614l10.382-.03zm-10.474-1.972s.43-3.767 3.84-3.767c3.409 0 3.839 3.767 3.839 3.767h-7.68zm86.191 1.972s.522-7.741-5.959-8.01c-5.929-.24-7.526 3.587-7.526 7.682 0 4.095 2.427 7.562 7.28 7.562 4.024 0 5.682-2.092 5.682-2.092l-1.474-1.824s-1.413 1.674-4.055 1.674c-2.641 0-3.993-2.45-4.177-3.348-.215-.896-.154-1.614-.154-1.614l10.383-.03zm-10.475-1.972s.43-3.767 3.84-3.767c3.409 0 3.839 3.767 3.839 3.767h-7.679zm-58.699 5.739V0h-3.287v19.07s0 1.794 1.382 2.422c1.444.657 4.085-.03 4.085-.03l-1.29-2.78c0-.03-.767.18-.89-.448zm8.538 0V0h-3.286v19.07s0 1.794 1.382 2.422c1.444.657 4.086-.03 4.086-.03l-1.29-2.78c0-.03-.768.18-.891-.448zm16.803 3.288s0-10.163-.184-11.18c-.185-1.016-1.352-4.334-5.59-4.334-4.24 0-6.175 2.122-6.175 2.122l1.413 2.123s1.26-1.674 4.362-1.674c3.102 0 2.918 3.437 2.918 3.437s-1.72-.329-4.423.479c-2.703.807-4.7 2.84-4.7 4.961 0 2.123 1.167 4.215 4.3 4.215s5.1-2.152 5.1-2.152v2.003h2.979zm-3.471-4.006s-4.178 3.587-5.56.568c-1.628-3.587 5.56-4.095 5.56-4.095v3.527zm11.426-5.559v9.684h-3.286V6.457h2.764v2.75s1.905-2.302 3.625-2.87c1.013-.329 2.672-.329 2.672-.329l-.215 2.99s-1.444-.36-3.01.507c-.922.509-2.55 2.451-2.55 2.451zm42.328 0v9.684h-3.286V6.457h2.764v2.75s1.905-2.302 3.625-2.87c1.013-.329 2.672-.329 2.672-.329l-.215 2.99s-1.444-.36-3.01.507c-.952.509-2.55 2.451-2.55 2.451zm16.618-5.949c-3.502 0-5.376 3.199-5.376 3.199v-2.75h-2.764V21.64h3.287V10.82s1.351-2.033 3.44-2.033 2.549 2.122 2.549 2.122V21.61h3.134V11.12s1.382-2.332 3.44-2.332 2.365 2.54 2.365 2.54v10.313H153V10.163s-.369-4.125-4.116-4.125c-3.748 0-5.621 2.93-5.621 2.93s-1.444-2.96-3.809-2.96zm-36.676-4.753H87.205v3.318h15.573V1.255z"/><path d="M96.665 1.973h-3.44V21.64h3.44V1.973z"/></g><defs><clipPath id="clip0"><path fill="#fff" d="M0 0h153v22H0z"/></clipPath></defs></svg>