<svg width="213" height="53" viewBox="0 0 213 53" fill="none" xmlns="http://www.w3.org/2000/svg"><path d="M9.881 29.331a21.744 21.744 0 01-.185-2.834c.015-11.892 9.851-21.67 21.798-21.67 3.721 0 7.383.948 10.631 2.754l4.984-2.527A26.709 26.709 0 0031.47 0C16.86 0 4.84 11.964 4.84 26.503v.002c0 .675.026 1.347.077 2.017a4.828 4.828 0 01-2.63 4.66L0 34.342v5.415L62.937 7.836v-5.41L9.881 29.33zm53.056-16.078L0 45.158v5.41l53.069-26.914c.123.945.185 1.897.185 2.851-.006 11.898-9.845 21.685-21.798 21.685a21.89 21.89 0 01-10.663-2.771l-.266.14-4.703 2.385A26.719 26.719 0 0031.469 53c14.603 0 26.623-11.96 26.627-26.495 0-.68-.028-1.363-.077-2.035a4.828 4.828 0 012.626-4.66l2.292-1.16v-5.397zm74.829 3.759c-7.597 0-13.493 5.565-13.493 14.357 0 8.181 4.858 14.46 13.649 14.46 6.773 0 11.218-3.962 12.458-8.698h-4.858c-1.189 2.727-3.462 4.58-7.6 4.58-4.086 0-8.429-2.882-8.582-8.85h21.402c.571-8.8-4.445-15.85-12.976-15.85zm-8.375 11.834c.415-5.565 4.239-7.821 8.375-7.821 5.014 0 7.858 3.911 8.013 7.82h-16.388zm-33.73-5.095l-4.329-.977c-3.53-.774-6.123-2.417-6.123-5.712 0-4.17 5.058-5.455 7.96-5.455 3.727 0 8.066 1.493 9.305 5.763h5.121c-1.502-7.155-7.455-10.19-14.218-10.19-6.05 0-13.545 3.039-13.545 10.19 0 6.176 5.117 9.059 10.288 10.191l4.673.977c4.706 1.082 8.065 2.623 8.065 6.585 0 3.713-3.153 6.28-8.735 6.28-5.843 0-9.358-2.678-10.34-7.82h-5.182c.982 7.42 6.567 12.247 15.406 12.247 7.456 0 14.269-3.914 14.269-11.169 0-7.511-6.873-9.674-12.616-10.91zm22.718-13.225h-4.705v6.948h-4.396v3.756h4.396v16.982c0 5.765 1.242 6.946 6.567 6.946h3.412v-3.91h-2.379c-2.688 0-2.895-.72-2.895-3.602V21.23h5.274v-3.756h-5.274v-6.948zm93.226 6.793c-3.672.155-6.463 1.855-7.858 4.99v-4.835h-4.605v27.684h4.705v-14.51c0-6.176 2.173-8.48 6.516-8.48.884 0 1.766.067 2.637.205V17.37c-.464-.04-.929-.057-1.395-.051zm-16.989 17.402l.051-6.382c.053-7.874-3.257-11.423-11.063-11.423-5.376 0-10.755 3.346-11.168 9.314h4.859c.209-3.445 2.432-5.504 6.36-5.504 3.517 0 6.307 1.645 6.307 6.74v.668c-11.372 1.235-18.817 3.18-18.817 9.724 0 5.095 4.341 7.978 9.564 7.978 4.963 0 7.807-1.59 9.511-4.475.04 1.274.162 2.546.362 3.805h4.756c-.567-2.63-.775-5.768-.722-10.445zm-4.292-1.13c0 6.532-4.185 8.541-8.582 8.541-3.361 0-5.376-1.749-5.376-4.375 0-3.81 5.427-5.095 13.958-5.92v1.754zM153.91 7.83h4.705v37.327h-4.705V7.832zm9.406 0h4.705v37.327h-4.705V7.832z" fill="#8D96BD"/></svg>