<svg width="175" height="34" viewBox="0 0 175 34" fill="none" xmlns="http://www.w3.org/2000/svg"><g clip-path="url(#clip0)" fill="#313247"><path d="M18.186 14.711h-5.942s-.205-2.366-2.562-2.366c-2.356 0-2.766 1.595-2.766 2.675 0 1.08.564 2.469 6.455 3.858 5.891 1.44 5.84 6.018 5.43 8.28-.358 2.264-2.664 6.688-9.836 6.688-7.172 0-8.453-4.167-8.76-5.144C0 27.776 0 26.284 0 26.284h5.994s0 2.984 2.715 2.984 3.432-.926 3.432-3.086c0-2.16-5.071-2.058-8.709-4.938-3.637-2.88-3.432-6.79-2.151-9.105 1.28-2.314 4.15-4.783 9.17-4.372 5.123.463 7.223 4.218 7.735 6.944zm12.5 18.62V13.425h3.433v-5.04h-3.433V0h-6.762v8.384h-3.432v5.041h3.432v19.906h6.762zM48.617 8.024c-10.86 0-13.166 8.076-13.166 12.705C35.45 25.924 38.73 34 48.309 34c9.53 0 11.937-7.819 11.937-7.819h-7.48s-1.075 1.955-4.508 1.955c-3.432 0-5.225-2.315-5.635-3.189-.41-.874-.41-1.697-.41-1.697l19.109.051c.102 0 .717-15.277-12.705-15.277zm-6.711 10.493s1.23-4.783 6.403-4.783c5.175 0 6.404 4.783 6.404 4.783H41.906zm58.453-10.236c-6.711 0-12.142 5.607-12.142 12.551s5.43 12.55 12.142 12.55c6.711 0 12.141-5.606 12.141-12.55 0-6.944-5.43-12.55-12.141-12.55zm1.127 19.392c-3.689 0-6.66-3.086-6.66-6.892 0-3.807 2.971-6.893 6.66-6.893 3.688 0 6.66 3.086 6.66 6.893 0 3.806-2.972 6.892-6.66 6.892z"/><path d="M114.6 8.281h-6.864v25.102h6.864V8.28zm11.988 0h-6.865v25.102h6.865V8.28zm7.889 9.053c2.575 0 4.662-2.095 4.662-4.68 0-2.586-2.087-4.681-4.662-4.681-2.574 0-4.661 2.095-4.661 4.68 0 2.586 2.087 4.681 4.661 4.681zm14.14-9.361h8.35l17.931 25.564h-8.658l-4.457-6.327-4.611 6.327h-8.555l9.272-12.808-9.272-12.756zm13.832 5.967l4.252-5.967H175l-4.406 5.967h-8.145zM83.863 0H77.1v33.331h6.763V0zM71.875 0h-6.762v33.331h6.762V0z"/></g><defs><clipPath id="clip0"><path fill="#fff" d="M0 0h175v34H0z"/></clipPath></defs></svg>