<svg width="208" height="35" viewBox="0 0 208 35" fill="none" xmlns="http://www.w3.org/2000/svg"><g clip-path="url(#clip0)"><path d="M39.779 23.361c1.522.924 3.737 1.679 6.09 1.679 3.46 0 5.508-1.79 5.508-4.392 0-2.407-1.412-3.777-4.955-5.12-4.29-1.483-6.948-3.665-6.948-7.303 0-4.028 3.405-6.994 8.498-6.994 2.685 0 4.65.616 5.813 1.26l-.94 2.713a10.702 10.702 0 00-4.983-1.231c-3.599 0-4.955 2.098-4.955 3.86 0 2.407 1.605 3.61 5.231 4.98 4.457 1.68 6.7 3.778 6.7 7.583 0 3.973-3.018 7.414-9.219 7.414-2.546 0-5.315-.728-6.699-1.65l.858-2.799zm23.612-19.78v5.316h4.927v2.574h-4.927v9.988c0 2.294.664 3.609 2.574 3.609.886 0 1.55-.112 1.993-.224l.167 2.518c-.665.28-1.717.448-3.045.448-1.606 0-2.88-.504-3.71-1.427-.969-1.007-1.328-2.63-1.328-4.812v-10.1h-2.935V8.897h2.935v-4.42l3.349-.896zm10.436 15.192c.083 4.56 3.045 6.435 6.478 6.435 2.463 0 3.93-.42 5.231-.951l.582 2.406c-1.218.531-3.267 1.147-6.284 1.147-5.813 0-9.273-3.75-9.273-9.345 0-5.595 3.349-9.988 8.858-9.988 6.173 0 7.806 5.316 7.806 8.73 0 .699-.083 1.23-.11 1.566H73.826zm10.076-2.406c.028-2.154-.886-5.484-4.761-5.484-3.46 0-4.983 3.134-5.26 5.484h10.021zM91.488.252h3.432v27.166h-3.432V.252zm9.19 0h3.433v27.166h-3.433V.252zm19.682 27.166l-.277-2.322h-.111c-1.052 1.455-3.072 2.742-5.785 2.742-3.82 0-5.786-2.63-5.786-5.316 0-4.476 4.07-6.938 11.35-6.883v-.391c0-1.539-.415-4.28-4.291-4.28-1.744 0-3.598.53-4.927 1.37l-.775-2.21c1.55-1.007 3.82-1.65 6.2-1.65 5.786 0 7.17 3.86 7.17 7.581v6.939c0 1.594.083 3.161.305 4.448l-3.073-.028zm-.526-9.428c-3.737-.084-8 .56-8 4.168 0 2.182 1.495 3.218 3.239 3.218 2.463 0 4.013-1.54 4.567-3.106.111-.336.194-.727.194-1.063V17.99zm8.858-3.302c0-2.182-.028-4.056-.166-5.763h3.017l.111 3.637h.166c.858-2.49 2.934-4.057 5.232-4.057.387 0 .664.028.969.112v3.162c-.36-.084-.692-.112-1.163-.112-2.408 0-4.124 1.79-4.595 4.336a8.767 8.767 0 00-.166 1.567v9.848h-3.405v-12.73zm12.927.252c0-2.378-.083-4.28-.166-6.043h3.073l.166 3.161h.083c1.412-2.266 3.626-3.609 6.699-3.609 4.567 0 8 3.777 8 9.4 0 6.66-4.125 9.96-8.581 9.96-2.492 0-4.679-1.062-5.813-2.909h-.084v10.072h-3.404l.027-20.032zm3.405 4.952c0 .504.083.951.166 1.371.637 2.322 2.685 3.945 5.149 3.945 3.626 0 5.73-2.91 5.73-7.162 0-3.721-1.993-6.883-5.619-6.883-2.353 0-4.54 1.65-5.177 4.169-.11.42-.221.923-.221 1.37l-.028 3.19zm35.876-1.875c0 6.855-4.845 9.82-9.412 9.82-5.121 0-9.052-3.664-9.052-9.54 0-6.21 4.125-9.82 9.356-9.82 5.454 0 9.108 3.89 9.108 9.54zm-14.976.196c0 4.057 2.381 7.107 5.73 7.107 3.266 0 5.73-3.022 5.73-7.19 0-3.134-1.605-7.107-5.647-7.107-4.041 0-5.813 3.665-5.813 7.19zm19.322-3.525c0-2.182-.028-4.056-.166-5.763h3.017l.111 3.637h.166c.858-2.49 2.934-4.057 5.232-4.057.387 0 .664.028.968.112v3.162c-.359-.084-.692-.112-1.162-.112-2.409 0-4.125 1.79-4.595 4.336a8.767 8.767 0 00-.166 1.567v9.848h-3.405v-12.73zm17.827-11.107v5.316H208v2.574h-4.927v9.988c0 2.294.664 3.609 2.574 3.609.886 0 1.55-.112 1.993-.224l.166 2.518c-.664.28-1.716.448-3.045.448-1.605 0-2.879-.504-3.709-1.427-.969-1.007-1.329-2.63-1.329-4.812v-10.1h-2.934V8.897h2.934v-4.42l3.35-.896z" fill="#13A9E7"/><path d="M15.557 21.151c3.302 0 5.98-2.706 5.98-6.043 0-3.338-2.678-6.043-5.98-6.043-3.302 0-5.98 2.705-5.98 6.043 0 3.337 2.678 6.043 5.98 6.043z" fill="#EAC000"/><path d="M21.066 1.063S19.294.7 14.56 5.903c-3.516 3.861-6.09 7.275-6.09 7.275s-2.796-9.625 0-11.723c2.796-2.098 8.36-1.679 12.595-.392z" fill="#13A9E7"/><path d="M5.98 2.966s-.305 5.4 1.466 10.603c1.689 4.98 2.824 6.687 2.824 6.687S.554 18.213.055 14.716c-.498-3.469 2.796-8.589 5.924-11.75z" fill="#13A9E7"/><path d="M.305 17.57s3.487 2.686 9.411 3.581c5.15.784 7.723.588 7.723.588s-6.31 7.75-9.605 6.574c-3.266-1.147-6.2-6.462-7.53-10.743z" fill="#13A9E7"/><path d="M9.91 29.32s3.848-1.79 7.28-5.4c3.599-3.804 5.177-7.217 5.177-7.217s3.266 9.484.581 11.722c-2.713 2.21-8.72 1.987-13.038.895z" fill="#13A9E7"/><path d="M25.107 26.467s.47-4.784-1.273-9.764c-1.716-4.952-4.097-7.19-4.097-7.19s9.827 1.426 10.547 4.867c.72 3.442-2.243 8.73-5.177 12.087z" fill="#13A9E7"/><path d="M30.976 12.534s-2.88-2.686-8.25-3.75c-5.093-.978-8.94-.223-8.94-.223s6.228-7.834 9.522-6.687c3.294 1.12 6.284 6.407 7.668 10.66z" fill="#13A9E7"/></g><defs><clipPath id="clip0"><path fill="#fff" d="M0 0h208v35H0z"/></clipPath></defs></svg>