<svg width="34" height="34" viewBox="0 0 34 34" fill="none" xmlns="http://www.w3.org/2000/svg"><path d="M24.331 9.68a1.22 1.22 0 00-.966-.435c-.215 0-.442.045-.675.134L6.811 15.441c-.842.321-.956.804-.949 1.063.008.259.148.734 1.008 1.008l.015.004 3.294.943 1.781 5.093c.243.695.788 1.126 1.423 1.126.4 0 .794-.168 1.139-.485l2.037-1.876 2.955 2.38h.001l.028.023.008.006c.328.255.687.39 1.037.39.684 0 1.23-.507 1.388-1.29l2.602-12.847c.104-.516.017-.977-.247-1.3zm-13.05 8.6l6.354-3.247-3.956 4.205a.549.549 0 00-.134.245l-.763 3.09-1.501-4.293zm2.496 5.105a1.048 1.048 0 01-.08.065l.709-2.866 1.287 1.036-1.916 1.765zM23.5 10.76l-2.6 12.848c-.025.123-.105.41-.31.41-.102 0-.23-.056-.36-.157l-3.35-2.696-1.993-1.605 5.722-6.08a.55.55 0 00-.65-.866l-9.411 4.808-3.339-.955 15.874-6.06a.805.805 0 01.283-.062c.033 0 .093.004.115.031.03.036.067.158.02.386z" fill="#fff"/><circle cx="17" cy="17" r="16.414" stroke="#fff" stroke-width="1.172"/></svg>