<svg width="34" height="34" viewBox="0 0 34 34" fill="none" xmlns="http://www.w3.org/2000/svg"><path d="M26.575 11.588c-1.18.055-1.154.05-1.288.062l.699-1.996s-2.181.802-2.734.946c-1.453-1.306-3.611-1.363-5.155-.415-1.264.777-1.942 2.112-1.716 3.671-2.46-.341-4.532-1.507-6.168-3.473l-.518-.621-.387.71a4.292 4.292 0 00-.457 2.889c.08.396.215.774.402 1.128l-.443-.172-.053.741c-.054.754.197 1.634.671 2.353.133.203.305.425.523.645l-.23-.035.28.85c.368 1.116 1.133 1.98 2.124 2.46-.99.421-1.79.69-3.106 1.122l-1.203.395 1.112.608c.423.232 1.92 1.006 3.4 1.238 3.29.515 6.992.096 9.485-2.15 2.1-1.89 2.789-4.58 2.645-7.38a1.75 1.75 0 01.327-1.138c.466-.622 1.787-2.433 1.79-2.438zm-2.669 1.78a2.848 2.848 0 00-.544 1.852c.144 2.824-.624 5.014-2.284 6.508-1.939 1.746-5.066 2.432-8.58 1.88-.636-.099-1.293-.322-1.838-.546 1.103-.379 1.955-.717 3.33-1.368l1.92-.909-2.12-.135c-1.015-.065-1.86-.557-2.38-1.356a3.73 3.73 0 00.807-.135l2.021-.563-2.038-.499a3.036 3.036 0 01-1.855-1.29 3.108 3.108 0 01-.402-.886c.205.054.443.093.827.131l1.887.187-1.495-1.166c-1.077-.84-1.509-2.102-1.192-3.316 3.361 3.487 7.308 3.225 7.706 3.317-.088-.85-.09-.851-.113-.932-.509-1.799.606-2.712 1.11-3.021 1.05-.646 2.717-.743 3.872.32.25.23.587.32.902.242.284-.07.517-.145.744-.226l-.474 1.354h.605c-.114.153-.25.337-.416.556z" fill="#3D57F4"/><circle cx="17" cy="17" r="16.414" stroke="#3D57F4" stroke-width="1.172"/></svg>