<svg width="36" height="36" viewBox="0 0 36 36" fill="none" xmlns="http://www.w3.org/2000/svg"><path d="M13.468 24.802c-.657-.103-1.33-.333-1.882-.559l-.48-.196.49-.17c1.096-.376 1.941-.712 3.31-1.36l1.237-.585-1.366-.087c-1.074-.07-1.976-.592-2.531-1.445l-.184-.282.336-.02c.262-.014.514-.057.766-.127h0l1.302-.363-1.313-.321a3.231 3.231 0 01-1.97-1.372h0a3.304 3.304 0 01-.428-.943l-.09-.328.33.088c.189.05.415.088.795.126l1.215.12-.963-.75c-1.135-.886-1.598-2.227-1.261-3.52l.088-.337.242.25c1.65 1.713 3.444 2.504 4.873 2.879.715.187 1.34.27 1.81.313.232.02.426.031.578.04h.007l.078.004c-.062-.591-.067-.608-.08-.655a.232.232 0 01-.002-.007h0c-.268-.95-.11-1.68.193-2.218a2.92 2.92 0 011.002-1.023h0c1.109-.68 2.875-.79 4.107.344a.788.788 0 00.723.195 7.21 7.21 0 00.726-.22l.385-.137-.135.386-.383 1.093h.719l-.233.313-.416.556M13.468 24.802s0 0 0 0l.03-.193-.03.193zm0 0c3.55.556 6.744-.13 8.74-1.928 1.716-1.545 2.495-3.798 2.349-6.664m0 0a2.653 2.653 0 01.506-1.726m-.506 1.726s0 0 0 0l-.195.01m.195-.01l-.195.01m.7-1.736s0 0 0 0l-.156-.117.157.117zm-.7 1.736c.144 2.824-.624 5.014-2.284 6.508l2.284-6.508zm1.74-3.635l-.099.284.3-.025a9.87 9.87 0 01.365-.019l.509-.023-.481.658c-.39.531-.835 1.139-1.067 1.448h0c-.263.351-.39.802-.366 1.266h0c.141 2.764-.54 5.387-2.58 7.225-2.431 2.19-6.064 2.613-9.324 2.102-1.444-.227-2.917-.986-3.338-1.216l-.093.171.093-.171-.716-.392.776-.255h0c1.315-.432 2.122-.703 3.12-1.127l.397-.168-.387-.187c-.944-.457-1.672-1.279-2.024-2.346 0 0 0 0 0 0l-.18-.548.5.077-.417-.42a3.977 3.977 0 01-.499-.615h0c-.453-.69-.69-1.527-.64-2.232 0 0 0 0 0 0l.035-.478.197.077.488.19-.245-.464a3.956 3.956 0 01-.383-1.075 4.096 4.096 0 01.437-2.757h0l.25-.457.332.4s0 0 0 0c1.667 2.002 3.783 3.194 6.292 3.542l.258.035-.037-.257c-.215-1.48.425-2.739 1.624-3.476 1.477-.908 3.54-.849 4.922.393l.078.07.102-.026c.287-.075.98-.315 1.59-.532.29-.103.565-.202.774-.278l-.562 1.606zm-7.426 3.49l-.021-.202-.178.181c.095.006.162.012.199.02z" fill="#fff" stroke="#fff" stroke-width=".391"/><circle cx="18" cy="18" r="17" stroke="#fff"/></svg>