<svg width="1920" height="1550" viewBox="0 0 1920 1550" fill="none" xmlns="http://www.w3.org/2000/svg"><path d="M-2 0h4v100.946c38.317-1.88 64.761 7.829 95.282 19.033C153.846 140.745 224.41 166.65 410.5 133.46c59.261-10.569 113.73-24.112 166.567-37.25C779.671 45.835 958.271 1.428 1291 153.545c419.5 191.787 631-52.599 631-52.599V1550l-80.17-76.67c-80.16-76.66-240.5-230-400.83-249.16-97.59-11.67-195.19 26.37-292.78 64.42-62.74 24.45-125.48 48.91-188.22 60.16-111 19.9-222-1.53-333-22.97-49.333-9.52-98.667-19.05-148-24.95-160.332-19.16-320.665 0-400.832 9.59h-.001L-2 1320V0z" fill="url(#paint0_linear)"/><defs><linearGradient id="paint0_linear" x1="2318.5" y1="1478" x2="104" y2="155.5" gradientUnits="userSpaceOnUse"><stop stop-color="#E1E5FD"/><stop offset="1" stop-color="#E1E5FD" stop-opacity="0"/></linearGradient></defs></svg>