<svg width="34" height="34" viewBox="0 0 34 34" fill="none" xmlns="http://www.w3.org/2000/svg"><path d="M20.083 16.352l-4.144-2.267a.755.755 0 00-.754.013.755.755 0 00-.373.655v4.496a.76.76 0 001.122.67l4.144-2.228a.761.761 0 00.005-1.338zm-4.172 2.331v-3.36l3.098 1.695-3.098 1.665z" fill="#fff"/><path d="M26.437 13.441l-.001-.009c-.016-.15-.174-1.494-.827-2.177-.755-.803-1.61-.9-2.022-.948a5.414 5.414 0 01-.093-.01l-.033-.004c-2.48-.18-6.225-.205-6.262-.205h-.007c-.037 0-3.783.025-6.285.205l-.033.003-.088.01c-.406.048-1.253.146-2.01.978-.622.676-.801 1.99-.82 2.138l-.002.019a38.954 38.954 0 00-.138 3.06v1.404c0 1.501.133 2.997.138 3.06l.001.01c.016.148.174 1.466.824 2.15.71.776 1.607.88 2.09.934.075.01.141.017.186.024l.043.007c1.432.136 5.922.203 6.112.206h.011c.038 0 3.783-.025 6.263-.206l.033-.003.105-.012c.404-.043 1.246-.132 1.992-.953.622-.676.802-1.99.82-2.138l.003-.019c.005-.063.138-1.559.138-3.06V16.5c0-1.501-.133-2.997-.138-3.06zm-.962 4.464c0 1.39-.12 2.821-.132 2.952-.047.362-.237 1.194-.54 1.523-.467.514-.947.565-1.297.602a6.022 6.022 0 00-.117.013c-2.399.174-6.002.2-6.168.201-.187-.002-4.61-.07-5.999-.2a4.866 4.866 0 00-.229-.029c-.41-.047-.973-.111-1.405-.587l-.01-.01c-.298-.31-.483-1.088-.53-1.508-.008-.1-.133-1.548-.133-2.957V16.5c0-1.388.122-2.818.133-2.952.056-.426.25-1.207.54-1.523.481-.53.989-.588 1.324-.627l.09-.01c2.433-.175 6.063-.201 6.193-.202.13 0 3.76.027 6.171.201l.097.012c.345.039.867.098 1.346.61l.005.004c.297.31.481 1.101.528 1.53.009.093.133 1.545.133 2.957v1.404z" fill="#fff"/><circle cx="17" cy="17" r="16.414" stroke="#fff" stroke-width="1.172"/></svg>